<?xml version="1.0" encoding="UTF-8" standalone="no"?>
<svg
   xmlns:dc="http://purl.org/dc/elements/1.1/"
   xmlns:cc="http://creativecommons.org/ns#"
   xmlns:rdf="http://www.w3.org/1999/02/22-rdf-syntax-ns#"
   xmlns:svg="http://www.w3.org/2000/svg"
   xmlns="http://www.w3.org/2000/svg"
   version="1.1"
   id="svg1200"
   xml:space="preserve"
   width="256"
   height="275"
   viewBox="0 0 256 275"><metadata
     id="metadata1206"><rdf:RDF><cc:Work
         rdf:about=""><dc:format>image/svg+xml</dc:format><dc:type
           rdf:resource="http://purl.org/dc/dcmitype/StillImage" /><dc:title></dc:title></cc:Work></rdf:RDF></metadata><defs
     id="defs1204"><clipPath
       clipPathUnits="userSpaceOnUse"
       id="clipPath1218"><path
         d="M 0,0 H 192 V 206.25 H 0 Z"
         id="path1216" /></clipPath></defs><g
     id="g1208"
     transform="matrix(1.3333333,0,0,-1.3333333,0,275)"><g
       id="g1210" /><g
       id="g1212"><g
         id="g1214"
         clip-path="url(#clipPath1218)"><path
           d="M 62.25,204.75 H 190.5 V 22.5 H 62.25 Z"
           style="fill:#ffffff;fill-opacity:1;fill-rule:nonzero;stroke:none"
           id="path1220" /><g
           id="g1222"
           transform="matrix(0.75,0,0,-0.75,-18.75,258.75)"><path
             d="M 108,72 H 279 V 315 H 108 Z"
             style="fill:none;stroke:#000000;stroke-width:1;stroke-linecap:round;stroke-linejoin:round;stroke-miterlimit:10;stroke-dasharray:none;stroke-opacity:1"
             id="path1224" /></g><path
           d="m 42,177.2687 c 0,4.476 -0.51435,5.0298 -4.27154,9.4595 l -0.03969,0.0458 c -3.77703,4.476 -3.81631,4.476 -7.69256,4.476 -5.16133,0 -28.49621,0 -28.49621,0 V 144 H 42 Z"
           style="fill:#ffffff;fill-opacity:1;fill-rule:nonzero;stroke:none"
           id="path1226" /><g
           id="g1228"
           transform="matrix(0.75,0,0,-0.75,-18.75,258.75)"><path
             d="m 81,108.6417 c 0,-5.968 -0.6858,-6.7063 -5.69538,-12.6126 L 75.2517,95.96799 C 70.21566,90 70.16328,90 64.99494,90 58.11318,90 27,90 27,90 v 63 h 54 z m 0,-0.3074 c 0,-5.6606 -0.05292,-5.6606 -10.83672,-5.6606 v 0 c 0,-12.61196 0,-12.6737 -4.8519,-12.6737"
             style="fill:none;stroke:#000000;stroke-width:1;stroke-linecap:round;stroke-linejoin:round;stroke-miterlimit:10;stroke-dasharray:none;stroke-opacity:1"
             id="path1230" /></g><g
           id="g1232"
           transform="matrix(0.75,0,0,-0.75,21.75,167.625)"><text
             transform="translate(-21.784,5.776001)"
             style="font-variant:normal;font-weight:normal;font-size:16px;font-family:'Helvetica Neue';-inkscape-font-specification:HelveticaNeue;writing-mode:lr-tb;fill:#000000;fill-opacity:1;fill-rule:nonzero;stroke:none"
             id="text1236"><tspan
               x="0 11.552 20.736 34.672001"
               y="0"
               id="tspan1234">HTML</tspan></text></g><path
           d="m 123,177.2687 c 0,4.476 -0.5144,5.0298 -4.2715,9.4595 l -0.0397,0.0458 c -3.7771,4.476 -3.8163,4.476 -7.6926,4.476 -5.1613,0 -28.4962,0 -28.4962,0 V 144 H 123 Z"
           style="fill:#ffffff;fill-opacity:1;fill-rule:nonzero;stroke:none"
           id="path1238" /><g
           id="g1240"
           transform="matrix(0.75,0,0,-0.75,-18.75,258.75)"><path
             d="m 189,108.6417 c 0,-5.968 -0.6858,-6.7063 -5.6954,-12.6126 l -0.0529,-0.06111 C 178.2157,90 178.1633,90 172.9949,90 166.1132,90 135,90 135,90 v 63 h 54 z m 0,-0.3074 c 0,-5.6606 -0.0529,-5.6606 -10.8367,-5.6606 v 0 c 0,-12.61196 0,-12.6737 -4.8519,-12.6737"
             style="fill:none;stroke:#000000;stroke-width:1;stroke-linecap:round;stroke-linejoin:round;stroke-miterlimit:10;stroke-dasharray:none;stroke-opacity:1"
             id="path1242" /></g><g
           id="g1244"
           transform="matrix(0.75,0,0,-0.75,102.75,167.625)"><text
             transform="translate(-9.336,5.776001)"
             style="font-variant:normal;font-weight:normal;font-size:16px;font-family:'Helvetica Neue';-inkscape-font-specification:HelveticaNeue;writing-mode:lr-tb;fill:#000000;fill-opacity:1;fill-rule:nonzero;stroke:none"
             id="text1248"><tspan
               x="0 8.3039999"
               y="0"
               id="tspan1246">JS</tspan></text></g><path
           d="m 150,123.2687 c 0,4.476 -0.5144,5.0298 -4.2715,9.4595 l -0.0397,0.0458 c -3.7771,4.476 -3.8163,4.476 -7.6926,4.476 -5.1613,0 -28.4962,0 -28.4962,0 V 90 H 150 Z"
           style="fill:#ffffff;fill-opacity:1;fill-rule:nonzero;stroke:none"
           id="path1250" /><g
           id="g1252"
           transform="matrix(0.75,0,0,-0.75,-18.75,258.75)"><path
             d="m 225,180.6417 c 0,-5.968 -0.6858,-6.7063 -5.6954,-12.6126 l -0.0529,-0.0611 C 214.2157,162 214.1633,162 208.9949,162 202.1132,162 171,162 171,162 v 63 h 54 z m 0,-0.3074 c 0,-5.6606 -0.0529,-5.6606 -10.8367,-5.6606 v 0 c 0,-12.612 0,-12.6737 -4.8519,-12.6737"
             style="fill:none;stroke:#000000;stroke-width:1;stroke-linecap:round;stroke-linejoin:round;stroke-miterlimit:10;stroke-dasharray:none;stroke-opacity:1"
             id="path1254" /></g><g
           id="g1256"
           transform="matrix(0.75,0,0,-0.75,129.75,113.625)"><text
             transform="translate(-9.336,5.776001)"
             style="font-variant:normal;font-weight:normal;font-size:16px;font-family:'Helvetica Neue';-inkscape-font-specification:HelveticaNeue;writing-mode:lr-tb;fill:#000000;fill-opacity:1;fill-rule:nonzero;stroke:none"
             id="text1260"><tspan
               x="0 8.3039999"
               y="0"
               id="tspan1258">JS</tspan></text></g><g
           id="g1262"
           transform="matrix(0.75,0,0,-0.75,-18.75,258.75)"><path
             d="m 148.5,153 v 11.9 12.85 h 22.5 -11.9 2"
             style="fill:none;stroke:#000000;stroke-width:1;stroke-linecap:round;stroke-linejoin:round;stroke-miterlimit:10;stroke-dasharray:1, 4;stroke-dashoffset:0;stroke-opacity:1"
             id="path1264" /></g><g
           id="g1266"
           transform="matrix(0.75,0,0,-0.75,-18.75,258.75)"><path
             d="m 169.1,177.75 h -8 m 0,-3 8,3 -8,3"
             style="fill:none;stroke:#000000;stroke-width:1;stroke-linecap:butt;stroke-linejoin:miter;stroke-miterlimit:10;stroke-dasharray:none;stroke-opacity:1"
             id="path1268" /></g><path
           d="m 177,69.26872 c 0,4.476 -0.5143,5.02977 -4.2715,9.45945 l -0.0397,0.04584 C 168.9117,83.25 168.8725,83.25 164.9962,83.25 c -5.1613,0 -28.4962,0 -28.4962,0 V 36 H 177 Z"
           style="fill:#ffffff;fill-opacity:1;fill-rule:nonzero;stroke:none"
           id="path1270" /><g
           id="g1272"
           transform="matrix(0.75,0,0,-0.75,-18.75,258.75)"><path
             d="m 261,252.6417 c 0,-5.968 -0.6858,-6.7063 -5.6954,-12.6126 l -0.0529,-0.0611 C 250.2157,234 250.1633,234 244.9949,234 238.1132,234 207,234 207,234 v 63 h 54 z m 0,-0.3074 c 0,-5.6606 -0.0529,-5.6606 -10.8367,-5.6606 v 0 c 0,-12.612 0,-12.6737 -4.8519,-12.6737"
             style="fill:none;stroke:#000000;stroke-width:1;stroke-linecap:round;stroke-linejoin:round;stroke-miterlimit:10;stroke-dasharray:none;stroke-opacity:1"
             id="path1274" /></g><g
           id="g1276"
           transform="matrix(0.75,0,0,-0.75,156.75,59.625)"><text
             transform="translate(-9.336,5.776001)"
             style="font-variant:normal;font-weight:normal;font-size:16px;font-family:'Helvetica Neue';-inkscape-font-specification:HelveticaNeue;writing-mode:lr-tb;fill:#000000;fill-opacity:1;fill-rule:nonzero;stroke:none"
             id="text1280"><tspan
               x="0 8.3039999"
               y="0"
               id="tspan1278">JS</tspan></text></g><g
           id="g1282"
           transform="matrix(0.75,0,0,-0.75,-18.75,258.75)"><path
             d="m 184.5,225 v 11.9 12.85 h 22.5 -11.9 2"
             style="fill:none;stroke:#000000;stroke-width:1;stroke-linecap:round;stroke-linejoin:round;stroke-miterlimit:10;stroke-dasharray:1, 4;stroke-dashoffset:0;stroke-opacity:1"
             id="path1284" /></g><g
           id="g1286"
           transform="matrix(0.75,0,0,-0.75,-18.75,258.75)"><path
             d="m 205.1,249.75 h -8 m 0,-3 8,3 -8,3"
             style="fill:none;stroke:#000000;stroke-width:1;stroke-linecap:butt;stroke-linejoin:miter;stroke-miterlimit:10;stroke-dasharray:none;stroke-opacity:1"
             id="path1288" /></g><g
           id="g1290"
           transform="matrix(0.75,0,0,-0.75,123,11.25)"><text
             transform="translate(-77.944,5.776001)"
             style="font-variant:normal;font-weight:normal;font-size:16px;font-family:'Helvetica Neue';-inkscape-font-specification:HelveticaNeue;writing-mode:lr-tb;fill:#000000;fill-opacity:1;fill-rule:nonzero;stroke:none"
             id="text1294"><tspan
               x="0 11.552 20.736 29.632 38.223999 46.816002 51.855999 60.448002 69.344002 77.935997 82.975998 91.568001 101.056 105.504 116.464 125.36 134.256 143.744 147.29601"
               y="0"
               id="tspan1292">Concatenated Bundle</tspan></text></g><g
           id="g1296"
           transform="matrix(0.75,0,0,-0.75,-18.75,258.75)"><path
             d="m 81,121.5 h 41.1"
             style="fill:none;stroke:#000000;stroke-width:2;stroke-linecap:round;stroke-linejoin:round;stroke-miterlimit:10;stroke-dasharray:none;stroke-opacity:1"
             id="path1298" /></g><g
           id="g1300"
           transform="matrix(0.75,0,0,-0.75,-18.75,258.75)"><path
             d="m 131.7,121.5 h -9.6 m 0,-3.6 9.6,3.6 -9.6,3.6"
             style="fill:none;stroke:#000000;stroke-width:2;stroke-linecap:butt;stroke-linejoin:miter;stroke-miterlimit:10;stroke-dasharray:none;stroke-opacity:1"
             id="path1302" /></g><g
           id="g1304"
           transform="matrix(0.75,0,0,-0.75,-18.75,258.75)"><path
             d="m 67.5,153 v 15.9 24.6 h 103.5 -15.9 3"
             style="fill:none;stroke:#000000;stroke-width:2;stroke-linecap:round;stroke-linejoin:round;stroke-miterlimit:10;stroke-dasharray:none;stroke-opacity:1"
             id="path1306" /></g><g
           id="g1308"
           transform="matrix(0.75,0,0,-0.75,-18.75,258.75)"><path
             d="m 167.7,193.5 h -9.6 m 0,-3.6 9.6,3.6 -9.6,3.6"
             style="fill:none;stroke:#000000;stroke-width:2;stroke-linecap:butt;stroke-linejoin:miter;stroke-miterlimit:10;stroke-dasharray:none;stroke-opacity:1"
             id="path1310" /></g><g
           id="g1312"
           transform="matrix(0.75,0,0,-0.75,-18.75,258.75)"><path
             d="m 54,153 v 15.9 96.6 h 153 -15.9 3"
             style="fill:none;stroke:#000000;stroke-width:2;stroke-linecap:round;stroke-linejoin:round;stroke-miterlimit:10;stroke-dasharray:none;stroke-opacity:1"
             id="path1314" /></g><g
           id="g1316"
           transform="matrix(0.75,0,0,-0.75,-18.75,258.75)"><path
             d="m 203.7,265.5 h -9.6 m 0,-3.6 9.6,3.6 -9.6,3.6"
             style="fill:none;stroke:#000000;stroke-width:2;stroke-linecap:butt;stroke-linejoin:miter;stroke-miterlimit:10;stroke-dasharray:none;stroke-opacity:1"
             id="path1318" /></g></g></g></g></svg>
