<?xml version="1.0" encoding="UTF-8" standalone="no"?>
<svg
   xmlns:dc="http://purl.org/dc/elements/1.1/"
   xmlns:cc="http://creativecommons.org/ns#"
   xmlns:rdf="http://www.w3.org/1999/02/22-rdf-syntax-ns#"
   xmlns:svg="http://www.w3.org/2000/svg"
   xmlns="http://www.w3.org/2000/svg"
   version="1.1"
   id="svg1338"
   xml:space="preserve"
   width="256"
   height="275"
   viewBox="0 0 256 275"><metadata
     id="metadata1344"><rdf:RDF><cc:Work
         rdf:about=""><dc:format>image/svg+xml</dc:format><dc:type
           rdf:resource="http://purl.org/dc/dcmitype/StillImage" /><dc:title></dc:title></cc:Work></rdf:RDF></metadata><defs
     id="defs1342"><clipPath
       clipPathUnits="userSpaceOnUse"
       id="clipPath1356"><path
         d="M 0,0 H 192 V 206.25 H 0 Z"
         id="path1354" /></clipPath></defs><g
     id="g1346"
     transform="matrix(1.3333333,0,0,-1.3333333,0,275)"><g
       id="g1348" /><g
       id="g1350"><g
         id="g1352"
         clip-path="url(#clipPath1356)"><path
           d="M 62.25,204.75 H 190.5 V 22.5 H 62.25 Z"
           style="fill:#ffffff;fill-opacity:1;fill-rule:nonzero;stroke:none"
           id="path1358" /><g
           id="g1360"
           transform="matrix(0.75,0,0,-0.75,-18.75,258.75)"><path
             d="M 108,72 H 279 V 315 H 108 Z"
             style="fill:none;stroke:#000000;stroke-width:1;stroke-linecap:round;stroke-linejoin:round;stroke-miterlimit:10;stroke-dasharray:none;stroke-opacity:1"
             id="path1362" /></g><path
           d="m 42,177.2687 c 0,4.476 -0.51435,5.0298 -4.27154,9.4595 l -0.03969,0.0458 c -3.77703,4.476 -3.81631,4.476 -7.69256,4.476 -5.16133,0 -28.49621,0 -28.49621,0 V 144 H 42 Z"
           style="fill:#ffffff;fill-opacity:1;fill-rule:nonzero;stroke:none"
           id="path1364" /><g
           id="g1366"
           transform="matrix(0.75,0,0,-0.75,-18.75,258.75)"><path
             d="m 81,108.6417 c 0,-5.968 -0.6858,-6.7063 -5.69538,-12.6126 L 75.2517,95.96799 C 70.21566,90 70.16328,90 64.99494,90 58.11318,90 27,90 27,90 v 63 h 54 z m 0,-0.3074 c 0,-5.6606 -0.05292,-5.6606 -10.83672,-5.6606 v 0 c 0,-12.61196 0,-12.6737 -4.8519,-12.6737"
             style="fill:none;stroke:#000000;stroke-width:1;stroke-linecap:round;stroke-linejoin:round;stroke-miterlimit:10;stroke-dasharray:none;stroke-opacity:1"
             id="path1368" /></g><g
           id="g1370"
           transform="matrix(0.75,0,0,-0.75,21.75,167.625)"><text
             transform="translate(-21.784,5.776001)"
             style="font-variant:normal;font-weight:normal;font-size:16px;font-family:'Helvetica Neue';-inkscape-font-specification:HelveticaNeue;writing-mode:lr-tb;fill:#000000;fill-opacity:1;fill-rule:nonzero;stroke:none"
             id="text1374"><tspan
               x="0 11.552 20.736 34.672001"
               y="0"
               id="tspan1372">HTML</tspan></text></g><path
           d="m 123,177.2687 c 0,4.476 -0.5144,5.0298 -4.2715,9.4595 l -0.0397,0.0458 c -3.7771,4.476 -3.8163,4.476 -7.6926,4.476 -5.1613,0 -28.4962,0 -28.4962,0 V 144 H 123 Z"
           style="fill:#ffffff;fill-opacity:1;fill-rule:nonzero;stroke:none"
           id="path1376" /><g
           id="g1378"
           transform="matrix(0.75,0,0,-0.75,-18.75,258.75)"><path
             d="m 189,108.6417 c 0,-5.968 -0.6858,-6.7063 -5.6954,-12.6126 l -0.0529,-0.06111 C 178.2157,90 178.1633,90 172.9949,90 166.1132,90 135,90 135,90 v 63 h 54 z m 0,-0.3074 c 0,-5.6606 -0.0529,-5.6606 -10.8367,-5.6606 v 0 c 0,-12.61196 0,-12.6737 -4.8519,-12.6737"
             style="fill:none;stroke:#000000;stroke-width:4;stroke-linecap:round;stroke-linejoin:round;stroke-miterlimit:10;stroke-dasharray:none;stroke-opacity:1"
             id="path1380" /></g><g
           id="g1382"
           transform="matrix(0.75,0,0,-0.75,102.75,167.625)"><text
             transform="translate(-17.184,-3.447998)"
             style="font-variant:normal;font-weight:normal;font-size:16px;font-family:'Helvetica Neue';-inkscape-font-specification:HelveticaNeue;writing-mode:lr-tb;fill:#000000;fill-opacity:1;fill-rule:nonzero;stroke:none"
             id="text1386"><tspan
               x="0 10.96 20.143999 29.327999 34.368"
               y="0"
               id="tspan1384">Root </tspan></text></g><g
           id="g1388"
           transform="matrix(0.75,0,0,-0.75,102.75,167.625)"><text
             transform="translate(-9.336,15)"
             style="font-variant:normal;font-weight:normal;font-size:16px;font-family:'Helvetica Neue';-inkscape-font-specification:HelveticaNeue;writing-mode:lr-tb;fill:#000000;fill-opacity:1;fill-rule:nonzero;stroke:none"
             id="text1392"><tspan
               x="0 8.3039999"
               y="0"
               id="tspan1390">JS</tspan></text></g><path
           d="m 150,123.2687 c 0,4.476 -0.5144,5.0298 -4.2715,9.4595 l -0.0397,0.0458 c -3.7771,4.476 -3.8163,4.476 -7.6926,4.476 -5.1613,0 -28.4962,0 -28.4962,0 V 90 H 150 Z"
           style="fill:#ffffff;fill-opacity:1;fill-rule:nonzero;stroke:none"
           id="path1394" /><g
           id="g1396"
           transform="matrix(0.75,0,0,-0.75,-18.75,258.75)"><path
             d="m 225,180.6417 c 0,-5.968 -0.6858,-6.7063 -5.6954,-12.6126 l -0.0529,-0.0611 C 214.2157,162 214.1633,162 208.9949,162 202.1132,162 171,162 171,162 v 63 h 54 z m 0,-0.3074 c 0,-5.6606 -0.0529,-5.6606 -10.8367,-5.6606 v 0 c 0,-12.612 0,-12.6737 -4.8519,-12.6737"
             style="fill:none;stroke:#000000;stroke-width:1;stroke-linecap:round;stroke-linejoin:round;stroke-miterlimit:10;stroke-dasharray:none;stroke-opacity:1"
             id="path1398" /></g><g
           id="g1400"
           transform="matrix(0.75,0,0,-0.75,129.75,113.625)"><text
             transform="translate(-9.336,5.776001)"
             style="font-variant:normal;font-weight:normal;font-size:16px;font-family:'Helvetica Neue';-inkscape-font-specification:HelveticaNeue;writing-mode:lr-tb;fill:#000000;fill-opacity:1;fill-rule:nonzero;stroke:none"
             id="text1404"><tspan
               x="0 8.3039999"
               y="0"
               id="tspan1402">JS</tspan></text></g><g
           id="g1406"
           transform="matrix(0.75,0,0,-0.75,-18.75,258.75)"><path
             d="m 148.5,153 v 15.9 8.85 h 22.5 -15.9 3"
             style="fill:none;stroke:#000000;stroke-width:2;stroke-linecap:round;stroke-linejoin:round;stroke-miterlimit:10;stroke-dasharray:none;stroke-opacity:1"
             id="path1408" /></g><g
           id="g1410"
           transform="matrix(0.75,0,0,-0.75,-18.75,258.75)"><path
             d="m 167.7,177.75 h -9.6 m 0,-3.6 9.6,3.6 -9.6,3.6"
             style="fill:none;stroke:#000000;stroke-width:2;stroke-linecap:butt;stroke-linejoin:miter;stroke-miterlimit:10;stroke-dasharray:none;stroke-opacity:1"
             id="path1412" /></g><path
           d="m 177,69.26872 c 0,4.476 -0.5143,5.02977 -4.2715,9.45945 l -0.0397,0.04584 C 168.9117,83.25 168.8725,83.25 164.9962,83.25 c -5.1613,0 -28.4962,0 -28.4962,0 V 36 H 177 Z"
           style="fill:#ffffff;fill-opacity:1;fill-rule:nonzero;stroke:none"
           id="path1414" /><g
           id="g1416"
           transform="matrix(0.75,0,0,-0.75,-18.75,258.75)"><path
             d="m 261,252.6417 c 0,-5.968 -0.6858,-6.7063 -5.6954,-12.6126 l -0.0529,-0.0611 C 250.2157,234 250.1633,234 244.9949,234 238.1132,234 207,234 207,234 v 63 h 54 z m 0,-0.3074 c 0,-5.6606 -0.0529,-5.6606 -10.8367,-5.6606 v 0 c 0,-12.612 0,-12.6737 -4.8519,-12.6737"
             style="fill:none;stroke:#000000;stroke-width:1;stroke-linecap:round;stroke-linejoin:round;stroke-miterlimit:10;stroke-dasharray:none;stroke-opacity:1"
             id="path1418" /></g><g
           id="g1420"
           transform="matrix(0.75,0,0,-0.75,156.75,59.625)"><text
             transform="translate(-9.336,5.776001)"
             style="font-variant:normal;font-weight:normal;font-size:16px;font-family:'Helvetica Neue';-inkscape-font-specification:HelveticaNeue;writing-mode:lr-tb;fill:#000000;fill-opacity:1;fill-rule:nonzero;stroke:none"
             id="text1424"><tspan
               x="0 8.3039999"
               y="0"
               id="tspan1422">JS</tspan></text></g><g
           id="g1426"
           transform="matrix(0.75,0,0,-0.75,-18.75,258.75)"><path
             d="m 184.5,225 v 15.9 8.85 h 22.5 -15.9 3"
             style="fill:none;stroke:#000000;stroke-width:2;stroke-linecap:round;stroke-linejoin:round;stroke-miterlimit:10;stroke-dasharray:none;stroke-opacity:1"
             id="path1428" /></g><g
           id="g1430"
           transform="matrix(0.75,0,0,-0.75,-18.75,258.75)"><path
             d="m 203.7,249.75 h -9.6 m 0,-3.6 9.6,3.6 -9.6,3.6"
             style="fill:none;stroke:#000000;stroke-width:2;stroke-linecap:butt;stroke-linejoin:miter;stroke-miterlimit:10;stroke-dasharray:none;stroke-opacity:1"
             id="path1432" /></g><g
           id="g1434"
           transform="matrix(0.75,0,0,-0.75,123,11.25)"><text
             transform="translate(-69.048,5.776001)"
             style="font-variant:normal;font-weight:normal;font-size:16px;font-family:'Helvetica Neue';-inkscape-font-specification:HelveticaNeue;writing-mode:lr-tb;fill:#000000;fill-opacity:1;fill-rule:nonzero;stroke:none"
             id="text1438"><tspan
               x="0 10.368 19.552 28.736 33.776001 42.368 51.551998 60.144001 65.183998 73.776001 83.264 87.711998 98.671997 107.568 116.464 125.952 129.504"
               y="0"
               id="tspan1436">Aggregated Bundle</tspan></text></g><g
           id="g1440"
           transform="matrix(0.75,0,0,-0.75,-18.75,258.75)"><path
             d="m 81,121.5 h 39.1"
             style="fill:none;stroke:#000000;stroke-width:2;stroke-linecap:round;stroke-linejoin:round;stroke-miterlimit:10;stroke-dasharray:none;stroke-opacity:1"
             id="path1442" /></g><g
           id="g1444"
           transform="matrix(0.75,0,0,-0.75,-18.75,258.75)"><path
             d="m 129.7,121.5 h -9.6 m 0,-3.6 9.6,3.6 -9.6,3.6"
             style="fill:none;stroke:#000000;stroke-width:2;stroke-linecap:butt;stroke-linejoin:miter;stroke-miterlimit:10;stroke-dasharray:none;stroke-opacity:1"
             id="path1446" /></g><g
           id="g1448"
           transform="matrix(0,0.75,0.75,0,52.875,49.5)"><text
             transform="translate(-31,2.632812)"
             style="font-variant:normal;font-weight:normal;font-size:16px;font-family:Consolas;-inkscape-font-specification:Consolas;writing-mode:lr-tb;fill:#000000;fill-opacity:1;fill-rule:nonzero;stroke:none"
             id="text1452"><tspan
               x="0 8.7967997 17.593599 26.3904 35.187199 43.984001 52.7808"
               y="0"
               id="tspan1450">/static</tspan></text></g></g></g></g></svg>
