<?xml version="1.0" encoding="UTF-8" standalone="no"?>
<svg
   xmlns:dc="http://purl.org/dc/elements/1.1/"
   xmlns:cc="http://creativecommons.org/ns#"
   xmlns:rdf="http://www.w3.org/1999/02/22-rdf-syntax-ns#"
   xmlns:svg="http://www.w3.org/2000/svg"
   xmlns="http://www.w3.org/2000/svg"
   version="1.1"
   id="svg1895"
   xml:space="preserve"
   width="497"
   height="320"
   viewBox="0 0 497 320"><metadata
     id="metadata1901"><rdf:RDF><cc:Work
         rdf:about=""><dc:format>image/svg+xml</dc:format><dc:type
           rdf:resource="http://purl.org/dc/dcmitype/StillImage" /><dc:title></dc:title></cc:Work></rdf:RDF></metadata><defs
     id="defs1899"><clipPath
       clipPathUnits="userSpaceOnUse"
       id="clipPath1913"><path
         d="M 0,0 H 372.75 V 240 H 0 Z"
         id="path1911" /></clipPath></defs><g
     id="g1903"
     transform="matrix(1.3333333,0,0,-1.3333333,0,320)"><g
       id="g1905" /><g
       id="g1907"><g
         id="g1909"
         clip-path="url(#clipPath1913)"><path
           d="M 62.25,238.5 H 190.5 V 56.25 H 62.25 Z"
           style="fill:#ffffff;fill-opacity:1;fill-rule:nonzero;stroke:none"
           id="path1915" /><g
           id="g1917"
           transform="matrix(0.75,0,0,-0.75,-18.75,292.5)"><path
             d="M 108,72 H 279 V 315 H 108 Z"
             style="fill:none;stroke:#000000;stroke-width:1;stroke-linecap:round;stroke-linejoin:round;stroke-miterlimit:10;stroke-dasharray:none;stroke-opacity:1"
             id="path1919" /></g><path
           d="m 42,211.0187 c 0,4.476 -0.51435,5.0298 -4.27154,9.4595 l -0.03969,0.0458 C 33.91174,225 33.87246,225 29.99621,225 24.83488,225 1.5,225 1.5,225 V 177.75 H 42 Z"
           style="fill:#ffffff;fill-opacity:1;fill-rule:nonzero;stroke:none"
           id="path1921" /><g
           id="g1923"
           transform="matrix(0.75,0,0,-0.75,-18.75,292.5)"><path
             d="m 81,108.6417 c 0,-5.968 -0.6858,-6.7063 -5.69538,-12.6126 L 75.2517,95.96799 C 70.21566,90 70.16328,90 64.99494,90 58.11318,90 27,90 27,90 v 63 h 54 z m 0,-0.3074 c 0,-5.6606 -0.05292,-5.6606 -10.83672,-5.6606 v 0 c 0,-12.61196 0,-12.6737 -4.8519,-12.6737"
             style="fill:none;stroke:#000000;stroke-width:1;stroke-linecap:round;stroke-linejoin:round;stroke-miterlimit:10;stroke-dasharray:none;stroke-opacity:1"
             id="path1925" /></g><g
           id="g1927"
           transform="matrix(0.75,0,0,-0.75,21.75,201.375)"><text
             transform="translate(-21.784,5.776001)"
             style="font-variant:normal;font-weight:normal;font-size:16px;font-family:'Helvetica Neue';-inkscape-font-specification:HelveticaNeue;writing-mode:lr-tb;fill:#000000;fill-opacity:1;fill-rule:nonzero;stroke:none"
             id="text1931"><tspan
               x="0 11.552 20.736 34.672001"
               y="0"
               id="tspan1929">HTML</tspan></text></g><path
           d="m 123,211.0187 c 0,4.476 -0.5144,5.0298 -4.2715,9.4595 l -0.0397,0.0458 C 114.9117,225 114.8725,225 110.9962,225 105.8349,225 82.5,225 82.5,225 V 177.75 H 123 Z"
           style="fill:#ffffff;fill-opacity:1;fill-rule:nonzero;stroke:none"
           id="path1933" /><g
           id="g1935"
           transform="matrix(0.75,0,0,-0.75,-18.75,292.5)"><path
             d="m 189,108.6417 c 0,-5.968 -0.6858,-6.7063 -5.6954,-12.6126 l -0.0529,-0.06111 C 178.2157,90 178.1633,90 172.9949,90 166.1132,90 135,90 135,90 v 63 h 54 z m 0,-0.3074 c 0,-5.6606 -0.0529,-5.6606 -10.8367,-5.6606 v 0 c 0,-12.61196 0,-12.6737 -4.8519,-12.6737"
             style="fill:none;stroke:#000000;stroke-width:6;stroke-linecap:round;stroke-linejoin:round;stroke-miterlimit:10;stroke-dasharray:none;stroke-opacity:1"
             id="path1937" /></g><g
           id="g1939"
           transform="matrix(0.75,0,0,-0.75,-18.75,292.5)"><path
             d="m 189,108.6417 c 0,-5.968 -0.6858,-6.7063 -5.6954,-12.6126 l -0.0529,-0.06111 C 178.2157,90 178.1633,90 172.9949,90 166.1132,90 135,90 135,90 v 63 h 54 z m 0,-0.3074 c 0,-5.6606 -0.0529,-5.6606 -10.8367,-5.6606 v 0 c 0,-12.61196 0,-12.6737 -4.8519,-12.6737"
             style="fill:none;stroke:#ffffff;stroke-width:3;stroke-linecap:round;stroke-linejoin:round;stroke-miterlimit:10;stroke-dasharray:none;stroke-opacity:1"
             id="path1941" /></g><g
           id="g1943"
           transform="matrix(0.75,0,0,-0.75,102.75,201.375)"><text
             transform="translate(-17.184,-3.447998)"
             style="font-variant:normal;font-weight:normal;font-size:16px;font-family:'Helvetica Neue';-inkscape-font-specification:HelveticaNeue;writing-mode:lr-tb;fill:#000000;fill-opacity:1;fill-rule:nonzero;stroke:none"
             id="text1947"><tspan
               x="0 10.96 20.143999 29.327999 34.368"
               y="0"
               id="tspan1945">Root </tspan></text></g><g
           id="g1949"
           transform="matrix(0.75,0,0,-0.75,102.75,201.375)"><text
             transform="translate(-9.336,15)"
             style="font-variant:normal;font-weight:normal;font-size:16px;font-family:'Helvetica Neue';-inkscape-font-specification:HelveticaNeue;writing-mode:lr-tb;fill:#000000;fill-opacity:1;fill-rule:nonzero;stroke:none"
             id="text1953"><tspan
               x="0 8.3039999"
               y="0"
               id="tspan1951">JS</tspan></text></g><path
           d="m 150,157.0187 c 0,4.476 -0.5144,5.0298 -4.2715,9.4595 l -0.0397,0.0458 C 141.9117,171 141.8725,171 137.9962,171 132.8349,171 109.5,171 109.5,171 V 123.75 H 150 Z"
           style="fill:#ffffff;fill-opacity:1;fill-rule:nonzero;stroke:none"
           id="path1955" /><g
           id="g1957"
           transform="matrix(0.75,0,0,-0.75,-18.75,292.5)"><path
             d="m 225,180.6417 c 0,-5.968 -0.6858,-6.7063 -5.6954,-12.6126 l -0.0529,-0.0611 C 214.2157,162 214.1633,162 208.9949,162 202.1132,162 171,162 171,162 v 63 h 54 z m 0,-0.3074 c 0,-5.6606 -0.0529,-5.6606 -10.8367,-5.6606 v 0 c 0,-12.612 0,-12.6737 -4.8519,-12.6737"
             style="fill:none;stroke:#000000;stroke-width:1;stroke-linecap:round;stroke-linejoin:round;stroke-miterlimit:10;stroke-dasharray:none;stroke-opacity:1"
             id="path1959" /></g><g
           id="g1961"
           transform="matrix(0.75,0,0,-0.75,129.75,147.375)"><text
             transform="translate(-9.336,5.776001)"
             style="font-variant:normal;font-weight:normal;font-size:16px;font-family:'Helvetica Neue';-inkscape-font-specification:HelveticaNeue;writing-mode:lr-tb;fill:#000000;fill-opacity:1;fill-rule:nonzero;stroke:none"
             id="text1965"><tspan
               x="0 8.3039999"
               y="0"
               id="tspan1963">JS</tspan></text></g><g
           id="g1967"
           transform="matrix(0.75,0,0,-0.75,-18.75,292.5)"><path
             d="m 148.5,153 v 15.9 8.85 h 22.5 -15.9 3"
             style="fill:none;stroke:#000000;stroke-width:2;stroke-linecap:round;stroke-linejoin:round;stroke-miterlimit:10;stroke-dasharray:none;stroke-opacity:1"
             id="path1969" /></g><g
           id="g1971"
           transform="matrix(0.75,0,0,-0.75,-18.75,292.5)"><path
             d="m 167.7,177.75 h -9.6 m 0,-3.6 9.6,3.6 -9.6,3.6"
             style="fill:none;stroke:#000000;stroke-width:2;stroke-linecap:butt;stroke-linejoin:miter;stroke-miterlimit:10;stroke-dasharray:none;stroke-opacity:1"
             id="path1973" /></g><path
           d="m 177,103.0187 c 0,4.476 -0.5143,5.0298 -4.2715,9.4595 l -0.0397,0.0458 C 168.9117,117 168.8725,117 164.9962,117 159.8349,117 136.5,117 136.5,117 V 69.75 H 177 Z"
           style="fill:#ffffff;fill-opacity:1;fill-rule:nonzero;stroke:none"
           id="path1975" /><g
           id="g1977"
           transform="matrix(0.75,0,0,-0.75,-18.75,292.5)"><path
             d="m 261,252.6417 c 0,-5.968 -0.6858,-6.7063 -5.6954,-12.6126 l -0.0529,-0.0611 C 250.2157,234 250.1633,234 244.9949,234 238.1132,234 207,234 207,234 v 63 h 54 z m 0,-0.3074 c 0,-5.6606 -0.0529,-5.6606 -10.8367,-5.6606 v 0 c 0,-12.612 0,-12.6737 -4.8519,-12.6737"
             style="fill:none;stroke:#000000;stroke-width:1;stroke-linecap:round;stroke-linejoin:round;stroke-miterlimit:10;stroke-dasharray:none;stroke-opacity:1"
             id="path1979" /></g><g
           id="g1981"
           transform="matrix(0.75,0,0,-0.75,156.75,93.375)"><text
             transform="translate(-9.336,5.776001)"
             style="font-variant:normal;font-weight:normal;font-size:16px;font-family:'Helvetica Neue';-inkscape-font-specification:HelveticaNeue;writing-mode:lr-tb;fill:#000000;fill-opacity:1;fill-rule:nonzero;stroke:none"
             id="text1985"><tspan
               x="0 8.3039999"
               y="0"
               id="tspan1983">JS</tspan></text></g><g
           id="g1987"
           transform="matrix(0.75,0,0,-0.75,-18.75,292.5)"><path
             d="m 184.5,225 v 15.9 8.85 h 22.5 -15.9 3"
             style="fill:none;stroke:#000000;stroke-width:2;stroke-linecap:round;stroke-linejoin:round;stroke-miterlimit:10;stroke-dasharray:none;stroke-opacity:1"
             id="path1989" /></g><g
           id="g1991"
           transform="matrix(0.75,0,0,-0.75,-18.75,292.5)"><path
             d="m 203.7,249.75 h -9.6 m 0,-3.6 9.6,3.6 -9.6,3.6"
             style="fill:none;stroke:#000000;stroke-width:2;stroke-linecap:butt;stroke-linejoin:miter;stroke-miterlimit:10;stroke-dasharray:none;stroke-opacity:1"
             id="path1993" /></g><g
           id="g1995"
           transform="matrix(0.75,0,0,-0.75,123,45)"><text
             transform="translate(-64.016,5.776001)"
             style="font-variant:normal;font-weight:normal;font-size:16px;font-family:'Helvetica Neue';-inkscape-font-specification:HelveticaNeue;writing-mode:lr-tb;fill:#000000;fill-opacity:1;fill-rule:nonzero;stroke:none"
             id="text1999"><tspan
               x="0 7.7119999 13.04 21.632 30.528 38.528 48.015999 51.568001 55.119999 63.712002 73.199997 77.648003 88.608002 97.503998 106.4 115.888 119.44"
               y="0"
               id="tspan1997">Transpiled Bundle</tspan></text></g><g
           id="g2001"
           transform="matrix(0.75,0,0,-0.75,-18.75,292.5)"><path
             d="m 81,121.5 h 38.1"
             style="fill:none;stroke:#000000;stroke-width:2;stroke-linecap:round;stroke-linejoin:round;stroke-miterlimit:10;stroke-dasharray:none;stroke-opacity:1"
             id="path2003" /></g><g
           id="g2005"
           transform="matrix(0.75,0,0,-0.75,-18.75,292.5)"><path
             d="m 128.7,121.5 h -9.6 m 0,-3.6 9.6,3.6 -9.6,3.6"
             style="fill:none;stroke:#000000;stroke-width:2;stroke-linecap:butt;stroke-linejoin:miter;stroke-miterlimit:10;stroke-dasharray:none;stroke-opacity:1"
             id="path2007" /></g><path
           d="M 231,238.5 H 359.25 V 56.25 H 231 Z"
           style="fill:#ffffff;fill-opacity:1;fill-rule:nonzero;stroke:none"
           id="path2009" /><g
           id="g2011"
           transform="matrix(0.75,0,0,-0.75,-18.75,292.5)"><path
             d="M 333,72 H 504 V 315 H 333 Z"
             style="fill:none;stroke:#000000;stroke-width:2;stroke-linecap:round;stroke-linejoin:round;stroke-miterlimit:10;stroke-dasharray:8, 8;stroke-dashoffset:0;stroke-opacity:1"
             id="path2013" /></g><path
           d="m 291.75,211.0187 c 0,4.476 -0.5143,5.0298 -4.2715,9.4595 l -0.0397,0.0458 C 283.6617,225 283.6225,225 279.7462,225 c -5.1613,0 -28.4962,0 -28.4962,0 v -47.25 h 40.5 z"
           style="fill:#ffffff;fill-opacity:1;fill-rule:nonzero;stroke:none"
           id="path2015" /><g
           id="g2017"
           transform="matrix(0.75,0,0,-0.75,-18.75,292.5)"><path
             d="m 414,108.6417 c 0,-5.968 -0.6858,-6.7063 -5.6954,-12.6126 l -0.0529,-0.06111 C 403.2157,90 403.1633,90 397.9949,90 391.1132,90 360,90 360,90 v 63 h 54 z m 0,-0.3074 c 0,-5.6606 -0.0529,-5.6606 -10.8367,-5.6606 v 0 c 0,-12.61196 0,-12.6737 -4.8519,-12.6737"
             style="fill:none;stroke:#000000;stroke-width:4;stroke-linecap:round;stroke-linejoin:round;stroke-miterlimit:10;stroke-dasharray:none;stroke-opacity:1"
             id="path2019" /></g><g
           id="g2021"
           transform="matrix(0.75,0,0,-0.75,271.5,201.375)"><text
             transform="translate(-17.184,-3.447998)"
             style="font-variant:normal;font-weight:normal;font-size:16px;font-family:'Helvetica Neue';-inkscape-font-specification:HelveticaNeue;writing-mode:lr-tb;fill:#000000;fill-opacity:1;fill-rule:nonzero;stroke:none"
             id="text2025"><tspan
               x="0 10.96 20.143999 29.327999 34.368"
               y="0"
               id="tspan2023">Root </tspan></text></g><g
           id="g2027"
           transform="matrix(0.75,0,0,-0.75,271.5,201.375)"><text
             transform="translate(-9.776,15)"
             style="font-variant:normal;font-weight:normal;font-size:16px;font-family:'Helvetica Neue';-inkscape-font-specification:HelveticaNeue;writing-mode:lr-tb;fill:#000000;fill-opacity:1;fill-rule:nonzero;stroke:none"
             id="text2031"><tspan
               x="0 9.184"
               y="0"
               id="tspan2029">TS</tspan></text></g><path
           d="m 318.75,157.0187 c 0,4.476 -0.5143,5.0298 -4.2715,9.4595 l -0.0397,0.0458 C 310.6617,171 310.6225,171 306.7462,171 c -5.1613,0 -28.4962,0 -28.4962,0 v -47.25 h 40.5 z"
           style="fill:#ffffff;fill-opacity:1;fill-rule:nonzero;stroke:none"
           id="path2033" /><g
           id="g2035"
           transform="matrix(0.75,0,0,-0.75,-18.75,292.5)"><path
             d="m 450,180.6417 c 0,-5.968 -0.6858,-6.7063 -5.6954,-12.6126 l -0.0529,-0.0611 C 439.2157,162 439.1633,162 433.9949,162 427.1132,162 396,162 396,162 v 63 h 54 z m 0,-0.3074 c 0,-5.6606 -0.0529,-5.6606 -10.8367,-5.6606 v 0 c 0,-12.612 0,-12.6737 -4.8519,-12.6737"
             style="fill:none;stroke:#000000;stroke-width:1;stroke-linecap:round;stroke-linejoin:round;stroke-miterlimit:10;stroke-dasharray:none;stroke-opacity:1"
             id="path2037" /></g><g
           id="g2039"
           transform="matrix(0.75,0,0,-0.75,298.5,147.375)"><text
             transform="translate(-9.776,5.776001)"
             style="font-variant:normal;font-weight:normal;font-size:16px;font-family:'Helvetica Neue';-inkscape-font-specification:HelveticaNeue;writing-mode:lr-tb;fill:#000000;fill-opacity:1;fill-rule:nonzero;stroke:none"
             id="text2043"><tspan
               x="0 9.184"
               y="0"
               id="tspan2041">TS</tspan></text></g><g
           id="g2045"
           transform="matrix(0.75,0,0,-0.75,-18.75,292.5)"><path
             d="m 373.5,153 v 15.9 8.85 h 22.5 -15.9 3"
             style="fill:none;stroke:#000000;stroke-width:2;stroke-linecap:round;stroke-linejoin:round;stroke-miterlimit:10;stroke-dasharray:none;stroke-opacity:1"
             id="path2047" /></g><g
           id="g2049"
           transform="matrix(0.75,0,0,-0.75,-18.75,292.5)"><path
             d="m 392.7,177.75 h -9.6 m 0,-3.6 9.6,3.6 -9.6,3.6"
             style="fill:none;stroke:#000000;stroke-width:2;stroke-linecap:butt;stroke-linejoin:miter;stroke-miterlimit:10;stroke-dasharray:none;stroke-opacity:1"
             id="path2051" /></g><path
           d="m 345.75,103.0187 c 0,4.476 -0.5143,5.0298 -4.2715,9.4595 l -0.0397,0.0458 C 337.6617,117 337.6225,117 333.7462,117 c -5.1613,0 -28.4962,0 -28.4962,0 V 69.75 h 40.5 z"
           style="fill:#ffffff;fill-opacity:1;fill-rule:nonzero;stroke:none"
           id="path2053" /><g
           id="g2055"
           transform="matrix(0.75,0,0,-0.75,-18.75,292.5)"><path
             d="m 486,252.6417 c 0,-5.968 -0.6858,-6.7063 -5.6954,-12.6126 l -0.0529,-0.0611 C 475.2157,234 475.1633,234 469.9949,234 463.1132,234 432,234 432,234 v 63 h 54 z m 0,-0.3074 c 0,-5.6606 -0.0529,-5.6606 -10.8367,-5.6606 v 0 c 0,-12.612 0,-12.6737 -4.8519,-12.6737"
             style="fill:none;stroke:#000000;stroke-width:1;stroke-linecap:round;stroke-linejoin:round;stroke-miterlimit:10;stroke-dasharray:none;stroke-opacity:1"
             id="path2057" /></g><g
           id="g2059"
           transform="matrix(0.75,0,0,-0.75,325.5,93.375)"><text
             transform="translate(-9.776,5.776001)"
             style="font-variant:normal;font-weight:normal;font-size:16px;font-family:'Helvetica Neue';-inkscape-font-specification:HelveticaNeue;writing-mode:lr-tb;fill:#000000;fill-opacity:1;fill-rule:nonzero;stroke:none"
             id="text2063"><tspan
               x="0 9.184"
               y="0"
               id="tspan2061">TS</tspan></text></g><g
           id="g2065"
           transform="matrix(0.75,0,0,-0.75,-18.75,292.5)"><path
             d="m 409.5,225 v 15.9 8.85 h 22.5 -15.9 3"
             style="fill:none;stroke:#000000;stroke-width:2;stroke-linecap:round;stroke-linejoin:round;stroke-miterlimit:10;stroke-dasharray:none;stroke-opacity:1"
             id="path2067" /></g><g
           id="g2069"
           transform="matrix(0.75,0,0,-0.75,-18.75,292.5)"><path
             d="m 428.7,249.75 h -9.6 m 0,-3.6 9.6,3.6 -9.6,3.6"
             style="fill:none;stroke:#000000;stroke-width:2;stroke-linecap:butt;stroke-linejoin:miter;stroke-miterlimit:10;stroke-dasharray:none;stroke-opacity:1"
             id="path2071" /></g><path
           d="m 237.75,169.3125 v -30.375 H 199.5 V 123.75 l -15.75,30.375 15.75,30.375 v -15.1875 z"
           style="fill:#ffffff;fill-opacity:1;fill-rule:nonzero;stroke:none"
           id="path2073" /><g
           id="g2075"
           transform="matrix(0.75,0,0,-0.75,-18.75,292.5)"><path
             d="m 342,164.25 v 40.5 H 291 V 225 L 270,184.5 291,144 v 20.25 z"
             style="fill:none;stroke:#000000;stroke-width:2;stroke-linecap:round;stroke-linejoin:round;stroke-miterlimit:10;stroke-dasharray:none;stroke-opacity:1"
             id="path2077" /></g><g
           id="g2079"
           transform="matrix(0.75,0,0,-0.75,295.125,24.75)"><text
             transform="translate(-96.008,-12.672)"
             style="font-variant:normal;font-weight:normal;font-size:16px;font-family:'Helvetica Neue';-inkscape-font-specification:HelveticaNeue;writing-mode:lr-tb;fill:#000000;fill-opacity:1;fill-rule:nonzero;stroke:none"
             id="text2083"><tspan
               x="0 7.7119999 13.04 21.632 30.528 38.528 48.015999 51.568001 55.119999 63.712002 73.199997 77.648003 89.776001 93.328003 98.367996 107.264 111.712 119.12 127.12 136.608 145.2 155.56799 164.16 169.48801 173.03999 182.528 187.56799 192.01601"
               y="0"
               id="tspan2081">Transpiled with TypeScript, </tspan></text></g><g
           id="g2085"
           transform="matrix(0.75,0,0,-0.75,295.125,24.75)"><text
             transform="translate(-66.392,5.776001)"
             style="font-variant:normal;font-weight:normal;font-size:16px;font-family:'Helvetica Neue';-inkscape-font-specification:HelveticaNeue;writing-mode:lr-tb;fill:#000000;fill-opacity:1;fill-rule:nonzero;stroke:none"
             id="text2089"><tspan
               x="0 9.4879999 13.04 21.936001 29.936001 34.383999 48.032001 56.624001 64.624001 74.112 82.704002 87.152 98.112 106.704 116.192 124.784 128.336"
               y="0"
               id="tspan2087">plus maybe Babel,</tspan></text></g><g
           id="g2091"
           transform="matrix(0.75,0,0,-0.75,295.125,24.75)"><text
             transform="translate(-77.056,24.224)"
             style="font-variant:normal;font-weight:normal;font-size:16px;font-family:'Helvetica Neue';-inkscape-font-specification:HelveticaNeue;writing-mode:lr-tb;fill:#000000;fill-opacity:1;fill-rule:nonzero;stroke:none"
             id="text2095"><tspan
               x="0 9.4879999 13.04 21.936001 29.936001 34.383999 48.032001 56.624001 64.624001 74.112 82.704002 87.152 101.056 109.648 119.136 128.62399 137.216 145.808"
               y="0"
               id="tspan2093">plus maybe Webpack</tspan></text></g><g
           id="g2097"
           transform="matrix(0.75,0,0,-0.75,-18.75,292.5)"><path
             d="M 315,357 H 303.8 300 V 191.2"
             style="fill:none;stroke:#000000;stroke-width:2;stroke-linecap:round;stroke-linejoin:round;stroke-miterlimit:10;stroke-dasharray:none;stroke-opacity:1"
             id="path2099" /></g><path
           d="m 208.1592,149.8908 c -1.0544,-1.0544 -2.764,-1.0544 -3.8184,0 -1.0544,1.0544 -1.0544,2.764 0,3.8184 1.0544,1.0544 2.764,1.0544 3.8184,0 1.0544,-1.0544 1.0544,-2.764 0,-3.8184"
           style="fill:#000000;fill-opacity:1;fill-rule:nonzero;stroke:none"
           id="path2101" /><g
           id="g2103"
           transform="matrix(0.75,0,0,-0.75,-18.75,292.5)"><path
             d="m 302.5456,190.1456 c -1.4059,1.4059 -3.6853,1.4059 -5.0912,0 -1.4059,-1.4059 -1.4059,-3.6853 0,-5.0912 1.4059,-1.4059 3.6853,-1.4059 5.0912,0 1.4059,1.4059 1.4059,3.6853 0,5.0912"
             style="fill:none;stroke:#000000;stroke-width:2;stroke-linecap:butt;stroke-linejoin:miter;stroke-miterlimit:10;stroke-dasharray:none;stroke-opacity:1"
             id="path2105" /></g><g
           id="g2107"
           transform="matrix(0,0.75,0.75,0,52.875,83.25)"><text
             transform="translate(-31,2.632812)"
             style="font-variant:normal;font-weight:normal;font-size:16px;font-family:Consolas;-inkscape-font-specification:Consolas;writing-mode:lr-tb;fill:#000000;fill-opacity:1;fill-rule:nonzero;stroke:none"
             id="text2111"><tspan
               x="0 8.7967997 17.593599 26.3904 35.187199 43.984001 52.7808"
               y="0"
               id="tspan2109">/static</tspan></text></g><g
           id="g2113"
           transform="matrix(0,0.75,0.75,0,221.625,83.25)"><text
             transform="translate(-31,2.632812)"
             style="font-variant:normal;font-weight:normal;font-size:16px;font-family:Consolas;-inkscape-font-specification:Consolas;writing-mode:lr-tb;fill:#000000;fill-opacity:1;fill-rule:nonzero;stroke:none"
             id="text2117"><tspan
               x="0 8.7967997 17.593599"
               y="0"
               id="tspan2115">/js</tspan></text></g></g></g></g></svg>
