<?xml version="1.0" standalone="no"?>
<!DOCTYPE svg PUBLIC "-//W3C//DTD SVG 20010904//EN"
 "http://www.w3.org/TR/2001/REC-SVG-20010904/DTD/svg10.dtd">
<svg version="1.0" xmlns="http://www.w3.org/2000/svg"
 width="560.000000pt" height="560.000000pt" viewBox="0 0 560.000000 560.000000"
 preserveAspectRatio="xMidYMid meet">
<g transform="translate(0.000000,560.000000) scale(0.100000,-0.100000)"
fill="#2e6899" stroke="none">
<path d="M1371 5332 c-19 -9 -48 -34 -65 -55 l-31 -39 -3 -1406 c-1 -774 0
-1422 3 -1440 7 -41 63 -104 113 -128 35 -18 88 -19 1100 -22 590 -1 1070 1
1078 6 13 7 2 30 -68 133 -47 68 -94 129 -105 134 -14 7 -317 10 -931 10
l-910 -2 -4 51 c-3 28 -4 602 -4 1276 l1 1225 766 3 766 2 79 88 c43 48 96
104 117 125 20 21 37 43 37 48 0 5 -379 9 -952 9 -888 0 -955 -1 -987 -18z"/>
<path d="M3412 5312 c-18 -21 -65 -73 -104 -117 -39 -44 -111 -123 -159 -175
-47 -52 -109 -120 -135 -152 -182 -211 -226 -256 -257 -262 -117 -23 -190
-173 -126 -259 l22 -31 -59 -53 c-122 -110 -325 -253 -472 -332 -92 -50 -89
-44 -117 -207 -37 -210 -154 -572 -227 -700 -83 -144 -89 -160 -83 -187 10
-39 58 -78 103 -84 37 -5 44 -2 89 40 86 80 254 181 433 260 69 30 343 121
432 143 l66 16 38 97 c44 112 120 268 175 359 21 35 39 66 39 68 0 3 18 29 40
59 l39 53 38 -19 c75 -38 153 -16 210 59 22 29 33 55 33 77 0 36 33 83 129
185 61 64 247 273 524 588 l197 225 0 100 c0 93 -1 99 -19 94 -26 -6 -36 21
-16 43 22 25 19 45 -16 85 -51 58 -74 65 -203 65 l-115 0 -123 -137 c-67 -76
-125 -140 -128 -143 -4 -3 -33 -36 -65 -75 -73 -87 -270 -309 -349 -392 -49
-52 -62 -61 -77 -52 -11 5 -19 15 -19 20 0 6 39 54 86 108 47 53 136 152 196
221 61 69 141 157 177 196 68 73 186 206 210 237 12 16 10 17 -36 17 l-49 0
-99 -111 c-55 -61 -124 -139 -154 -173 -29 -33 -79 -88 -110 -121 -31 -33 -98
-107 -148 -165 -50 -58 -102 -116 -116 -128 -24 -23 -26 -23 -51 -7 -14 10
-26 23 -26 30 0 12 64 86 410 475 86 96 159 181 164 188 5 9 -12 12 -76 11
-82 -1 -83 -1 -116 -37z m803 -176 c-2 -14 -9 -33 -17 -44 -15 -21 -269 -309
-368 -417 -36 -39 -109 -121 -163 -182 -54 -61 -109 -119 -122 -129 -13 -10
-21 -22 -18 -27 4 -6 -6 -7 -23 -3 -26 6 -27 5 -12 -7 17 -13 17 -15 0 -31
-23 -20 -42 -21 -42 -2 0 13 111 146 219 261 25 28 77 86 115 130 39 44 93
105 122 135 29 30 90 98 135 150 70 81 170 190 175 190 1 0 0 -11 -1 -24z
m-1178 -595 c100 -76 267 -246 257 -262 -4 -8 -3 -9 4 -5 11 7 92 -87 92 -107
0 -6 -35 22 -77 64 -128 124 -211 198 -292 257 -41 32 -82 62 -90 68 -13 10
-13 14 -2 28 7 9 17 16 22 16 4 0 43 -27 86 -59z m-67 -121 c36 -29 66 -56 68
-60 8 -21 -21 -17 -74 10 -33 16 -72 32 -89 35 -27 6 -24 1 35 -52 117 -104
231 -223 224 -235 -4 -6 -3 -8 3 -5 9 5 29 -16 86 -91 29 -37 -53 25 -125 96
-101 97 -244 221 -315 270 -71 50 -68 91 5 76 20 -4 33 0 46 15 17 18 21 19
45 7 14 -8 55 -38 91 -66z m-221 -203 c8 -11 3 -22 -27 -48 -128 -118 -357
-288 -469 -350 -64 -34 -72 -44 -78 -91 -12 -90 -32 -167 -80 -310 -71 -211
-66 -220 23 -43 47 93 103 228 132 318 6 20 20 42 31 48 80 42 364 282 453
382 l52 57 42 -31 c23 -17 42 -35 42 -40 0 -11 -79 -103 -232 -273 -54 -59
-98 -113 -98 -120 0 -7 11 -23 24 -35 l24 -22 22 23 c12 13 61 68 108 122 136
155 155 175 141 146 -25 -52 -141 -211 -198 -271 -47 -49 -60 -71 -65 -103
-13 -87 -75 -146 -153 -146 -41 0 -44 -3 -182 -152 -77 -83 -139 -154 -136
-156 2 -2 16 5 32 15 48 34 225 120 293 143 36 12 109 34 164 49 l99 26 26 70
c55 143 186 366 275 470 61 71 49 30 -22 -76 -84 -124 -204 -355 -250 -479 -9
-22 -22 -29 -108 -49 -193 -46 -424 -150 -598 -268 -43 -30 -81 -51 -84 -48
-3 3 8 20 25 38 45 48 344 384 376 423 26 31 34 34 82 34 68 0 110 31 120 90
17 103 -82 172 -179 123 -39 -20 -59 -74 -50 -134 5 -32 -3 -43 -173 -235 -98
-110 -193 -219 -212 -242 -18 -23 -37 -42 -42 -42 -4 0 14 46 40 103 48 102
86 199 114 292 19 62 72 285 82 343 6 40 12 47 76 88 38 24 71 44 74 44 20 0
316 217 396 290 49 45 52 46 68 27z"/>
<path d="M4219 4753 c-25 -27 -71 -79 -104 -118 -32 -38 -71 -83 -87 -99 l-28
-30 0 -688 c0 -378 3 -688 8 -688 4 0 41 29 82 65 41 35 98 79 127 97 l52 33
1 210 c5 1045 5 1265 -1 1265 -3 0 -26 -21 -50 -47z"/>
<path d="M4375 3327 c-144 -76 -308 -214 -474 -401 -87 -97 -130 -152 -250
-315 l-17 -25 -74 78 c-111 117 -149 130 -215 72 l-39 -33 56 -59 c31 -32 85
-99 121 -149 108 -150 151 -204 162 -205 6 0 52 67 103 149 166 267 424 632
465 658 6 4 24 24 39 44 15 20 70 79 123 132 53 54 92 97 88 97 -4 0 -44 -20
-88 -43z"/>
<path d="M4201 2998 c-34 -40 -93 -119 -131 -175 l-70 -102 0 -101 0 -100 -64
2 c-35 2 -66 1 -68 -2 -22 -30 -90 -139 -120 -194 -29 -53 -35 -72 -26 -78 7
-5 101 -7 208 -5 175 3 199 5 235 24 105 55 112 88 109 486 -1 169 -4 310 -7
313 -3 3 -33 -27 -66 -68z"/>
<path d="M1423.0 1100.0H1636.0L1465.0 1332.0C1553.0 1376.0 1599.0 1461.0 1599.0 1559.0C1599.0 1698.0 1505.0 1800.0 1337.0 1800.0H963.0V1100.0H1143.0V1302.0H1283.0ZM1143.0 1643.0H1301.0C1380.0 1643.0 1415.0 1616.0 1415.0 1555.0C1415.0 1503.0 1388.0 1458.0 1299.0 1458.0H1143.0Z"/>
<path d="M1878.0 1643.0H2266.0V1800.0H1700.0V1100.0H2268.0V1257.0H1878.0V1378.0H2233.0V1531.0H1878.0Z"/>
<path d="M3072.0 1800.0H2878.0L2709.0 1347.0L2697.0 1305.0L2684.0 1347.0L2516.0 1800.0H2319.0L2614.0 1100.0H2776.0Z"/>
<path d="M3315.0 1800.0H3135.0V1100.0H3315.0Z"/>
<path d="M3610.0 1602.0C3610.0 1632.0 3640.0 1659.0 3704.0 1659.0C3758.0 1659.0 3831.0 1641.0 3895.0 1610.0L3960.0 1750.0C3891.0 1787.0 3815.0 1812.0 3720.0 1812.0C3541.0 1812.0 3428.0 1723.0 3430.0 1585.0C3435.0 1334.0 3813.0 1407.0 3813.0 1300.0C3813.0 1256.0 3750.0 1244.0 3702.0 1244.0C3621.0 1244.0 3537.0 1279.0 3473.0 1315.0L3403.0 1173.0C3470.0 1131.0 3577.0 1087.0 3704.0 1087.0C3879.0 1087.0 3998.0 1171.0 3998.0 1316.0C3998.0 1579.0 3610.0 1492.0 3610.0 1602.0Z"/>
<path d="M4257.0 1643.0H4645.0V1800.0H4079.0V1100.0H4647.0V1257.0H4257.0V1378.0H4612.0V1531.0H4257.0Z"/>
<path d="M1591.0 772.0C1591.0 802.0 1621.0 829.0 1685.0 829.0C1739.0 829.0 1812.0 811.0 1876.0 780.0L1941.0 920.0C1872.0 957.0 1796.0 982.0 1701.0 982.0C1522.0 982.0 1409.0 893.0 1411.0 755.0C1416.0 504.0 1794.0 577.0 1794.0 470.0C1794.0 426.0 1731.0 414.0 1683.0 414.0C1602.0 414.0 1518.0 449.0 1454.0 485.0L1384.0 343.0C1451.0 301.0 1558.0 257.0 1685.0 257.0C1860.0 257.0 1979.0 341.0 1979.0 486.0C1979.0 749.0 1591.0 662.0 1591.0 772.0Z"/>
<path d="M2519.0 270.0H2745.0L2443.0 617.0L2426.0 630.0L2443.0 642.0L2728.0 970.0H2518.0L2292.0 699.0H2240.0V970.0H2060.0V270.0H2240.0V541.0H2288.0Z"/>
<path d="M2984.0 970.0H2804.0V270.0H2984.0Z"/>
<path d="M3617.0 427.0H3284.0V970.0H3104.0V270.0H3617.0Z"/>
<path d="M4216.0 427.0H3883.0V970.0H3703.0V270.0H4216.0Z"/>
</g>
</svg>