<?xml version="1.0" encoding="UTF-8" standalone="no"?>
<svg
   xmlns:dc="http://purl.org/dc/elements/1.1/"
   xmlns:cc="http://creativecommons.org/ns#"
   xmlns:rdf="http://www.w3.org/1999/02/22-rdf-syntax-ns#"
   xmlns:svg="http://www.w3.org/2000/svg"
   xmlns="http://www.w3.org/2000/svg"
   xmlns:sodipodi="http://sodipodi.sourceforge.net/DTD/sodipodi-0.dtd"
   xmlns:inkscape="http://www.inkscape.org/namespaces/inkscape"
   version="1.1"
   id="svg833"
   xml:space="preserve"
   width="432"
   height="468"
   viewBox="0 0 432 468"
   sodipodi:docname="logo.svg"
   inkscape:version="1.0.2 (e86c8708, 2021-01-15)"><metadata
     id="metadata839"><rdf:RDF><cc:Work
         rdf:about=""><dc:format>image/svg+xml</dc:format><dc:type
           rdf:resource="http://purl.org/dc/dcmitype/StillImage" /><dc:title /></cc:Work></rdf:RDF></metadata><defs
     id="defs837"><clipPath
       clipPathUnits="userSpaceOnUse"
       id="clipPath851"><path
         d="M 0,0 H 1134 V 829.5 H 0 Z"
         id="path849" /></clipPath></defs><sodipodi:namedview
     pagecolor="#ffffff"
     bordercolor="#666666"
     borderopacity="1"
     objecttolerance="10"
     gridtolerance="10"
     guidetolerance="10"
     inkscape:pageopacity="0"
     inkscape:pageshadow="2"
     inkscape:window-width="1600"
     inkscape:window-height="926"
     id="namedview835"
     showgrid="false"
     inkscape:zoom="0.47089947"
     inkscape:cx="414.05231"
     inkscape:cy="330.43761"
     inkscape:window-x="15"
     inkscape:window-y="68"
     inkscape:window-maximized="0"
     inkscape:current-layer="text863"
     inkscape:document-rotation="0" /><g
     id="g841"
     inkscape:groupmode="layer"
     inkscape:label="logo"
     transform="matrix(1.3333333,0,0,-1.3333333,-23.359546,1084.1573)"><g
       id="g843" /><g
       id="g845"
       transform="translate(-124.23034,105.11798)"><g
         id="g847"
         clip-path="url(#clipPath851)"><path
           d="M 189,600 H 418.5 V 459.0938 H 189 Z"
           style="display:inline;fill:#73fcd6;fill-opacity:1;fill-rule:nonzero;stroke:none"
           id="path853" /><g
           id="g855"
           transform="matrix(1.5,0,0,-1.5,0,829.5)"><path
             d="m 126,153 h 153 v 93.9375 H 126 Z"
             style="fill:none;stroke:#000000;stroke-width:0.5;stroke-linecap:round;stroke-linejoin:round;stroke-miterlimit:10;stroke-dasharray:none;stroke-opacity:1"
             id="path857" /></g><g
           id="g859"
           transform="matrix(1.5,0,0,-1.5,303.75,529.5469)"><g
             aria-label="text"
             transform="translate(-67.07617,16.04395)"
             id="text863"
             style="font-variant:normal;font-weight:bold;font-size:61px;font-family:Consolas;-inkscape-font-specification:Consolas-Bold;writing-mode:lr-tb;fill:#000000;fill-opacity:1;fill-rule:nonzero;stroke:none"><path
               d="m 29.100098,-0.29785156 q -1.965821,0.44677734 -3.961426,0.71484375 -1.995606,0.2680664 -3.782715,0.2680664 -2.978516,0 -5.152832,-0.62548828 Q 14.058594,-0.56591797 12.628906,-1.8466797 11.229004,-3.1274414 10.543945,-5.0932617 9.8886719,-7.0888672 9.8886719,-9.8291016 V -24.602539 H 1.7573242 v -5.65918 h 8.1313477 v -7.74414 l 7.4462891,-1.936036 v 9.680176 h 11.765137 v 5.65918 H 17.334961 v 14.237305 q 0,2.5913082 1.191406,3.9316403 1.191406,1.3105468 3.991211,1.3105468 1.787109,0 3.484863,-0.2978515 1.697754,-0.2978516 3.097657,-0.6850586 z"
               id="path855" /><path
               d="m 64.0378,-17.454102 q 0,0.744629 -0.05957,1.936036 -0.02979,1.191406 -0.119141,2.233886 H 43.962605 q 0,1.995606 0.595703,3.5146487 0.625488,1.519043 1.727539,2.5615235 1.131836,1.0126953 2.680664,1.5488281 1.578613,0.5361328 3.484863,0.5361328 2.204102,0 4.706055,-0.3276367 2.531738,-0.3574219 5.242187,-1.1318359 v 5.77832028 q -1.161621,0.32763672 -2.531738,0.59570313 -1.370117,0.2680664 -2.799805,0.4765625 -1.429687,0.20849609 -2.88916,0.29785156 -1.459473,0.11914062 -2.82959,0.11914062 -3.455078,0 -6.195312,-0.98291015 -2.740235,-0.98291014 -4.646485,-2.88916014 -1.90625,-1.9360352 -2.918945,-4.765625 -1.012695,-2.8295903 -1.012695,-6.5527343 0,-3.693359 1.012695,-6.70166 1.012695,-3.038086 2.859375,-5.182617 1.84668,-2.174317 4.467774,-3.335938 2.650878,-1.191406 5.89746,-1.191406 3.216797,0 5.688965,1.012695 2.472168,0.98291 4.140137,2.77002 1.667969,1.787109 2.531738,4.259277 0.86377,2.472168 0.86377,5.420898 z m -7.386719,-1.04248 q 0.02979,-1.787109 -0.446777,-3.097656 -0.476563,-1.340332 -1.310547,-2.204102 -0.804199,-0.863769 -1.90625,-1.280762 -1.072266,-0.416992 -2.323242,-0.416992 -2.740235,0 -4.497559,1.84668 -1.757324,1.816894 -2.084961,5.152832 z"
               id="path858" /><path
               d="M 90.695229,0 83.785072,-10.186523 76.845131,0 H 68.05851 L 79.406654,-15.25 68.654213,-30.261719 h 8.846191 l 6.791016,9.948242 6.70166,-9.948242 h 8.161133 L 88.729408,-15.30957 99.720131,0 Z"
               id="path860" /><path
               d="m 129.7135,-0.29785156 q -1.96582,0.44677734 -3.96142,0.71484375 -1.99561,0.2680664 -3.78272,0.2680664 -2.97852,0 -5.15283,-0.62548828 -2.14453,-0.62548828 -3.57422,-1.90625001 -1.3999,-1.2807617 -2.08496,-3.246582 -0.65527,-1.9956055 -0.65527,-4.7358399 V -24.602539 h -8.13135 v -5.65918 h 8.13135 v -7.74414 l 7.44628,-1.936036 v 9.680176 h 11.76514 v 5.65918 h -11.76514 v 14.237305 q 0,2.5913082 1.19141,3.9316403 1.19141,1.3105468 3.99121,1.3105468 1.78711,0 3.48486,-0.2978515 1.69776,-0.2978516 3.09766,-0.6850586 z"
               id="path862" /></g></g><g
           id="g865"
           transform="matrix(1.5,0,0,-1.5,0,829.5)"><path
             d="m 306,135 -27,18 H 126 L 99,135"
             style="fill:none;stroke:#797979;stroke-width:9;stroke-linecap:round;stroke-linejoin:round;stroke-miterlimit:10;stroke-dasharray:none;stroke-opacity:1"
             id="path867" /></g><path
           d="M 256.5,708 H 351 v -54 h 40.5 L 303.75,613.5 216,654 h 40.5 z"
           style="fill:#ff2600;fill-opacity:1;fill-rule:nonzero;stroke:none"
           id="path869" /><path
           d="M 256.5,357 H 351 v 54 h 40.5 L 303.75,451.5 216,411 h 40.5 z"
           style="fill:#ff2600;fill-opacity:1;fill-rule:nonzero;stroke:none"
           id="path871" /><g
           id="g873"
           transform="matrix(1.5,0,0,-1.5,0,829.5)"><path
             d="m 99,261 27,-18 h 153 l 27,18"
             style="fill:none;stroke:#797979;stroke-width:9;stroke-linecap:round;stroke-linejoin:round;stroke-miterlimit:10;stroke-dasharray:none;stroke-opacity:1"
             id="path875" /></g></g></g></g></svg>
