<?xml version="1.0" encoding="UTF-8" standalone="no"?>
<svg
   xmlns:dc="http://purl.org/dc/elements/1.1/"
   xmlns:cc="http://creativecommons.org/ns#"
   xmlns:rdf="http://www.w3.org/1999/02/22-rdf-syntax-ns#"
   xmlns:svg="http://www.w3.org/2000/svg"
   xmlns="http://www.w3.org/2000/svg"
   version="1.1"
   id="svg1072"
   xml:space="preserve"
   width="481"
   height="275"
   viewBox="0 0 481 275"><metadata
     id="metadata1078"><rdf:RDF><cc:Work
         rdf:about=""><dc:format>image/svg+xml</dc:format><dc:type
           rdf:resource="http://purl.org/dc/dcmitype/StillImage" /><dc:title></dc:title></cc:Work></rdf:RDF></metadata><defs
     id="defs1076"><clipPath
       clipPathUnits="userSpaceOnUse"
       id="clipPath1090"><path
         d="M 0,0 H 360.75 V 206.25 H 0 Z"
         id="path1088" /></clipPath></defs><g
     id="g1080"
     transform="matrix(1.3333333,0,0,-1.3333333,0,275)"><g
       id="g1082" /><g
       id="g1084"><g
         id="g1086"
         clip-path="url(#clipPath1090)"><path
           d="M 1.5,177 H 359.25 V 1.5 H 1.5 Z"
           style="fill:#ffffff;fill-opacity:1;fill-rule:nonzero;stroke:none"
           id="path1092" /><g
           id="g1094"
           transform="matrix(0.75,0,0,-0.75,-106.5,251.25)"><path
             d="M 144,99 H 621 V 333 H 144 Z"
             style="fill:none;stroke:#000000;stroke-width:1;stroke-linecap:round;stroke-linejoin:round;stroke-miterlimit:10;stroke-dasharray:none;stroke-opacity:1"
             id="path1096" /></g><g
           id="g1098"
           transform="matrix(0.75,0,0,-0.75,29.67188,156.75)"><text
             transform="translate(-23,6.267944)"
             style="font-variant:normal;font-weight:bold;font-size:16px;font-family:'Helvetica Neue';-inkscape-font-specification:HelveticaNeue-Bold;writing-mode:lr-tb;fill:#000000;fill-opacity:1;fill-rule:nonzero;stroke:none"
             id="text1102"><tspan
               x="0 8 17.775999 27.552 31.68 40.863998"
               y="0"
               id="tspan1100">Topic:</tspan></text></g><path
           d="m 55.5,170.25 h 135 v -27 h -135 z"
           style="fill:#ffffff;fill-opacity:1;fill-rule:nonzero;stroke:none"
           id="path1104" /><g
           id="g1106"
           transform="matrix(0.75,0,0,-0.75,-106.5,251.25)"><path
             d="m 216,108 h 180 v 36 H 216 Z"
             style="fill:none;stroke:#000000;stroke-width:1;stroke-linecap:round;stroke-linejoin:round;stroke-miterlimit:10;stroke-dasharray:none;stroke-opacity:1"
             id="path1108" /></g><g
           id="g1110"
           transform="matrix(0.75,0,0,-0.75,123,156.75)"><text
             transform="translate(-85,5.776001)"
             style="font-variant:normal;font-weight:normal;font-size:16px;font-family:'Helvetica Neue';-inkscape-font-specification:HelveticaNeue;writing-mode:lr-tb;fill:#000000;fill-opacity:1;fill-rule:nonzero;stroke:none"
             id="text1114"><tspan
               x="0 13.904 22.496 26.048 34.639999 43.824001 57.472 66.064003 74.064003"
               y="0"
               id="tspan1112">Welcomes!</tspan></text></g><g
           id="g1116"
           transform="matrix(0.75,0,0,-0.75,43.875,132)"><text
             transform="translate(-41.5,6.267944)"
             style="font-variant:normal;font-weight:bold;font-size:16px;font-family:'Helvetica Neue';-inkscape-font-specification:HelveticaNeue-Bold;writing-mode:lr-tb;fill:#000000;fill-opacity:1;fill-rule:nonzero;stroke:none"
             id="text1120"><tspan
               x="0 14.512 23.695999 32.287998 40.880001 50.063999 59.84 69.024002 77.615997"
               y="0"
               id="tspan1118">Messages:</tspan></text></g><path
           d="M 8.25,116.25 H 190.5 V 8.25 H 8.25 Z"
           style="fill:#ffffff;fill-opacity:1;fill-rule:nonzero;stroke:none"
           id="path1122" /><g
           id="g1124"
           transform="matrix(0.75,0,0,-0.75,-106.5,251.25)"><path
             d="M 153,180 H 396 V 324 H 153 Z"
             style="fill:none;stroke:#000000;stroke-width:1;stroke-linecap:round;stroke-linejoin:round;stroke-miterlimit:10;stroke-dasharray:none;stroke-opacity:1"
             id="path1126" /></g><g
           id="g1128"
           transform="matrix(0.75,0,0,-0.75,99.375,62.25)"><text
             transform="translate(-116.5,-52)"
             style="font-variant:normal;font-weight:normal;font-size:16px;font-family:'Helvetica Neue';-inkscape-font-specification:HelveticaNeue;writing-mode:lr-tb;fill:#000000;fill-opacity:1;fill-rule:nonzero;stroke:none"
             id="text1132"><tspan
               x="0 10.368 13.92 17.472 26.063999 34.655998 39.104 43.551998 55.104 58.655998"
               y="0"
               id="tspan1130">Alice: Hi!</tspan></text></g><g
           id="g1134"
           transform="matrix(0.75,0,0,-0.75,99.375,62.25)"><text
             transform="translate(-116.5,-28)"
             style="font-variant:normal;font-weight:normal;font-size:16px;font-family:'Helvetica Neue';-inkscape-font-specification:HelveticaNeue;writing-mode:lr-tb;fill:#000000;fill-opacity:1;fill-rule:nonzero;stroke:none"
             id="text1138"><tspan
               x="0 10.96 20.143999 29.632 34.080002 38.528 50.080002 58.672001 62.223999 65.776001 74.959999"
               y="0"
               id="tspan1136">Bob: Hello!</tspan></text></g><g
           id="g1140"
           transform="matrix(0.75,0,0,-0.75,99.375,62.25)"><text
             transform="translate(-116.5,-4)"
             style="font-variant:normal;font-weight:normal;font-size:16px;font-family:'Helvetica Neue';-inkscape-font-specification:HelveticaNeue;writing-mode:lr-tb;fill:#000000;fill-opacity:1;fill-rule:nonzero;stroke:none"
             id="text1144"><tspan
               x="0 10.368 13.92 17.472 26.063999 34.655998 39.104 43.551998 55.104 64.288002 76.416 80.863998 89.456001 94.496002 103.088 107.536 115.536 124.72 133.616"
               y="0"
               id="tspan1142">Alice: How are you?</tspan></text></g><path
           d="M 15,42 H 183.75 V 15 H 15 Z"
           style="fill:#ffffff;fill-opacity:1;fill-rule:nonzero;stroke:none"
           id="path1146" /><g
           id="g1148"
           transform="matrix(0.75,0,0,-0.75,-106.5,251.25)"><path
             d="m 162,279 h 225 v 36 H 162 Z"
             style="fill:none;stroke:#000000;stroke-width:1;stroke-linecap:round;stroke-linejoin:round;stroke-miterlimit:10;stroke-dasharray:none;stroke-opacity:1"
             id="path1150" /></g><g
           id="g1152"
           transform="matrix(0.75,0,0,-0.75,99.375,28.5)"><text
             transform="translate(-107.5,5.776001)"
             style="font-variant:normal;font-weight:normal;font-size:16px;font-family:'Helvetica Neue';-inkscape-font-specification:HelveticaNeue;writing-mode:lr-tb;fill:#000000;fill-opacity:1;fill-rule:nonzero;stroke:none"
             id="text1156"><tspan
               x="0"
               y="0"
               id="tspan1154">|</tspan></text></g><path
           d="m 126,38.25 h 54 V 18 h -54 z"
           style="fill:#ebebeb;fill-opacity:1;fill-rule:nonzero;stroke:none"
           id="path1158" /><g
           id="g1160"
           transform="matrix(0.75,0,0,-0.75,-106.5,251.25)"><path
             d="m 310,284 h 72 v 27 h -72 z"
             style="fill:none;stroke:#000000;stroke-width:1;stroke-linecap:round;stroke-linejoin:round;stroke-miterlimit:10;stroke-dasharray:none;stroke-opacity:1"
             id="path1162" /></g><g
           id="g1164"
           transform="matrix(0.75,0,0,-0.75,153,28.125)"><text
             transform="translate(-18.672,5.776001)"
             style="font-variant:normal;font-weight:normal;font-size:16px;font-family:'Helvetica Neue';-inkscape-font-specification:HelveticaNeue;writing-mode:lr-tb;fill:#000000;fill-opacity:1;fill-rule:nonzero;stroke:none"
             id="text1168"><tspan
               x="0 10.368 18.959999 27.856001"
               y="0"
               id="tspan1166">Send</tspan></text></g><g
           id="g1170"
           transform="matrix(0.75,0,0,-0.75,236.625,132)"><text
             transform="translate(-38.5,6.267944)"
             style="font-variant:normal;font-weight:bold;font-size:16px;font-family:'Helvetica Neue';-inkscape-font-specification:HelveticaNeue-Bold;writing-mode:lr-tb;fill:#000000;fill-opacity:1;fill-rule:nonzero;stroke:none"
             id="text1174"><tspan
               x="0 14.512 23.695999 38.192001 47.967999 57.152 63.375999 71.968002"
               y="0"
               id="tspan1172">Members:</tspan></text></g><path
           d="M 204,116.25 H 352.5 V 8.25 H 204 Z"
           style="fill:#ffffff;fill-opacity:1;fill-rule:nonzero;stroke:none"
           id="path1176" /><g
           id="g1178"
           transform="matrix(0.75,0,0,-0.75,-106.5,251.25)"><path
             d="M 414,180 H 612 V 324 H 414 Z"
             style="fill:none;stroke:#000000;stroke-width:1;stroke-linecap:round;stroke-linejoin:round;stroke-miterlimit:10;stroke-dasharray:none;stroke-opacity:1"
             id="path1180" /></g><g
           id="g1182"
           transform="matrix(0.75,0,0,-0.75,278.25,62.25)" /><g
           id="g1184"
           transform="matrix(0.75,0,0,-0.75,278.25,62.25)"><text
             transform="translate(-75.712,-52)"
             style="font-variant:normal;font-weight:normal;font-size:16px;font-family:'Helvetica Neue';-inkscape-font-specification:HelveticaNeue;writing-mode:lr-tb;fill:#000000;fill-opacity:1;fill-rule:nonzero;stroke:none"
             id="text1188"><tspan
               x="0 10.368 13.92 17.472 26.063999"
               y="0"
               id="tspan1186">Alice</tspan></text></g><g
           id="g1190"
           transform="matrix(0.75,0,0,-0.75,278.25,62.25)" /><g
           id="g1192"
           transform="matrix(0.75,0,0,-0.75,278.25,62.25)"><text
             transform="translate(-75.712,-26)"
             style="font-variant:normal;font-weight:normal;font-size:16px;font-family:'Helvetica Neue';-inkscape-font-specification:HelveticaNeue;writing-mode:lr-tb;fill:#000000;fill-opacity:1;fill-rule:nonzero;stroke:none"
             id="text1196"><tspan
               x="0 10.96 20.143999"
               y="0"
               id="tspan1194">Bob</tspan></text></g><g
           id="g1198"
           transform="matrix(0.75,0,0,-0.75,278.25,62.25)" /><g
           id="g1200"
           transform="matrix(0.75,0,0,-0.75,278.25,62.25)"><text
             transform="translate(-75.712)"
             style="font-variant:normal;font-weight:normal;font-size:16px;font-family:'Helvetica Neue';-inkscape-font-specification:HelveticaNeue;writing-mode:lr-tb;fill:#000000;fill-opacity:1;fill-rule:nonzero;stroke:none"
             id="text1204"><tspan
               x="0 11.552 20.143999 25.184 34.368"
               y="0"
               id="tspan1202">Carol</tspan></text></g><path
           d="M 204,75.75 H 352.5 V 55.5 H 204 Z"
           style="fill:#fffb00;fill-opacity:0.2;fill-rule:nonzero;stroke:none"
           id="path1206" /><path
           d="m 258,72.75 h 40.5 V 59.25 H 258 Z"
           style="fill:#ebebeb;fill-opacity:1;fill-rule:nonzero;stroke:none"
           id="path1208" /><g
           id="g1210"
           transform="matrix(0.75,0,0,-0.75,-106.5,251.25)"><path
             d="m 486,238 h 54 v 18 h -54 z"
             style="fill:none;stroke:#000000;stroke-width:1;stroke-linecap:round;stroke-linejoin:round;stroke-miterlimit:10;stroke-dasharray:none;stroke-opacity:1"
             id="path1212" /></g><g
           id="g1214"
           transform="matrix(0.75,0,0,-0.75,278.25,66)"><text
             transform="translate(-13.782,3.832001)"
             style="font-variant:normal;font-weight:normal;font-size:12px;font-family:'Helvetica Neue';-inkscape-font-specification:HelveticaNeue;writing-mode:lr-tb;fill:#000000;fill-opacity:1;fill-rule:nonzero;stroke:none"
             id="text1218"><tspan
               x="0 8.448 14.892 21.563999"
               y="0"
               id="tspan1216">Deny</tspan></text></g><path
           d="m 305.25,72.75 h 40.5 v -13.5 h -40.5 z"
           style="fill:#ebebeb;fill-opacity:1;fill-rule:nonzero;stroke:none"
           id="path1220" /><g
           id="g1222"
           transform="matrix(0.75,0,0,-0.75,-106.5,251.25)"><path
             d="m 549,238 h 54 v 18 h -54 z"
             style="fill:none;stroke:#000000;stroke-width:1;stroke-linecap:round;stroke-linejoin:round;stroke-miterlimit:10;stroke-dasharray:none;stroke-opacity:1"
             id="path1224" /></g><g
           id="g1226"
           transform="matrix(0.75,0,0,-0.75,325.5,66)"><text
             transform="translate(-14.544,3.832001)"
             style="font-variant:normal;font-weight:normal;font-size:12px;font-family:'Helvetica Neue';-inkscape-font-specification:HelveticaNeue;writing-mode:lr-tb;fill:#000000;fill-opacity:1;fill-rule:nonzero;stroke:none"
             id="text1230"><tspan
               x="0 7.776 10.44 13.104 19.992001"
               y="0"
               id="tspan1228">Allow</tspan></text></g><g
           id="g1232"
           transform="matrix(0.75,0,0,-0.75,180.375,191.25)"><text
             transform="translate(-224.5,8.651917)"
             style="font-variant:normal;font-weight:bold;font-size:24px;font-family:'Helvetica Neue';-inkscape-font-specification:HelveticaNeue-Bold;writing-mode:lr-tb;fill:#000000;fill-opacity:1;fill-rule:nonzero;stroke:none"
             id="text1236"><tspan
               x="0 17.784 32.015999 45.792 54.240002 60.911999 78.239998 92.903999 107.568 129.312 135.98399 151.992 165.76801 180.43201"
               y="0"
               id="tspan1234">Chat Room Page</tspan></text></g></g></g></g></svg>
