<?xml version="1.0" encoding="UTF-8" standalone="no"?>
<svg
   xmlns:dc="http://purl.org/dc/elements/1.1/"
   xmlns:cc="http://creativecommons.org/ns#"
   xmlns:rdf="http://www.w3.org/1999/02/22-rdf-syntax-ns#"
   xmlns:svg="http://www.w3.org/2000/svg"
   xmlns="http://www.w3.org/2000/svg"
   version="1.1"
   id="svg3848"
   xml:space="preserve"
   width="530"
   height="389"
   viewBox="0 0 530 389"><metadata
     id="metadata3854"><rdf:RDF><cc:Work
         rdf:about=""><dc:format>image/svg+xml</dc:format><dc:type
           rdf:resource="http://purl.org/dc/dcmitype/StillImage" /><dc:title></dc:title></cc:Work></rdf:RDF></metadata><defs
     id="defs3852"><clipPath
       clipPathUnits="userSpaceOnUse"
       id="clipPath3866"><path
         d="M 0,0 H 397.5 V 291.75 H 0 Z"
         id="path3864" /></clipPath></defs><g
     id="g3856"
     transform="matrix(1.3333333,0,0,-1.3333333,0,389)"><g
       id="g3858" /><g
       id="g3860"><g
         id="g3862"
         clip-path="url(#clipPath3866)"><path
           d="M 108.75,271.5 H 294 c 6.6274,0 12,-5.3726 12,-12 v -246 c 0,-6.627417 -5.3726,-12 -12,-12 H 108.75 c -6.6274,0 -12,5.372583 -12,12 v 246 c 0,6.6274 5.3726,12 12,12 z"
           style="fill:#ffffff;fill-opacity:1;fill-rule:nonzero;stroke:none"
           id="path3868" /><g
           id="g3870"
           transform="matrix(0.75,0,0,-0.75,-65.25,372.75)"><path
             d="m 232,135 h 247 c 8.8366,0 16,7.1634 16,16 v 328 c 0,8.8366 -7.1634,16 -16,16 H 232 c -8.8366,0 -16,-7.1634 -16,-16 V 151 c 0,-8.8366 7.1634,-16 16,-16 z"
             style="fill:none;stroke:#000000;stroke-width:1;stroke-linecap:round;stroke-linejoin:round;stroke-miterlimit:10;stroke-dasharray:none;stroke-opacity:1"
             id="path3872" /></g><g
           id="g3874"
           transform="matrix(0.75,0,0,-0.75,-65.25,372.75)"><path
             d="M 323.5622,138.3127 C 301.5832,147.0372 247.6623,174.561 232,239 c -19.8314,81.5918 -0.1636,119.1232 31,184 18.2888,38.0739 42.3199,46.9578 59.0546,47.7998"
             style="fill:none;stroke:#000000;stroke-width:2;stroke-linecap:round;stroke-linejoin:round;stroke-miterlimit:10;stroke-dasharray:none;stroke-opacity:1"
             id="path3876" /></g><path
           d="m 183.4792,20.13485 -7.3653,2.20946 0.3633,-5.38776 z"
           style="fill:#000000;fill-opacity:1;fill-rule:nonzero;stroke:none"
           id="path3878" /><g
           id="g3880"
           transform="matrix(0.75,0,0,-0.75,-65.25,372.75)"><path
             d="m 331.639,470.1535 -9.8205,-2.9459 0.4845,7.1837 z"
             style="fill:none;stroke:#000000;stroke-width:2;stroke-linecap:butt;stroke-linejoin:miter;stroke-miterlimit:10;stroke-dasharray:none;stroke-opacity:1"
             id="path3882" /></g><path
           d="m 189.273,276.273 c 2.636,-2.6361 2.636,-6.9099 0,-9.546 -2.6361,-2.636 -6.9099,-2.636 -9.546,0 -2.636,2.6361 -2.636,6.9099 0,9.546 2.6361,2.636 6.9099,2.636 9.546,0"
           style="fill:#ffffff;fill-opacity:1;fill-rule:nonzero;stroke:none"
           id="path3884" /><g
           id="g3886"
           transform="matrix(0.75,0,0,-0.75,-65.25,372.75)"><path
             d="m 339.364,128.636 c 3.5147,3.5148 3.5147,9.2132 0,12.728 -3.5148,3.5147 -9.2132,3.5147 -12.728,0 -3.5147,-3.5148 -3.5147,-9.2132 0,-12.728 3.5148,-3.5147 9.2132,-3.5147 12.728,0"
             style="fill:none;stroke:#000000;stroke-width:2;stroke-linecap:round;stroke-linejoin:round;stroke-miterlimit:10;stroke-dasharray:none;stroke-opacity:1"
             id="path3888" /></g><path
           d="m 292.875,272 v 0 16 0 z"
           style="fill:#000000;fill-opacity:1;fill-rule:nonzero;stroke:none"
           id="path3890" /><g
           id="g3892"
           transform="matrix(0.75,0,0,-0.75,262.125,279.75)"><text
             transform="translate(-89.5,5.415527)"
             style="font-variant:normal;font-weight:bold;font-size:16px;font-family:'Helvetica Neue';-inkscape-font-specification:HelveticaNeue-Bold;writing-mode:lr-tb;fill:#000000;fill-opacity:1;fill-rule:nonzero;stroke:none"
             id="text3896"><tspan
               x="0 9.776 18.959999 25.184 33.776001 42.959999 50.959999 60.144001 69.328003 73.456001 82.639999 92.127998 101.904 111.088 117.312 125.312"
               y="0"
               id="tspan3894">parse_calendar_f</tspan></text></g><g
           id="g3898"
           transform="matrix(0.75,0,0,-0.75,262.125,279.75)"><text
             transform="translate(41.14,5.415527)"
             style="font-variant:normal;font-weight:bold;font-size:16px;font-family:'Helvetica Neue';-inkscape-font-specification:HelveticaNeue-Bold;writing-mode:lr-tb;fill:#000000;fill-opacity:1;fill-rule:nonzero;stroke:none"
             id="text3902"><tspan
               x="0 4.1279998 8.2559996 17.440001 22.176001 38.175999"
               y="0"
               id="tspan3900">ile(…)</tspan></text></g><path
           d="m 162.273,249.273 c 2.636,-2.6361 2.636,-6.9099 0,-9.546 -2.6361,-2.636 -6.9099,-2.636 -9.546,0 -2.636,2.6361 -2.636,6.9099 0,9.546 2.6361,2.636 6.9099,2.636 9.546,0"
           style="fill:#ffffff;fill-opacity:1;fill-rule:nonzero;stroke:none"
           id="path3904" /><g
           id="g3906"
           transform="matrix(0.75,0,0,-0.75,-65.25,372.75)"><path
             d="m 303.364,164.636 c 3.5147,3.5148 3.5147,9.2132 0,12.728 -3.5148,3.5147 -9.2132,3.5147 -12.728,0 -3.5147,-3.5148 -3.5147,-9.2132 0,-12.728 3.5148,-3.5147 9.2132,-3.5147 12.728,0"
             style="fill:none;stroke:#000000;stroke-width:1;stroke-linecap:round;stroke-linejoin:round;stroke-miterlimit:10;stroke-dasharray:none;stroke-opacity:1"
             id="path3908" /></g><path
           d="M 0,255 H 148.5 V 236.25 H 0 Z"
           style="fill:#ffffff;fill-opacity:1;fill-rule:nonzero;stroke:none"
           id="path3910" /><g
           id="g3912"
           transform="matrix(0.75,0,0,-0.75,74.25,245.625)"><text
             transform="translate(-88.88,3.832001)"
             style="font-variant:normal;font-weight:normal;font-size:12px;font-family:'Helvetica Neue';-inkscape-font-specification:HelveticaNeue;writing-mode:lr-tb;fill:#000000;fill-opacity:1;fill-rule:nonzero;stroke:none"
             id="text3916"><tspan
               x="0 7.1160002 13.56 17.556 23.556 30 36 43.116001 49.560001 52.223999 54.888 60.888 66.888 73.332001 80.003998 86.447998 93.564003 100.236 102.9 109.344 112.452 124.452 127.788"
               y="0"
               id="tspan3914">parse_bell_schedule(…, </tspan></text></g><g
           id="g3918"
           transform="matrix(0.75,0,0,-0.75,74.25,245.625)"><text
             transform="translate(42.244,3.832001)"
             style="font-variant:normal;font-weight:normal;font-size:12px;font-family:'Helvetica Neue';-inkscape-font-specification:HelveticaNeue;writing-mode:lr-tb;fill:#929000;fill-opacity:1;fill-rule:nonzero;stroke:none"
             id="text3922"><tspan
               x="0 9.0959997 15.54 19.752001 26.424 29.087999 35.759998 42.647999"
               y="0"
               id="tspan3920">warnings</tspan></text></g><g
           id="g3924"
           transform="matrix(0.75,0,0,-0.75,74.25,245.625)"><text
             transform="translate(90.892,3.832001)"
             style="font-variant:normal;font-weight:normal;font-size:12px;font-family:'Helvetica Neue';-inkscape-font-specification:HelveticaNeue;writing-mode:lr-tb;fill:#000000;fill-opacity:1;fill-rule:nonzero;stroke:none"
             id="text3928"><tspan
               x="0"
               y="0"
               id="tspan3926">)</tspan></text></g><path
           d="m 223.023,249.273 c 2.636,-2.6361 2.636,-6.9099 0,-9.546 -2.6361,-2.636 -6.9099,-2.636 -9.546,0 -2.636,2.6361 -2.636,6.9099 0,9.546 2.6361,2.636 6.9099,2.636 9.546,0"
           style="fill:#ffffff;fill-opacity:1;fill-rule:nonzero;stroke:none"
           id="path3930" /><g
           id="g3932"
           transform="matrix(0.75,0,0,-0.75,-65.25,372.75)"><path
             d="m 384.364,164.636 c 3.5147,3.5148 3.5147,9.2132 0,12.728 -3.5148,3.5147 -9.2132,3.5147 -12.728,0 -3.5147,-3.5148 -3.5147,-9.2132 0,-12.728 3.5148,-3.5147 9.2132,-3.5147 12.728,0"
             style="fill:none;stroke:#000000;stroke-width:1;stroke-linecap:round;stroke-linejoin:round;stroke-miterlimit:10;stroke-dasharray:none;stroke-opacity:1"
             id="path3934" /></g><path
           d="M 226.5,255 H 397.125 V 236.25 H 226.5 Z"
           style="fill:#ffffff;fill-opacity:1;fill-rule:nonzero;stroke:none"
           id="path3936" /><g
           id="g3938"
           transform="matrix(0.75,0,0,-0.75,311.8125,245.625)"><text
             transform="translate(-108.75,3.832001)"
             style="font-variant:normal;font-weight:normal;font-size:12px;font-family:'Helvetica Neue';-inkscape-font-specification:HelveticaNeue;writing-mode:lr-tb;fill:#000000;fill-opacity:1;fill-rule:nonzero;stroke:none"
             id="text3942"><tspan
               x="0 7.1160002 13.56 17.556 23.556 30 36 42.444 49.116001 53.112 57.108002 59.771999 66.216003 72.888 75.552002 82.223999 92.459999 98.459999 104.904 111.792 118.464 122.244 128.688 135.36 139.14 142.248 154.248 157.584"
               y="0"
               id="tspan3940">parse_curriculum_content(…, </tspan></text></g><g
           id="g3944"
           transform="matrix(0.75,0,0,-0.75,311.8125,245.625)"><text
             transform="translate(52.17,3.832001)"
             style="font-variant:normal;font-weight:normal;font-size:12px;font-family:'Helvetica Neue';-inkscape-font-specification:HelveticaNeue;writing-mode:lr-tb;fill:#929000;fill-opacity:1;fill-rule:nonzero;stroke:none"
             id="text3948"><tspan
               x="0 9.0959997 15.54 19.752001 26.424 29.087999 35.759998 42.647999"
               y="0"
               id="tspan3946">warnings</tspan></text></g><g
           id="g3950"
           transform="matrix(0.75,0,0,-0.75,311.8125,245.625)"><text
             transform="translate(100.818,3.832001)"
             style="font-variant:normal;font-weight:normal;font-size:12px;font-family:'Helvetica Neue';-inkscape-font-specification:HelveticaNeue;writing-mode:lr-tb;fill:#000000;fill-opacity:1;fill-rule:nonzero;stroke:none"
             id="text3954"><tspan
               x="0"
               y="0"
               id="tspan3952">)</tspan></text></g><path
           d="m 223.023,222.273 c 2.636,-2.6361 2.636,-6.9099 0,-9.546 -2.6361,-2.636 -6.9099,-2.636 -9.546,0 -2.636,2.6361 -2.636,6.9099 0,9.546 2.6361,2.636 6.9099,2.636 9.546,0"
           style="fill:#ffffff;fill-opacity:1;fill-rule:nonzero;stroke:none"
           id="path3956" /><g
           id="g3958"
           transform="matrix(0.75,0,0,-0.75,-65.25,372.75)"><path
             d="m 384.364,200.636 c 3.5147,3.5148 3.5147,9.2132 0,12.728 -3.5148,3.5147 -9.2132,3.5147 -12.728,0 -3.5147,-3.5148 -3.5147,-9.2132 0,-12.728 3.5148,-3.5147 9.2132,-3.5147 12.728,0"
             style="fill:none;stroke:#000000;stroke-width:1;stroke-linecap:round;stroke-linejoin:round;stroke-miterlimit:10;stroke-dasharray:none;stroke-opacity:1"
             id="path3960" /></g><path
           d="M 226.5,228 H 375 V 209.25 H 226.5 Z"
           style="fill:#ffffff;fill-opacity:1;fill-rule:nonzero;stroke:none"
           id="path3962" /><g
           id="g3964"
           transform="matrix(0.75,0,0,-0.75,300.75,218.625)"><text
             transform="translate(-94,3.832001)"
             style="font-variant:normal;font-weight:normal;font-size:12px;font-family:'Helvetica Neue';-inkscape-font-specification:HelveticaNeue;writing-mode:lr-tb;fill:#000000;fill-opacity:1;fill-rule:nonzero;stroke:none"
             id="text3968"><tspan
               x="0 7.1160002 13.56 17.556 23.556 30 36 42.672001 49.344002 52.007999 55.787998 58.896 70.896004 74.232002"
               y="0"
               id="tspan3966">parse_unit(…, </tspan></text></g><g
           id="g3970"
           transform="matrix(0.75,0,0,-0.75,300.75,218.625)"><text
             transform="translate(-16.432,3.832001)"
             style="font-variant:normal;font-weight:normal;font-size:12px;font-family:'Helvetica Neue';-inkscape-font-specification:HelveticaNeue;writing-mode:lr-tb;fill:#929000;fill-opacity:1;fill-rule:nonzero;stroke:none"
             id="text3974"><tspan
               x="0 9.0959997 15.54 19.752001 26.424 29.087999 35.759998 42.647999"
               y="0"
               id="tspan3972">warnings</tspan></text></g><g
           id="g3976"
           transform="matrix(0.75,0,0,-0.75,300.75,218.625)"><text
             transform="translate(32.216,3.832001)"
             style="font-variant:normal;font-weight:normal;font-size:12px;font-family:'Helvetica Neue';-inkscape-font-specification:HelveticaNeue;writing-mode:lr-tb;fill:#000000;fill-opacity:1;fill-rule:nonzero;stroke:none"
             id="text3980"><tspan
               x="0"
               y="0"
               id="tspan3978">)</tspan></text></g><path
           d="m 223.023,195.273 c 2.636,-2.6361 2.636,-6.9099 0,-9.546 -2.6361,-2.636 -6.9099,-2.636 -9.546,0 -2.636,2.6361 -2.636,6.9099 0,9.546 2.6361,2.636 6.9099,2.636 9.546,0"
           style="fill:#ffffff;fill-opacity:1;fill-rule:nonzero;stroke:none"
           id="path3982" /><g
           id="g3984"
           transform="matrix(0.75,0,0,-0.75,-65.25,372.75)"><path
             d="m 384.364,236.636 c 3.5147,3.5148 3.5147,9.2132 0,12.728 -3.5148,3.5147 -9.2132,3.5147 -12.728,0 -3.5147,-3.5148 -3.5147,-9.2132 0,-12.728 3.5148,-3.5147 9.2132,-3.5147 12.728,0"
             style="fill:none;stroke:#000000;stroke-width:1;stroke-linecap:round;stroke-linejoin:round;stroke-miterlimit:10;stroke-dasharray:none;stroke-opacity:1"
             id="path3986" /></g><path
           d="M 226.5,201 H 375 V 182.25 H 226.5 Z"
           style="fill:#ffffff;fill-opacity:1;fill-rule:nonzero;stroke:none"
           id="path3988" /><g
           id="g3990"
           transform="matrix(0.75,0,0,-0.75,300.75,191.625)"><text
             transform="translate(-94,3.832001)"
             style="font-variant:normal;font-weight:normal;font-size:12px;font-family:'Helvetica Neue';-inkscape-font-specification:HelveticaNeue;writing-mode:lr-tb;fill:#000000;fill-opacity:1;fill-rule:nonzero;stroke:none"
             id="text3994"><tspan
               x="0 7.1160002 13.56 17.556 23.556 30 36 38.664001 45.108002 51.108002 57.108002 63.995998 70.667999 73.776001 85.776001 89.112"
               y="0"
               id="tspan3992">parse_lesson(…, </tspan></text></g><g
           id="g3996"
           transform="matrix(0.75,0,0,-0.75,300.75,191.625)"><text
             transform="translate(-1.552,3.832001)"
             style="font-variant:normal;font-weight:normal;font-size:12px;font-family:'Helvetica Neue';-inkscape-font-specification:HelveticaNeue;writing-mode:lr-tb;fill:#929000;fill-opacity:1;fill-rule:nonzero;stroke:none"
             id="text4000"><tspan
               x="0 9.0959997 15.54 19.752001 26.424 29.087999 35.759998 42.647999"
               y="0"
               id="tspan3998">warnings</tspan></text></g><g
           id="g4002"
           transform="matrix(0.75,0,0,-0.75,300.75,191.625)"><text
             transform="translate(47.096,3.832001)"
             style="font-variant:normal;font-weight:normal;font-size:12px;font-family:'Helvetica Neue';-inkscape-font-specification:HelveticaNeue;writing-mode:lr-tb;fill:#000000;fill-opacity:1;fill-rule:nonzero;stroke:none"
             id="text4006"><tspan
               x="0"
               y="0"
               id="tspan4004">)</tspan></text></g><path
           d="m 223.023,168.273 c 2.636,-2.6361 2.636,-6.9099 0,-9.546 -2.6361,-2.636 -6.9099,-2.636 -9.546,0 -2.636,2.6361 -2.636,6.9099 0,9.546 2.6361,2.636 6.9099,2.636 9.546,0"
           style="fill:#ffffff;fill-opacity:1;fill-rule:nonzero;stroke:none"
           id="path4008" /><g
           id="g4010"
           transform="matrix(0.75,0,0,-0.75,-65.25,372.75)"><path
             d="m 384.364,272.636 c 3.5147,3.5148 3.5147,9.2132 0,12.728 -3.5148,3.5147 -9.2132,3.5147 -12.728,0 -3.5147,-3.5148 -3.5147,-9.2132 0,-12.728 3.5148,-3.5147 9.2132,-3.5147 12.728,0"
             style="fill:none;stroke:#000000;stroke-width:1;stroke-linecap:round;stroke-linejoin:round;stroke-miterlimit:10;stroke-dasharray:none;stroke-opacity:1"
             id="path4012" /></g><path
           d="M 226.5,174 H 375 V 155.25 H 226.5 Z"
           style="fill:#ffffff;fill-opacity:1;fill-rule:nonzero;stroke:none"
           id="path4014" /><g
           id="g4016"
           transform="matrix(0.75,0,0,-0.75,300.75,164.625)"><text
             transform="translate(-94,3.832001)"
             style="font-variant:normal;font-weight:normal;font-size:12px;font-family:'Helvetica Neue';-inkscape-font-specification:HelveticaNeue;writing-mode:lr-tb;fill:#000000;fill-opacity:1;fill-rule:nonzero;stroke:none"
             id="text4020"><tspan
               x="0 7.1160002 13.56 17.556 23.556 30 36 43.116001 49.560001 55.560001 58.667999 70.667999 74.003998"
               y="0"
               id="tspan4018">parse_day(…, </tspan></text></g><g
           id="g4022"
           transform="matrix(0.75,0,0,-0.75,300.75,164.625)"><text
             transform="translate(-16.66,3.832001)"
             style="font-variant:normal;font-weight:normal;font-size:12px;font-family:'Helvetica Neue';-inkscape-font-specification:HelveticaNeue;writing-mode:lr-tb;fill:#929000;fill-opacity:1;fill-rule:nonzero;stroke:none"
             id="text4026"><tspan
               x="0 9.0959997 15.54 19.752001 26.424 29.087999 35.759998 42.647999"
               y="0"
               id="tspan4024">warnings</tspan></text></g><g
           id="g4028"
           transform="matrix(0.75,0,0,-0.75,300.75,164.625)"><text
             transform="translate(31.988,3.832001)"
             style="font-variant:normal;font-weight:normal;font-size:12px;font-family:'Helvetica Neue';-inkscape-font-specification:HelveticaNeue;writing-mode:lr-tb;fill:#000000;fill-opacity:1;fill-rule:nonzero;stroke:none"
             id="text4032"><tspan
               x="0"
               y="0"
               id="tspan4030">)</tspan></text></g><path
           d="m 223.023,141.273 c 2.636,-2.6361 2.636,-6.9099 0,-9.546 -2.6361,-2.636 -6.9099,-2.636 -9.546,0 -2.636,2.6361 -2.636,6.9099 0,9.546 2.6361,2.636 6.9099,2.636 9.546,0"
           style="fill:#ffffff;fill-opacity:1;fill-rule:nonzero;stroke:none"
           id="path4034" /><g
           id="g4036"
           transform="matrix(0.75,0,0,-0.75,-65.25,372.75)"><path
             d="m 384.364,308.636 c 3.5147,3.5148 3.5147,9.2132 0,12.728 -3.5148,3.5147 -9.2132,3.5147 -12.728,0 -3.5147,-3.5148 -3.5147,-9.2132 0,-12.728 3.5148,-3.5147 9.2132,-3.5147 12.728,0"
             style="fill:none;stroke:#000000;stroke-width:1;stroke-linecap:round;stroke-linejoin:round;stroke-miterlimit:10;stroke-dasharray:none;stroke-opacity:1"
             id="path4038" /></g><path
           d="M 226.5,147 H 375 V 128.25 H 226.5 Z"
           style="fill:#ffffff;fill-opacity:1;fill-rule:nonzero;stroke:none"
           id="path4040" /><g
           id="g4042"
           transform="matrix(0.75,0,0,-0.75,300.75,137.625)"><text
             transform="translate(-94,3.832001)"
             style="font-variant:normal;font-weight:normal;font-size:12px;font-family:'Helvetica Neue';-inkscape-font-specification:HelveticaNeue;writing-mode:lr-tb;fill:#000000;fill-opacity:1;fill-rule:nonzero;stroke:none"
             id="text4046"><tspan
               x="0 7.1160002 13.56 17.556 23.556 30 36 42.444 48.888 52.667999 55.332001 61.332001 63.995998 67.776001 73.776001 76.884003 88.884003 92.220001"
               y="0"
               id="tspan4044">parse_activity(…, </tspan></text></g><g
           id="g4048"
           transform="matrix(0.75,0,0,-0.75,300.75,137.625)"><text
             transform="translate(1.556,3.832001)"
             style="font-variant:normal;font-weight:normal;font-size:12px;font-family:'Helvetica Neue';-inkscape-font-specification:HelveticaNeue;writing-mode:lr-tb;fill:#929000;fill-opacity:1;fill-rule:nonzero;stroke:none"
             id="text4052"><tspan
               x="0 9.0959997 15.54 19.752001 26.424 29.087999 35.759998 42.647999"
               y="0"
               id="tspan4050">warnings</tspan></text></g><g
           id="g4054"
           transform="matrix(0.75,0,0,-0.75,300.75,137.625)"><text
             transform="translate(50.204,3.832001)"
             style="font-variant:normal;font-weight:normal;font-size:12px;font-family:'Helvetica Neue';-inkscape-font-specification:HelveticaNeue;writing-mode:lr-tb;fill:#000000;fill-opacity:1;fill-rule:nonzero;stroke:none"
             id="text4058"><tspan
               x="0"
               y="0"
               id="tspan4056">)</tspan></text></g><path
           d="m 135.273,220.023 c 2.636,-2.6361 2.636,-6.9099 0,-9.546 -2.6361,-2.636 -6.9099,-2.636 -9.546,0 -2.636,2.6361 -2.636,6.9099 0,9.546 2.6361,2.636 6.9099,2.636 9.546,0"
           style="fill:#ffffff;fill-opacity:1;fill-rule:nonzero;stroke:none"
           id="path4060" /><g
           id="g4062"
           transform="matrix(0.75,0,0,-0.75,-65.25,372.75)"><path
             d="m 267.364,203.636 c 3.5147,3.5148 3.5147,9.2132 0,12.728 -3.5148,3.5147 -9.2132,3.5147 -12.728,0 -3.5147,-3.5148 -3.5147,-9.2132 0,-12.728 3.5148,-3.5147 9.2132,-3.5147 12.728,0"
             style="fill:none;stroke:#000000;stroke-width:1;stroke-linecap:round;stroke-linejoin:round;stroke-miterlimit:10;stroke-dasharray:none;stroke-opacity:1"
             id="path4064" /></g><path
           d="m 162.273,220.023 c 2.636,-2.6361 2.636,-6.9099 0,-9.546 -2.6361,-2.636 -6.9099,-2.636 -9.546,0 -2.636,2.6361 -2.636,6.9099 0,9.546 2.6361,2.636 6.9099,2.636 9.546,0"
           style="fill:#ffffff;fill-opacity:1;fill-rule:nonzero;stroke:none"
           id="path4066" /><g
           id="g4068"
           transform="matrix(0.75,0,0,-0.75,-65.25,372.75)"><path
             d="m 303.364,203.636 c 3.5147,3.5148 3.5147,9.2132 0,12.728 -3.5148,3.5147 -9.2132,3.5147 -12.728,0 -3.5147,-3.5148 -3.5147,-9.2132 0,-12.728 3.5148,-3.5147 9.2132,-3.5147 12.728,0"
             style="fill:none;stroke:#000000;stroke-width:1;stroke-linecap:round;stroke-linejoin:round;stroke-miterlimit:10;stroke-dasharray:none;stroke-opacity:1"
             id="path4070" /></g><path
           d="m 189.273,220.023 c 2.636,-2.6361 2.636,-6.9099 0,-9.546 -2.6361,-2.636 -6.9099,-2.636 -9.546,0 -2.636,2.6361 -2.636,6.9099 0,9.546 2.6361,2.636 6.9099,2.636 9.546,0"
           style="fill:#ffffff;fill-opacity:1;fill-rule:nonzero;stroke:none"
           id="path4072" /><g
           id="g4074"
           transform="matrix(0.75,0,0,-0.75,-65.25,372.75)"><path
             d="m 339.364,203.636 c 3.5147,3.5148 3.5147,9.2132 0,12.728 -3.5148,3.5147 -9.2132,3.5147 -12.728,0 -3.5147,-3.5148 -3.5147,-9.2132 0,-12.728 3.5148,-3.5147 9.2132,-3.5147 12.728,0"
             style="fill:none;stroke:#000000;stroke-width:1;stroke-linecap:round;stroke-linejoin:round;stroke-miterlimit:10;stroke-dasharray:none;stroke-opacity:1"
             id="path4076" /></g><path
           d="m 223.023,114.273 c 2.636,-2.6361 2.636,-6.9099 0,-9.546 -2.6361,-2.636 -6.9099,-2.636 -9.546,0 -2.636,2.6361 -2.636,6.9099 0,9.546 2.6361,2.636 6.9099,2.636 9.546,0"
           style="fill:#ffffff;fill-opacity:1;fill-rule:nonzero;stroke:none"
           id="path4078" /><g
           id="g4080"
           transform="matrix(0.75,0,0,-0.75,-65.25,372.75)"><path
             d="m 384.364,344.636 c 3.5147,3.5148 3.5147,9.2132 0,12.728 -3.5148,3.5147 -9.2132,3.5147 -12.728,0 -3.5147,-3.5148 -3.5147,-9.2132 0,-12.728 3.5148,-3.5147 9.2132,-3.5147 12.728,0"
             style="fill:none;stroke:#000000;stroke-width:1;stroke-linecap:round;stroke-linejoin:round;stroke-miterlimit:10;stroke-dasharray:none;stroke-opacity:1"
             id="path4082" /></g><path
           d="m 196.023,114.273 c 2.636,-2.6361 2.636,-6.9099 0,-9.546 -2.6361,-2.636 -6.9099,-2.636 -9.546,0 -2.636,2.6361 -2.636,6.9099 0,9.546 2.6361,2.636 6.9099,2.636 9.546,0"
           style="fill:#ffffff;fill-opacity:1;fill-rule:nonzero;stroke:none"
           id="path4084" /><g
           id="g4086"
           transform="matrix(0.75,0,0,-0.75,-65.25,372.75)"><path
             d="m 348.364,344.636 c 3.5147,3.5148 3.5147,9.2132 0,12.728 -3.5148,3.5147 -9.2132,3.5147 -12.728,0 -3.5147,-3.5148 -3.5147,-9.2132 0,-12.728 3.5148,-3.5147 9.2132,-3.5147 12.728,0"
             style="fill:none;stroke:#000000;stroke-width:1;stroke-linecap:round;stroke-linejoin:round;stroke-miterlimit:10;stroke-dasharray:none;stroke-opacity:1"
             id="path4088" /></g><path
           d="m 250.023,114.273 c 2.636,-2.6361 2.636,-6.9099 0,-9.546 -2.6361,-2.636 -6.9099,-2.636 -9.546,0 -2.636,2.6361 -2.636,6.9099 0,9.546 2.6361,2.636 6.9099,2.636 9.546,0"
           style="fill:#ffffff;fill-opacity:1;fill-rule:nonzero;stroke:none"
           id="path4090" /><g
           id="g4092"
           transform="matrix(0.75,0,0,-0.75,-65.25,372.75)"><path
             d="m 420.364,344.636 c 3.5147,3.5148 3.5147,9.2132 0,12.728 -3.5148,3.5147 -9.2132,3.5147 -12.728,0 -3.5147,-3.5148 -3.5147,-9.2132 0,-12.728 3.5148,-3.5147 9.2132,-3.5147 12.728,0"
             style="fill:none;stroke:#000000;stroke-width:1;stroke-linecap:round;stroke-linejoin:round;stroke-miterlimit:10;stroke-dasharray:none;stroke-opacity:1"
             id="path4094" /></g><g
           id="g4096"
           transform="matrix(0.75,0,0,-0.75,-65.25,372.75)"><path
             d="m 325.9289,142.0711 -15.5646,15.5646"
             style="fill:none;stroke:#000000;stroke-width:1;stroke-linecap:round;stroke-linejoin:round;stroke-miterlimit:10;stroke-dasharray:none;stroke-opacity:1"
             id="path4098" /></g><g
           id="g4100"
           transform="matrix(0.75,0,0,-0.75,-65.25,372.75)"><path
             d="m 304.7075,163.2925 5.6568,-5.6568 m 2.1213,2.1213 -7.7781,3.5355 3.5355,-7.7781"
             style="fill:none;stroke:#000000;stroke-width:1;stroke-linecap:butt;stroke-linejoin:miter;stroke-miterlimit:10;stroke-dasharray:none;stroke-opacity:1"
             id="path4102" /></g><g
           id="g4104"
           transform="matrix(0.75,0,0,-0.75,-65.25,372.75)"><path
             d="m 340.8094,141.2475 22.4316,17.9453"
             style="fill:none;stroke:#000000;stroke-width:1;stroke-linecap:round;stroke-linejoin:round;stroke-miterlimit:10;stroke-dasharray:none;stroke-opacity:1"
             id="path4106" /></g><g
           id="g4108"
           transform="matrix(0.75,0,0,-0.75,-65.25,372.75)"><path
             d="m 369.4879,164.1903 -6.2469,-4.9975 m 1.8741,-2.3426 4.3728,7.3401 -8.121,-2.6549"
             style="fill:none;stroke:#000000;stroke-width:1;stroke-linecap:butt;stroke-linejoin:miter;stroke-miterlimit:10;stroke-dasharray:none;stroke-opacity:1"
             id="path4110" /></g><g
           id="g4112"
           transform="matrix(0.75,0,0,-0.75,-65.25,372.75)"><path
             d="m 378,180 v 8.1"
             style="fill:none;stroke:#000000;stroke-width:1;stroke-linecap:round;stroke-linejoin:round;stroke-miterlimit:10;stroke-dasharray:none;stroke-opacity:1"
             id="path4114" /></g><g
           id="g4116"
           transform="matrix(0.75,0,0,-0.75,-65.25,372.75)"><path
             d="m 378,196.1 v -8 m 3,0 -3,8 -3,-8"
             style="fill:none;stroke:#000000;stroke-width:1;stroke-linecap:butt;stroke-linejoin:miter;stroke-miterlimit:10;stroke-dasharray:none;stroke-opacity:1"
             id="path4118" /></g><g
           id="g4120"
           transform="matrix(0.75,0,0,-0.75,-65.25,372.75)"><path
             d="m 378,216 v 8.1"
             style="fill:none;stroke:#000000;stroke-width:1;stroke-linecap:round;stroke-linejoin:round;stroke-miterlimit:10;stroke-dasharray:none;stroke-opacity:1"
             id="path4122" /></g><g
           id="g4124"
           transform="matrix(0.75,0,0,-0.75,-65.25,372.75)"><path
             d="m 378,232.1 v -8 m 3,0 -3,8 -3,-8"
             style="fill:none;stroke:#000000;stroke-width:1;stroke-linecap:butt;stroke-linejoin:miter;stroke-miterlimit:10;stroke-dasharray:none;stroke-opacity:1"
             id="path4126" /></g><g
           id="g4128"
           transform="matrix(0.75,0,0,-0.75,-65.25,372.75)"><path
             d="m 378,252 v 8.1"
             style="fill:none;stroke:#000000;stroke-width:1;stroke-linecap:round;stroke-linejoin:round;stroke-miterlimit:10;stroke-dasharray:none;stroke-opacity:1"
             id="path4130" /></g><g
           id="g4132"
           transform="matrix(0.75,0,0,-0.75,-65.25,372.75)"><path
             d="m 378,268.1 v -8 m 3,0 -3,8 -3,-8"
             style="fill:none;stroke:#000000;stroke-width:1;stroke-linecap:butt;stroke-linejoin:miter;stroke-miterlimit:10;stroke-dasharray:none;stroke-opacity:1"
             id="path4134" /></g><g
           id="g4136"
           transform="matrix(0.75,0,0,-0.75,-65.25,372.75)"><path
             d="m 378,288 v 8.1"
             style="fill:none;stroke:#000000;stroke-width:1;stroke-linecap:round;stroke-linejoin:round;stroke-miterlimit:10;stroke-dasharray:none;stroke-opacity:1"
             id="path4138" /></g><g
           id="g4140"
           transform="matrix(0.75,0,0,-0.75,-65.25,372.75)"><path
             d="m 378,304.1 v -8 m 3,0 -3,8 -3,-8"
             style="fill:none;stroke:#000000;stroke-width:1;stroke-linecap:butt;stroke-linejoin:miter;stroke-miterlimit:10;stroke-dasharray:none;stroke-opacity:1"
             id="path4142" /></g><g
           id="g4144"
           transform="matrix(0.75,0,0,-0.75,-65.25,372.75)"><path
             d="m 371.636,321.364 -16.2717,16.2717"
             style="fill:none;stroke:#000000;stroke-width:1;stroke-linecap:round;stroke-linejoin:round;stroke-miterlimit:10;stroke-dasharray:none;stroke-opacity:1"
             id="path4146" /></g><g
           id="g4148"
           transform="matrix(0.75,0,0,-0.75,-65.25,372.75)"><path
             d="m 349.7075,343.2925 5.6568,-5.6568 m 2.1213,2.1213 -7.7781,3.5355 3.5355,-7.7781"
             style="fill:none;stroke:#000000;stroke-width:1;stroke-linecap:butt;stroke-linejoin:miter;stroke-miterlimit:10;stroke-dasharray:none;stroke-opacity:1"
             id="path4150" /></g><g
           id="g4152"
           transform="matrix(0.75,0,0,-0.75,-65.25,372.75)"><path
             d="m 378,324 v 8.1"
             style="fill:none;stroke:#000000;stroke-width:1;stroke-linecap:round;stroke-linejoin:round;stroke-miterlimit:10;stroke-dasharray:none;stroke-opacity:1"
             id="path4154" /></g><g
           id="g4156"
           transform="matrix(0.75,0,0,-0.75,-65.25,372.75)"><path
             d="m 378,340.1 v -8 m 3,0 -3,8 -3,-8"
             style="fill:none;stroke:#000000;stroke-width:1;stroke-linecap:butt;stroke-linejoin:miter;stroke-miterlimit:10;stroke-dasharray:none;stroke-opacity:1"
             id="path4158" /></g><g
           id="g4160"
           transform="matrix(0.75,0,0,-0.75,-65.25,372.75)"><path
             d="m 384.364,321.364 16.2717,16.2717"
             style="fill:none;stroke:#000000;stroke-width:1;stroke-linecap:round;stroke-linejoin:round;stroke-miterlimit:10;stroke-dasharray:none;stroke-opacity:1"
             id="path4162" /></g><g
           id="g4164"
           transform="matrix(0.75,0,0,-0.75,-65.25,372.75)"><path
             d="m 406.2925,343.2925 -5.6568,-5.6568 m 2.1213,-2.1213 3.5355,7.7781 -7.7781,-3.5355"
             style="fill:none;stroke:#000000;stroke-width:1;stroke-linecap:butt;stroke-linejoin:miter;stroke-miterlimit:10;stroke-dasharray:none;stroke-opacity:1"
             id="path4166" /></g><g
           id="g4168"
           transform="matrix(0.75,0,0,-0.75,-65.25,372.75)"><path
             d="m 290.8954,177.6133 -17.0758,18.4988"
             style="fill:none;stroke:#000000;stroke-width:1;stroke-linecap:round;stroke-linejoin:round;stroke-miterlimit:10;stroke-dasharray:none;stroke-opacity:1"
             id="path4170" /></g><g
           id="g4172"
           transform="matrix(0.75,0,0,-0.75,-65.25,372.75)"><path
             d="m 268.3933,201.9906 5.4263,-5.8785 m 2.2044,2.0349 -7.6307,3.8436 3.2219,-7.9133"
             style="fill:none;stroke:#000000;stroke-width:1;stroke-linecap:butt;stroke-linejoin:miter;stroke-miterlimit:10;stroke-dasharray:none;stroke-opacity:1"
             id="path4174" /></g><g
           id="g4176"
           transform="matrix(0.75,0,0,-0.75,-65.25,372.75)"><path
             d="m 297,180 v 11.1"
             style="fill:none;stroke:#000000;stroke-width:1;stroke-linecap:round;stroke-linejoin:round;stroke-miterlimit:10;stroke-dasharray:none;stroke-opacity:1"
             id="path4178" /></g><g
           id="g4180"
           transform="matrix(0.75,0,0,-0.75,-65.25,372.75)"><path
             d="m 297,199.1 v -8 m 3,0 -3,8 -3,-8"
             style="fill:none;stroke:#000000;stroke-width:1;stroke-linecap:butt;stroke-linejoin:miter;stroke-miterlimit:10;stroke-dasharray:none;stroke-opacity:1"
             id="path4182" /></g><g
           id="g4184"
           transform="matrix(0.75,0,0,-0.75,-65.25,372.75)"><path
             d="m 303.1046,177.6133 17.0758,18.4988"
             style="fill:none;stroke:#000000;stroke-width:1;stroke-linecap:round;stroke-linejoin:round;stroke-miterlimit:10;stroke-dasharray:none;stroke-opacity:1"
             id="path4186" /></g><g
           id="g4188"
           transform="matrix(0.75,0,0,-0.75,-65.25,372.75)"><path
             d="m 325.6067,201.9906 -5.4263,-5.8785 m 2.2044,-2.0348 3.2219,7.9133 -7.6307,-3.8436"
             style="fill:none;stroke:#000000;stroke-width:1;stroke-linecap:butt;stroke-linejoin:miter;stroke-miterlimit:10;stroke-dasharray:none;stroke-opacity:1"
             id="path4190" /></g><path
           d="m 196.023,67.02297 c 2.636,-2.63604 2.636,-6.9099 0,-9.54594 -2.6361,-2.63605 -6.9099,-2.63605 -9.546,0 -2.636,2.63604 -2.636,6.9099 0,9.54594 2.6361,2.63605 6.9099,2.63605 9.546,0"
           style="fill:#ffffff;fill-opacity:1;fill-rule:nonzero;stroke:none"
           id="path4192" /><g
           id="g4194"
           transform="matrix(0.75,0,0,-0.75,-65.25,372.75)"><path
             d="m 348.364,407.636 c 3.5147,3.5148 3.5147,9.2132 0,12.728 -3.5148,3.5147 -9.2132,3.5147 -12.728,0 -3.5147,-3.5148 -3.5147,-9.2132 0,-12.728 3.5148,-3.5147 9.2132,-3.5147 12.728,0"
             style="fill:none;stroke:#000000;stroke-width:1;stroke-linecap:round;stroke-linejoin:round;stroke-miterlimit:10;stroke-dasharray:none;stroke-opacity:1"
             id="path4196" /></g><g
           id="g4198"
           transform="matrix(0.75,0,0,-0.75,-65.25,372.75)"><path
             d="M 216,378 H 495"
             style="fill:none;stroke:#000000;stroke-width:2;stroke-linecap:round;stroke-linejoin:round;stroke-miterlimit:10;stroke-dasharray:8, 8;stroke-dashoffset:0;stroke-opacity:1"
             id="path4200" /></g><g
           id="g4202"
           transform="matrix(0.75,0,0,-0.75,265.5,63)"><text
             transform="translate(-85,5.776001)"
             style="font-variant:normal;font-weight:normal;font-size:16px;font-family:'Helvetica Neue';-inkscape-font-specification:HelveticaNeue;writing-mode:lr-tb;fill:#000000;fill-opacity:1;fill-rule:nonzero;stroke:none"
             id="text4206"><tspan
               x="0 12.128 20.719999 26.336 35.231998 39.375999 55.375999 59.824001"
               y="0"
               id="tspan4204">warn(…, </tspan></text></g><g
           id="g4208"
           transform="matrix(0.75,0,0,-0.75,265.5,63)"><text
             transform="translate(-20.728,5.776001)"
             style="font-variant:normal;font-weight:normal;font-size:16px;font-family:'Helvetica Neue';-inkscape-font-specification:HelveticaNeue;writing-mode:lr-tb;fill:#929000;fill-opacity:1;fill-rule:nonzero;stroke:none"
             id="text4212"><tspan
               x="0 12.128 20.719999 26.336 35.231998 38.784 47.68 56.863998"
               y="0"
               id="tspan4210">warnings</tspan></text></g><g
           id="g4214"
           transform="matrix(0.75,0,0,-0.75,265.5,63)"><text
             transform="translate(44.136,5.776001)"
             style="font-variant:normal;font-weight:normal;font-size:16px;font-family:'Helvetica Neue';-inkscape-font-specification:HelveticaNeue;writing-mode:lr-tb;fill:#000000;fill-opacity:1;fill-rule:nonzero;stroke:none"
             id="text4218"><tspan
               x="0"
               y="0"
               id="tspan4216">)</tspan></text></g><g
           id="g4220"
           transform="matrix(0.75,0,0,-0.75,-65.25,372.75)"><path
             d="M 260.6922,218.9948 C 260.126,243.5653 260.3815,313.1089 279,360 c 12.8179,32.2821 30.9725,45.3486 44.5027,50.594"
             style="fill:none;stroke:#000000;stroke-width:1;stroke-linecap:round;stroke-linejoin:round;stroke-miterlimit:10;stroke-dasharray:none;stroke-opacity:1"
             id="path4222" /></g><g
           id="g4224"
           transform="matrix(0.75,0,0,-0.75,-65.25,372.75)"><path
             d="m 331.1991,412.7929 -7.6922,-2.1977 m 0.8241,-2.8846 6.8681,5.0823 -8.5164,0.6869"
             style="fill:none;stroke:#000000;stroke-width:1;stroke-linecap:butt;stroke-linejoin:miter;stroke-miterlimit:10;stroke-dasharray:none;stroke-opacity:1"
             id="path4226" /></g><g
           id="g4228"
           transform="matrix(0.75,0,0,-0.75,-65.25,372.75)"><path
             d="M 296.6911,218.9947 C 296.153,240.4713 295.9311,296.3543 306,342 c 6.4841,29.3946 15.685,47.5136 23.1618,58.2229"
             style="fill:none;stroke:#000000;stroke-width:1;stroke-linecap:round;stroke-linejoin:round;stroke-miterlimit:10;stroke-dasharray:none;stroke-opacity:1"
             id="path4230" /></g><g
           id="g4232"
           transform="matrix(0.75,0,0,-0.75,-65.25,372.75)"><path
             d="m 334.1331,406.4864 -4.9734,-6.2662 m 2.3498,-1.865 2.6236,8.1312 -7.3232,-4.4011"
             style="fill:none;stroke:#000000;stroke-width:1;stroke-linecap:butt;stroke-linejoin:miter;stroke-miterlimit:10;stroke-dasharray:none;stroke-opacity:1"
             id="path4234" /></g><g
           id="g4236"
           transform="matrix(0.75,0,0,-0.75,-65.25,372.75)"><path
             d="M 329.7833,218.4079 C 324.1095,234.4651 313.0928,271.7705 315,315 c 1.5657,35.49 11.3899,64.7247 18.7395,82.0036"
             style="fill:none;stroke:#000000;stroke-width:1;stroke-linecap:round;stroke-linejoin:round;stroke-miterlimit:10;stroke-dasharray:none;stroke-opacity:1"
             id="path4238" /></g><g
           id="g4240"
           transform="matrix(0.75,0,0,-0.75,-65.25,372.75)"><path
             d="m 337.045,404.2914 -3.3046,-7.2856 m 2.7322,-1.2392 0.5724,8.5248 -6.0367,-6.0464"
             style="fill:none;stroke:#000000;stroke-width:1;stroke-linecap:butt;stroke-linejoin:miter;stroke-miterlimit:10;stroke-dasharray:none;stroke-opacity:1"
             id="path4242" /></g><g
           id="g4244"
           transform="matrix(0.75,0,0,-0.75,-65.25,372.75)"><path
             d="m 342,360 v 35.1"
             style="fill:none;stroke:#000000;stroke-width:1;stroke-linecap:round;stroke-linejoin:round;stroke-miterlimit:10;stroke-dasharray:none;stroke-opacity:1"
             id="path4246" /></g><g
           id="g4248"
           transform="matrix(0.75,0,0,-0.75,-65.25,372.75)"><path
             d="m 342,403.1 v -8 m 3,0 -3,8 -3,-8"
             style="fill:none;stroke:#000000;stroke-width:1;stroke-linecap:butt;stroke-linejoin:miter;stroke-miterlimit:10;stroke-dasharray:none;stroke-opacity:1"
             id="path4250" /></g><g
           id="g4252"
           transform="matrix(0.75,0,0,-0.75,-65.25,372.75)"><path
             d="m 373.5336,358.8161 -22.1555,38.7721"
             style="fill:none;stroke:#000000;stroke-width:1;stroke-linecap:round;stroke-linejoin:round;stroke-miterlimit:10;stroke-dasharray:none;stroke-opacity:1"
             id="path4254" /></g><g
           id="g4256"
           transform="matrix(0.75,0,0,-0.75,-65.25,372.75)"><path
             d="m 347.409,404.5342 3.9691,-6.946 m 2.6048,1.4885 -6.5739,5.4575 1.3644,-8.4344"
             style="fill:none;stroke:#000000;stroke-width:1;stroke-linecap:butt;stroke-linejoin:miter;stroke-miterlimit:10;stroke-dasharray:none;stroke-opacity:1"
             id="path4258" /></g><g
           id="g4260"
           transform="matrix(0.75,0,0,-0.75,-65.25,372.75)"><path
             d="M 407.2266,356.9268 356.2239,401.554"
             style="fill:none;stroke:#000000;stroke-width:1;stroke-linecap:round;stroke-linejoin:round;stroke-miterlimit:10;stroke-dasharray:none;stroke-opacity:1"
             id="path4262" /></g><g
           id="g4264"
           transform="matrix(0.75,0,0,-0.75,-65.25,372.75)"><path
             d="m 350.2033,406.8221 6.0206,-5.2681 m 1.9756,2.2578 -7.9962,3.0103 4.0451,-7.5258"
             style="fill:none;stroke:#000000;stroke-width:1;stroke-linecap:butt;stroke-linejoin:miter;stroke-miterlimit:10;stroke-dasharray:none;stroke-opacity:1"
             id="path4266" /></g><path
           d="M 191.25,28.5 198,21.75 191.25,15 184.5,21.75 Z"
           style="fill:#ffffff;fill-opacity:1;fill-rule:nonzero;stroke:none"
           id="path4268" /><g
           id="g4270"
           transform="matrix(0.75,0,0,-0.75,-65.25,372.75)"><path
             d="m 342,459 9,9 -9,9 -9,-9 z"
             style="fill:none;stroke:#000000;stroke-width:1;stroke-linecap:round;stroke-linejoin:round;stroke-miterlimit:10;stroke-dasharray:none;stroke-opacity:1"
             id="path4272" /></g><path
           d="M 198,33.75 H 333 V 11.25 H 198 Z"
           style="fill:#ffffff;fill-opacity:1;fill-rule:nonzero;stroke:none"
           id="path4274" /><g
           id="g4276"
           transform="matrix(0.75,0,0,-0.75,265.5,22.5)"><text
             transform="translate(-85,5.776001)"
             style="font-variant:normal;font-weight:normal;font-size:16px;font-family:'Helvetica Neue';-inkscape-font-specification:HelveticaNeue;writing-mode:lr-tb;fill:#000000;fill-opacity:1;fill-rule:nonzero;stroke:none"
             id="text4280"><tspan
               x="0 12.128 20.719999 26.336 35.231998 38.784 47.68 56.863998 64.863998 69.311996 73.456001 83.823997 92.416 97.744003 106.336 119.984 128.576 133.616 142.20799 147.536"
               y="0"
               id="tspan4278">warnings (Parameter)</tspan></text></g><g
           id="g4282"
           transform="matrix(0.75,0,0,-0.75,-65.25,372.75)"><path
             d="m 342,423 v 23.1"
             style="fill:none;stroke:#000000;stroke-width:2;stroke-linecap:round;stroke-linejoin:round;stroke-miterlimit:10;stroke-dasharray:none;stroke-opacity:1"
             id="path4284" /></g><path
           d="m 191.25,30.975 2.7,7.2 h -5.4 z"
           style="fill:#000000;fill-opacity:1;fill-rule:nonzero;stroke:none"
           id="path4286" /><g
           id="g4288"
           transform="matrix(0.75,0,0,-0.75,-65.25,372.75)"><path
             d="m 342,455.7 3.6,-9.6 h -7.2 z"
             style="fill:none;stroke:#000000;stroke-width:2;stroke-linecap:butt;stroke-linejoin:miter;stroke-miterlimit:10;stroke-dasharray:none;stroke-opacity:1"
             id="path4290" /></g><g
           id="g4292"
           transform="matrix(0.75,0,0,-0.75,216,46.2207)"><text
             transform="translate(-26.962,4.811455)"
             style="font-variant:normal;font-weight:bold;font-size:13px;font-family:'Helvetica Neue';-inkscape-font-specification:HelveticaNeue-Bold;writing-mode:lr-tb;fill:#000000;fill-opacity:1;fill-rule:nonzero;stroke:none"
             id="text4296"><tspan
               x="0 7.2280002 10.842 14.456 26.493999 31.551001 34.904999 39.480999 46.943001"
               y="0"
               id="tspan4294">2. Writes</tspan></text></g><path
           d="m 98.59584,74.43447 h 54.74996 v -12.75 H 98.59584 Z"
           style="fill:#ffffff;fill-opacity:1;fill-rule:nonzero;stroke:none"
           id="path4298" /><g
           id="g4300"
           transform="matrix(0.75,0,0,-0.75,125.9708,68.05947)"><text
             transform="translate(-31.4275,4.811455)"
             style="font-variant:normal;font-weight:bold;font-size:13px;font-family:'Helvetica Neue';-inkscape-font-specification:HelveticaNeue-Bold;writing-mode:lr-tb;fill:#000000;fill-opacity:1;fill-rule:nonzero;stroke:none"
             id="text4304"><tspan
               x="0 7.2280002 10.842 14.456 24.089001 28.912001 36.374001 43.835999 48.411999 55.874001"
               y="0"
               id="tspan4302">1. Creates</tspan></text></g><path
           d="m 110.6977,53.20237 h 60 v -24.75 h -60 z"
           style="fill:#ffffff;fill-opacity:1;fill-rule:nonzero;stroke:none"
           id="path4306" /><g
           id="g4308"
           transform="matrix(0.75,0,0,-0.75,140.6977,40.82737)"><text
             transform="translate(-26.845,-3.37709)"
             style="font-variant:normal;font-weight:bold;font-size:13px;font-family:'Helvetica Neue';-inkscape-font-specification:HelveticaNeue-Bold;writing-mode:lr-tb;fill:#000000;fill-opacity:1;fill-rule:nonzero;stroke:none"
             id="text4312"><tspan
               x="0 7.2280002 10.842 14.456 23.841999 31.304001 38.765999 46.709"
               y="0"
               id="tspan4310">3. Reads</tspan></text></g><g
           id="g4314"
           transform="matrix(0.75,0,0,-0.75,140.6977,40.82737)"><text
             transform="translate(-34.801,13)"
             style="font-variant:normal;font-weight:bold;font-size:13px;font-family:'Helvetica Neue';-inkscape-font-specification:HelveticaNeue-Bold;writing-mode:lr-tb;fill:#000000;fill-opacity:1;fill-rule:nonzero;stroke:none"
             id="text4318"><tspan
               x="0 7.2280002 10.842 14.456 24.089001 31.551001 38.532001 43.108002 47.931 55.874001 62.620998"
               y="0"
               id="tspan4316">4. Destroys</tspan></text></g></g></g></g></svg>
