<?xml version="1.0" encoding="UTF-8" standalone="no"?>
<svg
   xmlns:dc="http://purl.org/dc/elements/1.1/"
   xmlns:cc="http://creativecommons.org/ns#"
   xmlns:rdf="http://www.w3.org/1999/02/22-rdf-syntax-ns#"
   xmlns:svg="http://www.w3.org/2000/svg"
   xmlns="http://www.w3.org/2000/svg"
   version="1.1"
   id="svg2560"
   xml:space="preserve"
   width="382"
   height="354"
   viewBox="40 15 422 369"><metadata
     id="metadata2566"><rdf:RDF><cc:Work
         rdf:about=""><dc:format>image/svg+xml</dc:format><dc:type
           rdf:resource="http://purl.org/dc/dcmitype/StillImage" /><dc:title></dc:title></cc:Work></rdf:RDF></metadata><defs
     id="defs2564"><clipPath
       clipPathUnits="userSpaceOnUse"
       id="clipPath2578"><path
         d="M 0,0 H 361.5 V 291.75 H 0 Z"
         id="path2576" /></clipPath></defs><g
     id="g2568"
     transform="matrix(1.3333333,0,0,-1.3333333,0,389)"><g
       id="g2570" /><g
       id="g2572"><g
         id="g2574"
         clip-path="url(#clipPath2578)"><path
           d="M 95.25,271.5 H 280.5 c 6.6274,0 12,-5.3726 12,-12 v -246 c 0,-6.627417 -5.3726,-12 -12,-12 H 95.25 c -6.62742,0 -12,5.372583 -12,12 v 246 c 0,6.6274 5.37258,12 12,12 z"
           style="fill:#ffffff;fill-opacity:1;fill-rule:nonzero;stroke:none"
           id="path2580" /><g
           id="g2582"
           transform="matrix(0.75,0,0,-0.75,-78.75,372.75)"><path
             d="m 232,135 h 247 c 8.8366,0 16,7.1634 16,16 v 328 c 0,8.8366 -7.1634,16 -16,16 H 232 c -8.8366,0 -16,-7.1634 -16,-16 V 151 c 0,-8.8366 7.1634,-16 16,-16 z"
             style="fill:none;stroke:#000000;stroke-width:1;stroke-linecap:round;stroke-linejoin:round;stroke-miterlimit:10;stroke-dasharray:none;stroke-opacity:1"
             id="path2584" /></g><g
           id="g2586"
           transform="matrix(0.75,0,0,-0.75,-78.75,372.75)"><path
             d="M 323.5622,138.3127 C 301.5832,147.0372 247.6623,174.561 232,239 c -19.8314,81.5918 -0.1636,119.1232 31,184 18.2888,38.0739 42.3199,46.9578 59.0546,47.7998"
             style="fill:none;stroke:#000000;stroke-width:2;stroke-linecap:round;stroke-linejoin:round;stroke-miterlimit:10;stroke-dasharray:none;stroke-opacity:1"
             id="path2588" /></g><path
           d="m 169.9792,20.13485 -7.3653,2.20946 0.3633,-5.38776 z"
           style="fill:#000000;fill-opacity:1;fill-rule:nonzero;stroke:none"
           id="path2590" /><g
           id="g2592"
           transform="matrix(0.75,0,0,-0.75,-78.75,372.75)"><path
             d="m 331.639,470.1535 -9.8205,-2.9459 0.4845,7.1837 z"
             style="fill:none;stroke:#000000;stroke-width:2;stroke-linecap:butt;stroke-linejoin:miter;stroke-miterlimit:10;stroke-dasharray:none;stroke-opacity:1"
             id="path2594" /></g><path
           d="m 175.773,276.273 c 2.636,-2.6361 2.636,-6.9099 0,-9.546 -2.6361,-2.636 -6.9099,-2.636 -9.546,0 -2.636,2.6361 -2.636,6.9099 0,9.546 2.6361,2.636 6.9099,2.636 9.546,0"
           style="fill:#ffffff;fill-opacity:1;fill-rule:nonzero;stroke:none"
           id="path2596" /><g
           id="g2598"
           transform="matrix(0.75,0,0,-0.75,-78.75,372.75)"><path
             d="m 339.364,128.636 c 3.5147,3.5148 3.5147,9.2132 0,12.728 -3.5148,3.5147 -9.2132,3.5147 -12.728,0 -3.5147,-3.5148 -3.5147,-9.2132 0,-12.728 3.5148,-3.5147 9.2132,-3.5147 12.728,0"
             style="fill:none;stroke:#000000;stroke-width:2;stroke-linecap:round;stroke-linejoin:round;stroke-miterlimit:10;stroke-dasharray:none;stroke-opacity:1"
             id="path2600" /></g><path
           d="m 279.375,272 v 0 16 0 z"
           style="fill:#000000;fill-opacity:1;fill-rule:nonzero;stroke:none"
           id="path2602" /><g
           id="g2604"
           transform="matrix(0.75,0,0,-0.75,248.625,279.75)"><text
             transform="translate(-89.5,5.415527)"
             style="font-variant:normal;font-weight:bold;font-size:16px;font-family:'Helvetica Neue';-inkscape-font-specification:HelveticaNeue-Bold;writing-mode:lr-tb;fill:#000000;fill-opacity:1;fill-rule:nonzero;stroke:none"
             id="text2608"><tspan
               x="0 9.776 18.959999 25.184 33.776001 42.959999 50.959999 60.144001 69.328003 73.456001 82.639999 92.127998 101.904 111.088 117.312 125.312"
               y="0"
               id="tspan2606">parse_calendar_f</tspan></text></g><g
           id="g2610"
           transform="matrix(0.75,0,0,-0.75,248.625,279.75)"><text
             transform="translate(41.14,5.415527)"
             style="font-variant:normal;font-weight:bold;font-size:16px;font-family:'Helvetica Neue';-inkscape-font-specification:HelveticaNeue-Bold;writing-mode:lr-tb;fill:#000000;fill-opacity:1;fill-rule:nonzero;stroke:none"
             id="text2614"><tspan
               x="0 4.1279998 8.2559996 17.440001 22.176001 38.175999"
               y="0"
               id="tspan2612">ile(…)</tspan></text></g><path
           d="m 148.773,249.273 c 2.636,-2.6361 2.636,-6.9099 0,-9.546 -2.6361,-2.636 -6.9099,-2.636 -9.546,0 -2.636,2.6361 -2.636,6.9099 0,9.546 2.6361,2.636 6.9099,2.636 9.546,0"
           style="fill:#ffffff;fill-opacity:1;fill-rule:nonzero;stroke:none"
           id="path2616" /><g
           id="g2618"
           transform="matrix(0.75,0,0,-0.75,-78.75,372.75)"><path
             d="m 303.364,164.636 c 3.5147,3.5148 3.5147,9.2132 0,12.728 -3.5148,3.5147 -9.2132,3.5147 -12.728,0 -3.5147,-3.5148 -3.5147,-9.2132 0,-12.728 3.5148,-3.5147 9.2132,-3.5147 12.728,0"
             style="fill:none;stroke:#000000;stroke-width:1;stroke-linecap:round;stroke-linejoin:round;stroke-miterlimit:10;stroke-dasharray:none;stroke-opacity:1"
             id="path2620" /></g><path
           d="M 0,255 H 135 V 236.25 H 0 Z"
           style="fill:#ffffff;fill-opacity:1;fill-rule:nonzero;stroke:none"
           id="path2622" /><g
           id="g2624"
           transform="matrix(0.75,0,0,-0.75,67.5,245.625)"><text
             transform="translate(-42.56,3.832001)"
             style="font-variant:normal;font-weight:normal;font-size:12px;font-family:'Helvetica Neue';-inkscape-font-specification:HelveticaNeue;writing-mode:lr-tb;fill:#000000;fill-opacity:1;fill-rule:nonzero;stroke:none"
             id="text2628"><tspan
               x="0 7.1160002 13.56 17.556 23.556 30 36 43.116001 49.560001 52.223999 54.888 60.888 66.888 73.332001 80.003998 86.447998 93.564003 100.236 102.9 109.344 112.452 124.452"
               y="0"
               id="tspan2626">parse_bell_schedule(…)</tspan></text></g><path
           d="m 209.523,249.273 c 2.636,-2.6361 2.636,-6.9099 0,-9.546 -2.6361,-2.636 -6.9099,-2.636 -9.546,0 -2.636,2.6361 -2.636,6.9099 0,9.546 2.6361,2.636 6.9099,2.636 9.546,0"
           style="fill:#ffffff;fill-opacity:1;fill-rule:nonzero;stroke:none"
           id="path2630" /><g
           id="g2632"
           transform="matrix(0.75,0,0,-0.75,-78.75,372.75)"><path
             d="m 384.364,164.636 c 3.5147,3.5148 3.5147,9.2132 0,12.728 -3.5148,3.5147 -9.2132,3.5147 -12.728,0 -3.5147,-3.5148 -3.5147,-9.2132 0,-12.728 3.5148,-3.5147 9.2132,-3.5147 12.728,0"
             style="fill:none;stroke:#000000;stroke-width:1;stroke-linecap:round;stroke-linejoin:round;stroke-miterlimit:10;stroke-dasharray:none;stroke-opacity:1"
             id="path2634" /></g><path
           d="M 213,255 H 361.5 V 236.25 H 213 Z"
           style="fill:#ffffff;fill-opacity:1;fill-rule:nonzero;stroke:none"
           id="path2636" /><g
           id="g2638"
           transform="matrix(0.75,0,0,-0.75,287.25,245.625)"><text
             transform="translate(-94,3.832001)"
             style="font-variant:normal;font-weight:normal;font-size:12px;font-family:'Helvetica Neue';-inkscape-font-specification:HelveticaNeue;writing-mode:lr-tb;fill:#000000;fill-opacity:1;fill-rule:nonzero;stroke:none"
             id="text2642"><tspan
               x="0 7.1160002 13.56 17.556 23.556 30 36 42.444 49.116001 53.112 57.108002 59.771999 66.216003 72.888 75.552002 82.223999 92.459999 98.459999 104.904 111.792 118.464 122.244 128.688 135.36 139.14 142.248 154.248"
               y="0"
               id="tspan2640">parse_curriculum_content(…)</tspan></text></g><path
           d="m 209.523,222.273 c 2.636,-2.6361 2.636,-6.9099 0,-9.546 -2.6361,-2.636 -6.9099,-2.636 -9.546,0 -2.636,2.6361 -2.636,6.9099 0,9.546 2.6361,2.636 6.9099,2.636 9.546,0"
           style="fill:#ffffff;fill-opacity:1;fill-rule:nonzero;stroke:none"
           id="path2644" /><g
           id="g2646"
           transform="matrix(0.75,0,0,-0.75,-78.75,372.75)"><path
             d="m 384.364,200.636 c 3.5147,3.5148 3.5147,9.2132 0,12.728 -3.5148,3.5147 -9.2132,3.5147 -12.728,0 -3.5147,-3.5148 -3.5147,-9.2132 0,-12.728 3.5148,-3.5147 9.2132,-3.5147 12.728,0"
             style="fill:none;stroke:#000000;stroke-width:1;stroke-linecap:round;stroke-linejoin:round;stroke-miterlimit:10;stroke-dasharray:none;stroke-opacity:1"
             id="path2648" /></g><g
           id="g2650"
           transform="matrix(0.75,0,0,-0.75,287.25,218.625)"><text
             transform="translate(-94,3.832001)"
             style="font-variant:normal;font-weight:normal;font-size:12px;font-family:'Helvetica Neue';-inkscape-font-specification:HelveticaNeue;writing-mode:lr-tb;fill:#000000;fill-opacity:1;fill-rule:nonzero;stroke:none"
             id="text2654"><tspan
               x="0 7.1160002 13.56 17.556 23.556 30 36 42.672001 49.344002 52.007999 55.787998 58.896 70.896004"
               y="0"
               id="tspan2652">parse_unit(…)</tspan></text></g><path
           d="m 209.523,195.273 c 2.636,-2.6361 2.636,-6.9099 0,-9.546 -2.6361,-2.636 -6.9099,-2.636 -9.546,0 -2.636,2.6361 -2.636,6.9099 0,9.546 2.6361,2.636 6.9099,2.636 9.546,0"
           style="fill:#ffffff;fill-opacity:1;fill-rule:nonzero;stroke:none"
           id="path2656" /><g
           id="g2658"
           transform="matrix(0.75,0,0,-0.75,-78.75,372.75)"><path
             d="m 384.364,236.636 c 3.5147,3.5148 3.5147,9.2132 0,12.728 -3.5148,3.5147 -9.2132,3.5147 -12.728,0 -3.5147,-3.5148 -3.5147,-9.2132 0,-12.728 3.5148,-3.5147 9.2132,-3.5147 12.728,0"
             style="fill:none;stroke:#000000;stroke-width:1;stroke-linecap:round;stroke-linejoin:round;stroke-miterlimit:10;stroke-dasharray:none;stroke-opacity:1"
             id="path2660" /></g><g
           id="g2662"
           transform="matrix(0.75,0,0,-0.75,287.25,191.625)"><text
             transform="translate(-94,3.832001)"
             style="font-variant:normal;font-weight:normal;font-size:12px;font-family:'Helvetica Neue';-inkscape-font-specification:HelveticaNeue;writing-mode:lr-tb;fill:#000000;fill-opacity:1;fill-rule:nonzero;stroke:none"
             id="text2666"><tspan
               x="0 7.1160002 13.56 17.556 23.556 30 36 38.664001 45.108002 51.108002 57.108002 63.995998 70.667999 73.776001 85.776001"
               y="0"
               id="tspan2664">parse_lesson(…)</tspan></text></g><path
           d="m 209.523,168.273 c 2.636,-2.6361 2.636,-6.9099 0,-9.546 -2.6361,-2.636 -6.9099,-2.636 -9.546,0 -2.636,2.6361 -2.636,6.9099 0,9.546 2.6361,2.636 6.9099,2.636 9.546,0"
           style="fill:#ffffff;fill-opacity:1;fill-rule:nonzero;stroke:none"
           id="path2668" /><g
           id="g2670"
           transform="matrix(0.75,0,0,-0.75,-78.75,372.75)"><path
             d="m 384.364,272.636 c 3.5147,3.5148 3.5147,9.2132 0,12.728 -3.5148,3.5147 -9.2132,3.5147 -12.728,0 -3.5147,-3.5148 -3.5147,-9.2132 0,-12.728 3.5148,-3.5147 9.2132,-3.5147 12.728,0"
             style="fill:none;stroke:#000000;stroke-width:1;stroke-linecap:round;stroke-linejoin:round;stroke-miterlimit:10;stroke-dasharray:none;stroke-opacity:1"
             id="path2672" /></g><g
           id="g2674"
           transform="matrix(0.75,0,0,-0.75,287.25,164.625)"><text
             transform="translate(-94,3.832001)"
             style="font-variant:normal;font-weight:normal;font-size:12px;font-family:'Helvetica Neue';-inkscape-font-specification:HelveticaNeue;writing-mode:lr-tb;fill:#000000;fill-opacity:1;fill-rule:nonzero;stroke:none"
             id="text2678"><tspan
               x="0 7.1160002 13.56 17.556 23.556 30 36 43.116001 49.560001 55.560001 58.667999 70.667999"
               y="0"
               id="tspan2676">parse_day(…)</tspan></text></g><path
           d="m 209.523,141.273 c 2.636,-2.6361 2.636,-6.9099 0,-9.546 -2.6361,-2.636 -6.9099,-2.636 -9.546,0 -2.636,2.6361 -2.636,6.9099 0,9.546 2.6361,2.636 6.9099,2.636 9.546,0"
           style="fill:#ffffff;fill-opacity:1;fill-rule:nonzero;stroke:none"
           id="path2680" /><g
           id="g2682"
           transform="matrix(0.75,0,0,-0.75,-78.75,372.75)"><path
             d="m 384.364,308.636 c 3.5147,3.5148 3.5147,9.2132 0,12.728 -3.5148,3.5147 -9.2132,3.5147 -12.728,0 -3.5147,-3.5148 -3.5147,-9.2132 0,-12.728 3.5148,-3.5147 9.2132,-3.5147 12.728,0"
             style="fill:none;stroke:#000000;stroke-width:1;stroke-linecap:round;stroke-linejoin:round;stroke-miterlimit:10;stroke-dasharray:none;stroke-opacity:1"
             id="path2684" /></g><g
           id="g2686"
           transform="matrix(0.75,0,0,-0.75,287.25,137.625)"><text
             transform="translate(-94,3.832001)"
             style="font-variant:normal;font-weight:normal;font-size:12px;font-family:'Helvetica Neue';-inkscape-font-specification:HelveticaNeue;writing-mode:lr-tb;fill:#000000;fill-opacity:1;fill-rule:nonzero;stroke:none"
             id="text2690"><tspan
               x="0 7.1160002 13.56 17.556 23.556 30 36 42.444 48.888 52.667999 55.332001 61.332001 63.995998 67.776001 73.776001 76.884003 88.884003"
               y="0"
               id="tspan2688">parse_activity(…)</tspan></text></g><path
           d="m 121.773,220.023 c 2.636,-2.6361 2.636,-6.9099 0,-9.546 -2.6361,-2.636 -6.9099,-2.636 -9.546,0 -2.636,2.6361 -2.636,6.9099 0,9.546 2.6361,2.636 6.9099,2.636 9.546,0"
           style="fill:#ffffff;fill-opacity:1;fill-rule:nonzero;stroke:none"
           id="path2692" /><g
           id="g2694"
           transform="matrix(0.75,0,0,-0.75,-78.75,372.75)"><path
             d="m 267.364,203.636 c 3.5147,3.5148 3.5147,9.2132 0,12.728 -3.5148,3.5147 -9.2132,3.5147 -12.728,0 -3.5147,-3.5148 -3.5147,-9.2132 0,-12.728 3.5148,-3.5147 9.2132,-3.5147 12.728,0"
             style="fill:none;stroke:#000000;stroke-width:1;stroke-linecap:round;stroke-linejoin:round;stroke-miterlimit:10;stroke-dasharray:none;stroke-opacity:1"
             id="path2696" /></g><path
           d="m 148.773,220.023 c 2.636,-2.6361 2.636,-6.9099 0,-9.546 -2.6361,-2.636 -6.9099,-2.636 -9.546,0 -2.636,2.6361 -2.636,6.9099 0,9.546 2.6361,2.636 6.9099,2.636 9.546,0"
           style="fill:#ffffff;fill-opacity:1;fill-rule:nonzero;stroke:none"
           id="path2698" /><g
           id="g2700"
           transform="matrix(0.75,0,0,-0.75,-78.75,372.75)"><path
             d="m 303.364,203.636 c 3.5147,3.5148 3.5147,9.2132 0,12.728 -3.5148,3.5147 -9.2132,3.5147 -12.728,0 -3.5147,-3.5148 -3.5147,-9.2132 0,-12.728 3.5148,-3.5147 9.2132,-3.5147 12.728,0"
             style="fill:none;stroke:#000000;stroke-width:1;stroke-linecap:round;stroke-linejoin:round;stroke-miterlimit:10;stroke-dasharray:none;stroke-opacity:1"
             id="path2702" /></g><path
           d="m 175.773,220.023 c 2.636,-2.6361 2.636,-6.9099 0,-9.546 -2.6361,-2.636 -6.9099,-2.636 -9.546,0 -2.636,2.6361 -2.636,6.9099 0,9.546 2.6361,2.636 6.9099,2.636 9.546,0"
           style="fill:#ffffff;fill-opacity:1;fill-rule:nonzero;stroke:none"
           id="path2704" /><g
           id="g2706"
           transform="matrix(0.75,0,0,-0.75,-78.75,372.75)"><path
             d="m 339.364,203.636 c 3.5147,3.5148 3.5147,9.2132 0,12.728 -3.5148,3.5147 -9.2132,3.5147 -12.728,0 -3.5147,-3.5148 -3.5147,-9.2132 0,-12.728 3.5148,-3.5147 9.2132,-3.5147 12.728,0"
             style="fill:none;stroke:#000000;stroke-width:1;stroke-linecap:round;stroke-linejoin:round;stroke-miterlimit:10;stroke-dasharray:none;stroke-opacity:1"
             id="path2708" /></g><path
           d="m 209.523,114.273 c 2.636,-2.6361 2.636,-6.9099 0,-9.546 -2.6361,-2.636 -6.9099,-2.636 -9.546,0 -2.636,2.6361 -2.636,6.9099 0,9.546 2.6361,2.636 6.9099,2.636 9.546,0"
           style="fill:#ffffff;fill-opacity:1;fill-rule:nonzero;stroke:none"
           id="path2710" /><g
           id="g2712"
           transform="matrix(0.75,0,0,-0.75,-78.75,372.75)"><path
             d="m 384.364,344.636 c 3.5147,3.5148 3.5147,9.2132 0,12.728 -3.5148,3.5147 -9.2132,3.5147 -12.728,0 -3.5147,-3.5148 -3.5147,-9.2132 0,-12.728 3.5148,-3.5147 9.2132,-3.5147 12.728,0"
             style="fill:none;stroke:#000000;stroke-width:1;stroke-linecap:round;stroke-linejoin:round;stroke-miterlimit:10;stroke-dasharray:none;stroke-opacity:1"
             id="path2714" /></g><path
           d="m 182.523,114.273 c 2.636,-2.6361 2.636,-6.9099 0,-9.546 -2.6361,-2.636 -6.9099,-2.636 -9.546,0 -2.636,2.6361 -2.636,6.9099 0,9.546 2.6361,2.636 6.9099,2.636 9.546,0"
           style="fill:#ffffff;fill-opacity:1;fill-rule:nonzero;stroke:none"
           id="path2716" /><g
           id="g2718"
           transform="matrix(0.75,0,0,-0.75,-78.75,372.75)"><path
             d="m 348.364,344.636 c 3.5147,3.5148 3.5147,9.2132 0,12.728 -3.5148,3.5147 -9.2132,3.5147 -12.728,0 -3.5147,-3.5148 -3.5147,-9.2132 0,-12.728 3.5148,-3.5147 9.2132,-3.5147 12.728,0"
             style="fill:none;stroke:#000000;stroke-width:1;stroke-linecap:round;stroke-linejoin:round;stroke-miterlimit:10;stroke-dasharray:none;stroke-opacity:1"
             id="path2720" /></g><path
           d="m 236.523,114.273 c 2.636,-2.6361 2.636,-6.9099 0,-9.546 -2.6361,-2.636 -6.9099,-2.636 -9.546,0 -2.636,2.6361 -2.636,6.9099 0,9.546 2.6361,2.636 6.9099,2.636 9.546,0"
           style="fill:#ffffff;fill-opacity:1;fill-rule:nonzero;stroke:none"
           id="path2722" /><g
           id="g2724"
           transform="matrix(0.75,0,0,-0.75,-78.75,372.75)"><path
             d="m 420.364,344.636 c 3.5147,3.5148 3.5147,9.2132 0,12.728 -3.5148,3.5147 -9.2132,3.5147 -12.728,0 -3.5147,-3.5148 -3.5147,-9.2132 0,-12.728 3.5148,-3.5147 9.2132,-3.5147 12.728,0"
             style="fill:none;stroke:#000000;stroke-width:1;stroke-linecap:round;stroke-linejoin:round;stroke-miterlimit:10;stroke-dasharray:none;stroke-opacity:1"
             id="path2726" /></g><g
           id="g2728"
           transform="matrix(0.75,0,0,-0.75,-78.75,372.75)"><path
             d="m 325.9289,142.0711 -15.5646,15.5646"
             style="fill:none;stroke:#000000;stroke-width:1;stroke-linecap:round;stroke-linejoin:round;stroke-miterlimit:10;stroke-dasharray:none;stroke-opacity:1"
             id="path2730" /></g><g
           id="g2732"
           transform="matrix(0.75,0,0,-0.75,-78.75,372.75)"><path
             d="m 304.7075,163.2925 5.6568,-5.6568 m 2.1213,2.1213 -7.7781,3.5355 3.5355,-7.7781"
             style="fill:none;stroke:#000000;stroke-width:1;stroke-linecap:butt;stroke-linejoin:miter;stroke-miterlimit:10;stroke-dasharray:none;stroke-opacity:1"
             id="path2734" /></g><g
           id="g2736"
           transform="matrix(0.75,0,0,-0.75,-78.75,372.75)"><path
             d="m 340.8094,141.2475 22.4316,17.9453"
             style="fill:none;stroke:#000000;stroke-width:1;stroke-linecap:round;stroke-linejoin:round;stroke-miterlimit:10;stroke-dasharray:none;stroke-opacity:1"
             id="path2738" /></g><g
           id="g2740"
           transform="matrix(0.75,0,0,-0.75,-78.75,372.75)"><path
             d="m 369.4879,164.1903 -6.2469,-4.9975 m 1.8741,-2.3426 4.3728,7.3401 -8.121,-2.6549"
             style="fill:none;stroke:#000000;stroke-width:1;stroke-linecap:butt;stroke-linejoin:miter;stroke-miterlimit:10;stroke-dasharray:none;stroke-opacity:1"
             id="path2742" /></g><g
           id="g2744"
           transform="matrix(0.75,0,0,-0.75,-78.75,372.75)"><path
             d="m 378,180 v 8.1"
             style="fill:none;stroke:#000000;stroke-width:1;stroke-linecap:round;stroke-linejoin:round;stroke-miterlimit:10;stroke-dasharray:none;stroke-opacity:1"
             id="path2746" /></g><g
           id="g2748"
           transform="matrix(0.75,0,0,-0.75,-78.75,372.75)"><path
             d="m 378,196.1 v -8 m 3,0 -3,8 -3,-8"
             style="fill:none;stroke:#000000;stroke-width:1;stroke-linecap:butt;stroke-linejoin:miter;stroke-miterlimit:10;stroke-dasharray:none;stroke-opacity:1"
             id="path2750" /></g><g
           id="g2752"
           transform="matrix(0.75,0,0,-0.75,-78.75,372.75)"><path
             d="m 378,216 v 8.1"
             style="fill:none;stroke:#000000;stroke-width:1;stroke-linecap:round;stroke-linejoin:round;stroke-miterlimit:10;stroke-dasharray:none;stroke-opacity:1"
             id="path2754" /></g><g
           id="g2756"
           transform="matrix(0.75,0,0,-0.75,-78.75,372.75)"><path
             d="m 378,232.1 v -8 m 3,0 -3,8 -3,-8"
             style="fill:none;stroke:#000000;stroke-width:1;stroke-linecap:butt;stroke-linejoin:miter;stroke-miterlimit:10;stroke-dasharray:none;stroke-opacity:1"
             id="path2758" /></g><g
           id="g2760"
           transform="matrix(0.75,0,0,-0.75,-78.75,372.75)"><path
             d="m 378,252 v 8.1"
             style="fill:none;stroke:#000000;stroke-width:1;stroke-linecap:round;stroke-linejoin:round;stroke-miterlimit:10;stroke-dasharray:none;stroke-opacity:1"
             id="path2762" /></g><g
           id="g2764"
           transform="matrix(0.75,0,0,-0.75,-78.75,372.75)"><path
             d="m 378,268.1 v -8 m 3,0 -3,8 -3,-8"
             style="fill:none;stroke:#000000;stroke-width:1;stroke-linecap:butt;stroke-linejoin:miter;stroke-miterlimit:10;stroke-dasharray:none;stroke-opacity:1"
             id="path2766" /></g><g
           id="g2768"
           transform="matrix(0.75,0,0,-0.75,-78.75,372.75)"><path
             d="m 378,288 v 8.1"
             style="fill:none;stroke:#000000;stroke-width:1;stroke-linecap:round;stroke-linejoin:round;stroke-miterlimit:10;stroke-dasharray:none;stroke-opacity:1"
             id="path2770" /></g><g
           id="g2772"
           transform="matrix(0.75,0,0,-0.75,-78.75,372.75)"><path
             d="m 378,304.1 v -8 m 3,0 -3,8 -3,-8"
             style="fill:none;stroke:#000000;stroke-width:1;stroke-linecap:butt;stroke-linejoin:miter;stroke-miterlimit:10;stroke-dasharray:none;stroke-opacity:1"
             id="path2774" /></g><g
           id="g2776"
           transform="matrix(0.75,0,0,-0.75,-78.75,372.75)"><path
             d="m 371.636,321.364 -16.2717,16.2717"
             style="fill:none;stroke:#000000;stroke-width:1;stroke-linecap:round;stroke-linejoin:round;stroke-miterlimit:10;stroke-dasharray:none;stroke-opacity:1"
             id="path2778" /></g><g
           id="g2780"
           transform="matrix(0.75,0,0,-0.75,-78.75,372.75)"><path
             d="m 349.7075,343.2925 5.6568,-5.6568 m 2.1213,2.1213 -7.7781,3.5355 3.5355,-7.7781"
             style="fill:none;stroke:#000000;stroke-width:1;stroke-linecap:butt;stroke-linejoin:miter;stroke-miterlimit:10;stroke-dasharray:none;stroke-opacity:1"
             id="path2782" /></g><g
           id="g2784"
           transform="matrix(0.75,0,0,-0.75,-78.75,372.75)"><path
             d="m 378,324 v 8.1"
             style="fill:none;stroke:#000000;stroke-width:1;stroke-linecap:round;stroke-linejoin:round;stroke-miterlimit:10;stroke-dasharray:none;stroke-opacity:1"
             id="path2786" /></g><g
           id="g2788"
           transform="matrix(0.75,0,0,-0.75,-78.75,372.75)"><path
             d="m 378,340.1 v -8 m 3,0 -3,8 -3,-8"
             style="fill:none;stroke:#000000;stroke-width:1;stroke-linecap:butt;stroke-linejoin:miter;stroke-miterlimit:10;stroke-dasharray:none;stroke-opacity:1"
             id="path2790" /></g><g
           id="g2792"
           transform="matrix(0.75,0,0,-0.75,-78.75,372.75)"><path
             d="m 384.364,321.364 16.2717,16.2717"
             style="fill:none;stroke:#000000;stroke-width:1;stroke-linecap:round;stroke-linejoin:round;stroke-miterlimit:10;stroke-dasharray:none;stroke-opacity:1"
             id="path2794" /></g><g
           id="g2796"
           transform="matrix(0.75,0,0,-0.75,-78.75,372.75)"><path
             d="m 406.2925,343.2925 -5.6568,-5.6568 m 2.1213,-2.1213 3.5355,7.7781 -7.7781,-3.5355"
             style="fill:none;stroke:#000000;stroke-width:1;stroke-linecap:butt;stroke-linejoin:miter;stroke-miterlimit:10;stroke-dasharray:none;stroke-opacity:1"
             id="path2798" /></g><g
           id="g2800"
           transform="matrix(0.75,0,0,-0.75,-78.75,372.75)"><path
             d="m 290.8954,177.6133 -17.0758,18.4988"
             style="fill:none;stroke:#000000;stroke-width:1;stroke-linecap:round;stroke-linejoin:round;stroke-miterlimit:10;stroke-dasharray:none;stroke-opacity:1"
             id="path2802" /></g><g
           id="g2804"
           transform="matrix(0.75,0,0,-0.75,-78.75,372.75)"><path
             d="m 268.3933,201.9906 5.4263,-5.8785 m 2.2044,2.0349 -7.6307,3.8436 3.2219,-7.9133"
             style="fill:none;stroke:#000000;stroke-width:1;stroke-linecap:butt;stroke-linejoin:miter;stroke-miterlimit:10;stroke-dasharray:none;stroke-opacity:1"
             id="path2806" /></g><g
           id="g2808"
           transform="matrix(0.75,0,0,-0.75,-78.75,372.75)"><path
             d="m 297,180 v 11.1"
             style="fill:none;stroke:#000000;stroke-width:1;stroke-linecap:round;stroke-linejoin:round;stroke-miterlimit:10;stroke-dasharray:none;stroke-opacity:1"
             id="path2810" /></g><g
           id="g2812"
           transform="matrix(0.75,0,0,-0.75,-78.75,372.75)"><path
             d="m 297,199.1 v -8 m 3,0 -3,8 -3,-8"
             style="fill:none;stroke:#000000;stroke-width:1;stroke-linecap:butt;stroke-linejoin:miter;stroke-miterlimit:10;stroke-dasharray:none;stroke-opacity:1"
             id="path2814" /></g><g
           id="g2816"
           transform="matrix(0.75,0,0,-0.75,-78.75,372.75)"><path
             d="m 303.1046,177.6133 17.0758,18.4988"
             style="fill:none;stroke:#000000;stroke-width:1;stroke-linecap:round;stroke-linejoin:round;stroke-miterlimit:10;stroke-dasharray:none;stroke-opacity:1"
             id="path2818" /></g><g
           id="g2820"
           transform="matrix(0.75,0,0,-0.75,-78.75,372.75)"><path
             d="m 325.6067,201.9906 -5.4263,-5.8785 m 2.2044,-2.0348 3.2219,7.9133 -7.6307,-3.8436"
             style="fill:none;stroke:#000000;stroke-width:1;stroke-linecap:butt;stroke-linejoin:miter;stroke-miterlimit:10;stroke-dasharray:none;stroke-opacity:1"
             id="path2822" /></g><path
           d="m 182.523,67.02297 c 2.636,-2.63604 2.636,-6.9099 0,-9.54594 -2.6361,-2.63605 -6.9099,-2.63605 -9.546,0 -2.636,2.63604 -2.636,6.9099 0,9.54594 2.6361,2.63605 6.9099,2.63605 9.546,0"
           style="fill:#ffffff;fill-opacity:1;fill-rule:nonzero;stroke:none"
           id="path2824" /><g
           id="g2826"
           transform="matrix(0.75,0,0,-0.75,-78.75,372.75)"><path
             d="m 348.364,407.636 c 3.5147,3.5148 3.5147,9.2132 0,12.728 -3.5148,3.5147 -9.2132,3.5147 -12.728,0 -3.5147,-3.5148 -3.5147,-9.2132 0,-12.728 3.5148,-3.5147 9.2132,-3.5147 12.728,0"
             style="fill:none;stroke:#000000;stroke-width:1;stroke-linecap:round;stroke-linejoin:round;stroke-miterlimit:10;stroke-dasharray:none;stroke-opacity:1"
             id="path2828" /></g><g
           id="g2830"
           transform="matrix(0.75,0,0,-0.75,-78.75,372.75)"><path
             d="M 216,378 H 495"
             style="fill:none;stroke:#000000;stroke-width:2;stroke-linecap:round;stroke-linejoin:round;stroke-miterlimit:10;stroke-dasharray:8, 8;stroke-dashoffset:0;stroke-opacity:1"
             id="path2832" /></g><g
           id="g2834"
           transform="matrix(0.75,0,0,-0.75,252,63)"><text
             transform="translate(-85,5.776001)"
             style="font-variant:normal;font-weight:normal;font-size:16px;font-family:'Helvetica Neue';-inkscape-font-specification:HelveticaNeue;writing-mode:lr-tb;fill:#000000;fill-opacity:1;fill-rule:nonzero;stroke:none"
             id="text2838"><tspan
               x="0 12.128 20.719999 26.336 35.231998 39.375999 55.375999"
               y="0"
               id="tspan2836">warn(…)</tspan></text></g><g
           id="g2840"
           transform="matrix(0.75,0,0,-0.75,-78.75,372.75)"><path
             d="M 260.6922,218.9948 C 260.126,243.5653 260.3815,313.1089 279,360 c 12.8179,32.2821 30.9725,45.3486 44.5027,50.594"
             style="fill:none;stroke:#000000;stroke-width:1;stroke-linecap:round;stroke-linejoin:round;stroke-miterlimit:10;stroke-dasharray:none;stroke-opacity:1"
             id="path2842" /></g><g
           id="g2844"
           transform="matrix(0.75,0,0,-0.75,-78.75,372.75)"><path
             d="m 331.1991,412.7929 -7.6922,-2.1977 m 0.8241,-2.8846 6.8681,5.0823 -8.5164,0.6869"
             style="fill:none;stroke:#000000;stroke-width:1;stroke-linecap:butt;stroke-linejoin:miter;stroke-miterlimit:10;stroke-dasharray:none;stroke-opacity:1"
             id="path2846" /></g><g
           id="g2848"
           transform="matrix(0.75,0,0,-0.75,-78.75,372.75)"><path
             d="M 296.6911,218.9947 C 296.153,240.4713 295.9311,296.3543 306,342 c 6.4841,29.3946 15.685,47.5136 23.1618,58.2229"
             style="fill:none;stroke:#000000;stroke-width:1;stroke-linecap:round;stroke-linejoin:round;stroke-miterlimit:10;stroke-dasharray:none;stroke-opacity:1"
             id="path2850" /></g><g
           id="g2852"
           transform="matrix(0.75,0,0,-0.75,-78.75,372.75)"><path
             d="m 334.1331,406.4864 -4.9734,-6.2662 m 2.3498,-1.865 2.6236,8.1312 -7.3232,-4.4011"
             style="fill:none;stroke:#000000;stroke-width:1;stroke-linecap:butt;stroke-linejoin:miter;stroke-miterlimit:10;stroke-dasharray:none;stroke-opacity:1"
             id="path2854" /></g><g
           id="g2856"
           transform="matrix(0.75,0,0,-0.75,-78.75,372.75)"><path
             d="M 329.7833,218.4079 C 324.1095,234.4651 313.0928,271.7705 315,315 c 1.5657,35.49 11.3899,64.7247 18.7395,82.0036"
             style="fill:none;stroke:#000000;stroke-width:1;stroke-linecap:round;stroke-linejoin:round;stroke-miterlimit:10;stroke-dasharray:none;stroke-opacity:1"
             id="path2858" /></g><g
           id="g2860"
           transform="matrix(0.75,0,0,-0.75,-78.75,372.75)"><path
             d="m 337.045,404.2914 -3.3046,-7.2856 m 2.7322,-1.2392 0.5724,8.5248 -6.0367,-6.0464"
             style="fill:none;stroke:#000000;stroke-width:1;stroke-linecap:butt;stroke-linejoin:miter;stroke-miterlimit:10;stroke-dasharray:none;stroke-opacity:1"
             id="path2862" /></g><g
           id="g2864"
           transform="matrix(0.75,0,0,-0.75,-78.75,372.75)"><path
             d="m 342,360 v 35.1"
             style="fill:none;stroke:#000000;stroke-width:1;stroke-linecap:round;stroke-linejoin:round;stroke-miterlimit:10;stroke-dasharray:none;stroke-opacity:1"
             id="path2866" /></g><g
           id="g2868"
           transform="matrix(0.75,0,0,-0.75,-78.75,372.75)"><path
             d="m 342,403.1 v -8 m 3,0 -3,8 -3,-8"
             style="fill:none;stroke:#000000;stroke-width:1;stroke-linecap:butt;stroke-linejoin:miter;stroke-miterlimit:10;stroke-dasharray:none;stroke-opacity:1"
             id="path2870" /></g><g
           id="g2872"
           transform="matrix(0.75,0,0,-0.75,-78.75,372.75)"><path
             d="m 373.5336,358.8161 -22.1555,38.7721"
             style="fill:none;stroke:#000000;stroke-width:1;stroke-linecap:round;stroke-linejoin:round;stroke-miterlimit:10;stroke-dasharray:none;stroke-opacity:1"
             id="path2874" /></g><g
           id="g2876"
           transform="matrix(0.75,0,0,-0.75,-78.75,372.75)"><path
             d="m 347.409,404.5342 3.9691,-6.946 m 2.6048,1.4885 -6.5739,5.4575 1.3644,-8.4344"
             style="fill:none;stroke:#000000;stroke-width:1;stroke-linecap:butt;stroke-linejoin:miter;stroke-miterlimit:10;stroke-dasharray:none;stroke-opacity:1"
             id="path2878" /></g><g
           id="g2880"
           transform="matrix(0.75,0,0,-0.75,-78.75,372.75)"><path
             d="M 407.2266,356.9268 356.2239,401.554"
             style="fill:none;stroke:#000000;stroke-width:1;stroke-linecap:round;stroke-linejoin:round;stroke-miterlimit:10;stroke-dasharray:none;stroke-opacity:1"
             id="path2882" /></g><g
           id="g2884"
           transform="matrix(0.75,0,0,-0.75,-78.75,372.75)"><path
             d="m 350.2033,406.8221 6.0206,-5.2681 m 1.9756,2.2578 -7.9962,3.0103 4.0451,-7.5258"
             style="fill:none;stroke:#000000;stroke-width:1;stroke-linecap:butt;stroke-linejoin:miter;stroke-miterlimit:10;stroke-dasharray:none;stroke-opacity:1"
             id="path2886" /></g><path
           d="M 177.75,28.5 184.5,21.75 177.75,15 171,21.75 Z"
           style="fill:#ffffff;fill-opacity:1;fill-rule:nonzero;stroke:none"
           id="path2888" /><g
           id="g2890"
           transform="matrix(0.75,0,0,-0.75,-78.75,372.75)"><path
             d="m 342,459 9,9 -9,9 -9,-9 z"
             style="fill:none;stroke:#000000;stroke-width:1;stroke-linecap:round;stroke-linejoin:round;stroke-miterlimit:10;stroke-dasharray:none;stroke-opacity:1"
             id="path2892" /></g><g
           id="g2894"
           transform="matrix(0.75,0,0,-0.75,252,22.5)"><text
             transform="translate(-85,5.776001)"
             style="font-variant:normal;font-weight:normal;font-size:16px;font-family:'Helvetica Neue';-inkscape-font-specification:HelveticaNeue;writing-mode:lr-tb;fill:#000000;fill-opacity:1;fill-rule:nonzero;stroke:none"
             id="text2898"><tspan
               x="0 12.128 20.719999 26.336 35.231998 38.784 47.68 56.863998 64.863998 69.311996 73.456001 85.599998 89.152 98.335999 107.824 116.416 119.968"
               y="0"
               id="tspan2896">warnings (Global)</tspan></text></g><g
           id="g2900"
           transform="matrix(0.75,0,0,-0.75,-78.75,372.75)"><path
             d="m 342,423 v 23.1"
             style="fill:none;stroke:#000000;stroke-width:2;stroke-linecap:round;stroke-linejoin:round;stroke-miterlimit:10;stroke-dasharray:none;stroke-opacity:1"
             id="path2902" /></g><path
           d="m 177.75,30.975 2.7,7.2 h -5.4 z"
           style="fill:#000000;fill-opacity:1;fill-rule:nonzero;stroke:none"
           id="path2904" /><g
           id="g2906"
           transform="matrix(0.75,0,0,-0.75,-78.75,372.75)"><path
             d="m 342,455.7 3.6,-9.6 h -7.2 z"
             style="fill:none;stroke:#000000;stroke-width:2;stroke-linecap:butt;stroke-linejoin:miter;stroke-miterlimit:10;stroke-dasharray:none;stroke-opacity:1"
             id="path2908" /></g><g
           id="g2910"
           transform="matrix(0.75,0,0,-0.75,202.5,46.2207)"><text
             transform="translate(-26.962,4.811455)"
             style="font-variant:normal;font-weight:bold;font-size:13px;font-family:'Helvetica Neue';-inkscape-font-specification:HelveticaNeue-Bold;writing-mode:lr-tb;fill:#000000;fill-opacity:1;fill-rule:nonzero;stroke:none"
             id="text2914"><tspan
               x="0 7.2280002 10.842 14.456 26.493999 31.551001 34.904999 39.480999 46.943001"
               y="0"
               id="tspan2912">2. Writes</tspan></text></g><path
           d="m 85.09584,74.43447 h 54.74996 v -12.75 H 85.09584 Z"
           style="fill:#ffffff;fill-opacity:1;fill-rule:nonzero;stroke:none"
           id="path2916" /><g
           id="g2918"
           transform="matrix(0.75,0,0,-0.75,112.4708,68.05947)"><text
             transform="translate(-31.4275,4.811455)"
             style="font-variant:normal;font-weight:bold;font-size:13px;font-family:'Helvetica Neue';-inkscape-font-specification:HelveticaNeue-Bold;writing-mode:lr-tb;fill:#000000;fill-opacity:1;fill-rule:nonzero;stroke:none"
             id="text2922"><tspan
               x="0 7.2280002 10.842 14.456 24.089001 28.912001 36.374001 43.835999 48.411999 55.874001"
               y="0"
               id="tspan2920">1. Creates</tspan></text></g><path
           d="m 97.19769,53.20237 h 60.00001 v -24.75 H 97.19769 Z"
           style="fill:#ffffff;fill-opacity:1;fill-rule:nonzero;stroke:none"
           id="path2924" /><g
           id="g2926"
           transform="matrix(0.75,0,0,-0.75,127.1977,40.82737)"><text
             transform="translate(-26.845,-3.37709)"
             style="font-variant:normal;font-weight:bold;font-size:13px;font-family:'Helvetica Neue';-inkscape-font-specification:HelveticaNeue-Bold;writing-mode:lr-tb;fill:#000000;fill-opacity:1;fill-rule:nonzero;stroke:none"
             id="text2930"><tspan
               x="0 7.2280002 10.842 14.456 23.841999 31.304001 38.765999 46.709"
               y="0"
               id="tspan2928">3. Reads</tspan></text></g><g
           id="g2932"
           transform="matrix(0.75,0,0,-0.75,127.1977,40.82737)"><text
             transform="translate(-34.801,13)"
             style="font-variant:normal;font-weight:bold;font-size:13px;font-family:'Helvetica Neue';-inkscape-font-specification:HelveticaNeue-Bold;writing-mode:lr-tb;fill:#000000;fill-opacity:1;fill-rule:nonzero;stroke:none"
             id="text2936"><tspan
               x="0 7.2280002 10.842 14.456 24.089001 31.551001 38.532001 43.108002 47.931 55.874001 62.620998"
               y="0"
               id="tspan2934">4. Destroys</tspan></text></g></g></g></g></svg>
