<?xml version="1.0" encoding="UTF-8" standalone="no"?>
<svg
   xmlns:dc="http://purl.org/dc/elements/1.1/"
   xmlns:cc="http://creativecommons.org/ns#"
   xmlns:rdf="http://www.w3.org/1999/02/22-rdf-syntax-ns#"
   xmlns:svg="http://www.w3.org/2000/svg"
   xmlns="http://www.w3.org/2000/svg"
   version="1.1"
   id="svg326"
   xml:space="preserve"
   width="667"
   height="260"
   viewBox="0 0 667 260"><metadata
     id="metadata332"><rdf:RDF><cc:Work
         rdf:about=""><dc:format>image/svg+xml</dc:format><dc:type
           rdf:resource="http://purl.org/dc/dcmitype/StillImage" /><dc:title></dc:title></cc:Work></rdf:RDF></metadata><defs
     id="defs330"><clipPath
       clipPathUnits="userSpaceOnUse"
       id="clipPath344"><path
         d="M 0,0 H 500.25 V 195 H 0 Z"
         id="path342" /></clipPath></defs><g
     id="g334"
     transform="matrix(1.3333333,0,0,-1.3333333,0,260)"><g
       id="g336" /><g
       id="g338"><g
         id="g340"
         clip-path="url(#clipPath344)"><path
           d="M 369,151.5 H 497.25 V 104.25 H 369 Z"
           style="fill:#ffffff;fill-opacity:1;fill-rule:nonzero;stroke:none"
           id="path346" /><g
           id="g348"
           transform="matrix(0.75,0,0,-0.75,-29.25,232.5)"><path
             d="m 531,108 h 171 v 63 H 531 Z"
             style="fill:none;stroke:#000000;stroke-width:5;stroke-linecap:round;stroke-linejoin:round;stroke-miterlimit:10;stroke-dasharray:none;stroke-opacity:1"
             id="path350" /></g><g
           id="g352"
           transform="matrix(0.75,0,0,-0.75,433.125,127.875)"><text
             transform="translate(-65.632,-3.447998)"
             style="font-variant:normal;font-weight:normal;font-size:16px;font-family:'Helvetica Neue';-inkscape-font-specification:HelveticaNeue;writing-mode:lr-tb;fill:#000000;fill-opacity:1;fill-rule:nonzero;stroke:none"
             id="text356"><tspan
               x="0 11.264 14.816 23.408001 32.304001 41.487999 50.672001 55.119999 65.487999 75.856003 80 84.447998 92.447998 101.04 106.368 114.368 122.96 126.816"
               y="0"
               id="tspan354">Django API server,</tspan></text></g><g
           id="g358"
           transform="matrix(0.75,0,0,-0.75,433.125,127.875)"><text
             transform="translate(-64.168,15)"
             style="font-variant:normal;font-weight:normal;font-size:16px;font-family:'Helvetica Neue';-inkscape-font-specification:HelveticaNeue;writing-mode:lr-tb;fill:#000000;fill-opacity:1;fill-rule:nonzero;stroke:none"
             id="text362"><tspan
               x="0 8.8959999 18.08 26.08 31.120001 34.672001 43.568001 52.751999 57.200001 65.792 74.688004 84.176003 93.664001 102.848 106.4 115.296 120.336"
               y="0"
               id="tspan360">hosting endpoints</tspan></text></g><path
           d="M 18,151.5 H 146.25 V 104.25 H 18 Z"
           style="fill:#ffffff;fill-opacity:1;fill-rule:nonzero;stroke:none"
           id="path364" /><g
           id="g366"
           transform="matrix(0.75,0,0,-0.75,-29.25,232.5)"><path
             d="m 63,108 h 171 v 63 H 63 Z"
             style="fill:none;stroke:#000000;stroke-width:5;stroke-linecap:round;stroke-linejoin:round;stroke-miterlimit:10;stroke-dasharray:none;stroke-opacity:1"
             id="path368" /></g><g
           id="g370"
           transform="matrix(0.75,0,0,-0.75,82.125,127.875)"><text
             transform="translate(-60.76,-3.447998)"
             style="font-variant:normal;font-weight:normal;font-size:16px;font-family:'Helvetica Neue';-inkscape-font-specification:HelveticaNeue;writing-mode:lr-tb;fill:#000000;fill-opacity:1;fill-rule:nonzero;stroke:none"
             id="text374"><tspan
               x="0 11.264 14.816 23.408001 32.304001 41.487999 50.672001 55.119999 64.608002 73.199997 81.792 90.096001 98.688004 107.584 117.072"
               y="0"
               id="tspan372">Django backend,</tspan></text></g><g
           id="g376"
           transform="matrix(0.75,0,0,-0.75,82.125,127.875)"><text
             transform="translate(-73.496,15)"
             style="font-variant:normal;font-weight:normal;font-size:16px;font-family:'Helvetica Neue';-inkscape-font-specification:HelveticaNeue;writing-mode:lr-tb;fill:#000000;fill-opacity:1;fill-rule:nonzero;stroke:none"
             id="text380"><tspan
               x="0 8 16.591999 21.92 29.92 33.472 42.368 51.551998 56 65.183998 74.080002 82.671997 87.120003 91.856003 96.896004 106.08 114.976 120.016 128.608 137.504"
               y="0"
               id="tspan378">serving Vue frontend</tspan></text></g><path
           d="M 18,63.75 H 146.25 V 16.5 H 18 Z"
           style="fill:#ffffff;fill-opacity:1;fill-rule:nonzero;stroke:none"
           id="path382" /><g
           id="g384"
           transform="matrix(0.75,0,0,-0.75,-29.25,232.5)"><path
             d="m 63,225 h 171 v 63 H 63 Z"
             style="fill:none;stroke:#000000;stroke-width:1;stroke-linecap:round;stroke-linejoin:round;stroke-miterlimit:10;stroke-dasharray:none;stroke-opacity:1"
             id="path386" /></g><g
           id="g388"
           transform="matrix(0.75,0,0,-0.75,82.125,40.125)"><text
             transform="translate(-45.496,5.776001)"
             style="font-variant:normal;font-weight:normal;font-size:16px;font-family:'Helvetica Neue';-inkscape-font-specification:HelveticaNeue;writing-mode:lr-tb;fill:#000000;fill-opacity:1;fill-rule:nonzero;stroke:none"
             id="text392"><tspan
               x="0 9.184 18.08 26.672001 31.120001 35.855999 40.896 50.080002 58.976002 64.015999 72.608002 81.503998"
               y="0"
               id="tspan390">Vue frontend</tspan></text></g><path
           d="m 118.773,109.023 c 2.636,-2.6361 2.636,-6.9099 0,-9.54597 -2.6361,-2.63605 -6.9099,-2.63605 -9.546,0 -2.636,2.63607 -2.636,6.90987 0,9.54597 2.6361,2.636 6.9099,2.636 9.546,0"
           style="fill:#ffffff;fill-opacity:1;fill-rule:nonzero;stroke:none"
           id="path394" /><g
           id="g396"
           transform="matrix(0.75,0,0,-0.75,-29.25,232.5)"><path
             d="m 197.364,164.636 c 3.5147,3.5148 3.5147,9.2132 0,12.728 -3.5148,3.5147 -9.2132,3.5147 -12.728,0 -3.5147,-3.5148 -3.5147,-9.2132 0,-12.728 3.5148,-3.5147 9.2132,-3.5147 12.728,0"
             style="fill:none;stroke:#000000;stroke-width:1;stroke-linecap:round;stroke-linejoin:round;stroke-miterlimit:10;stroke-dasharray:none;stroke-opacity:1"
             id="path398" /></g><path
           d="m 43.3125,111 h 23.625 V 72.75 H 78.75 L 55.125,57 31.5,72.75 h 11.8125 z"
           style="fill:#ffffff;fill-opacity:1;fill-rule:nonzero;stroke:none"
           id="path400" /><g
           id="g402"
           transform="matrix(0.75,0,0,-0.75,-29.25,232.5)"><path
             d="m 96.75,162 h 31.5 v 51 H 144 L 112.5,234 81,213 h 15.75 z"
             style="fill:none;stroke:#000000;stroke-width:1;stroke-linecap:round;stroke-linejoin:round;stroke-miterlimit:10;stroke-dasharray:none;stroke-opacity:1"
             id="path404" /></g><g
           id="g406"
           transform="matrix(0.75,0,0,-0.75,19.125,87.375)"><text
             transform="translate(-20.44,5.776001)"
             style="font-variant:normal;font-weight:normal;font-size:16px;font-family:'Helvetica Neue';-inkscape-font-specification:HelveticaNeue;writing-mode:lr-tb;fill:#000000;fill-opacity:1;fill-rule:nonzero;stroke:none"
             id="text410"><tspan
               x="0 10.368 18.959999 24.288 32.287998"
               y="0"
               id="tspan408">Serve</tspan></text></g><g
           id="g412"
           transform="matrix(0.75,0,0,-0.75,-29.25,232.5)"><path
             d="m 191.25,225 -0.144,-31.1002"
             style="fill:none;stroke:#000000;stroke-width:1;stroke-linecap:round;stroke-linejoin:round;stroke-miterlimit:10;stroke-dasharray:none;stroke-opacity:1"
             id="path414" /></g><g
           id="g416"
           transform="matrix(0.75,0,0,-0.75,-29.25,232.5)"><path
             d="m 191.0505,181.8999 0.0555,11.9999 m -4.4999,0.0208 4.4444,-12.0207 4.5555,11.979"
             style="fill:none;stroke:#000000;stroke-width:1;stroke-linecap:butt;stroke-linejoin:miter;stroke-miterlimit:10;stroke-dasharray:none;stroke-opacity:1"
             id="path418" /></g><g
           id="g420"
           transform="matrix(0.75,0,0,-0.75,148.5,84)"><text
             transform="translate(-15.4,-3.447998)"
             style="font-variant:normal;font-weight:normal;font-size:16px;font-family:'Helvetica Neue';-inkscape-font-specification:HelveticaNeue;writing-mode:lr-tb;fill:#000000;fill-opacity:1;fill-rule:nonzero;stroke:none"
             id="text424"><tspan
               x="0 10.368 13.92 22.511999 30.799999"
               y="0"
               id="tspan422">Ajax </tspan></text></g><g
           id="g426"
           transform="matrix(0.75,0,0,-0.75,148.5,84)"><text
             transform="translate(-35.568,15)"
             style="font-variant:normal;font-weight:normal;font-size:16px;font-family:'Helvetica Neue';-inkscape-font-specification:HelveticaNeue;writing-mode:lr-tb;fill:#000000;fill-opacity:1;fill-rule:nonzero;stroke:none"
             id="text430"><tspan
               x="0 8.592 17.488001 26.976 36.464001 45.647999 49.200001 58.096001 63.136002"
               y="0"
               id="tspan428">endpoints</tspan></text></g><g
           id="g432"
           transform="matrix(0.75,0,0,-0.75,82.125,179.625)"><path
             d="M -44.22,12.66667 H 43.22"
             style="fill:none;stroke:#000000;stroke-width:1.33333;stroke-linecap:butt;stroke-linejoin:miter;stroke-miterlimit:10;stroke-dasharray:none;stroke-opacity:1"
             id="path434" /></g><g
           id="g436"
           transform="matrix(0.75,0,0,-0.75,82.125,179.625)"><text
             transform="translate(-44.22,8.664001)"
             style="font-variant:normal;font-weight:normal;font-size:24px;font-family:'Helvetica Neue';-inkscape-font-specification:HelveticaNeue;writing-mode:lr-tb;fill:#000000;fill-opacity:1;fill-rule:nonzero;stroke:none"
             id="text440"><tspan
               x="0 13.344 22.68 34.68 47.568001 55.560001 67.559998 80.447998"
               y="0"
               id="tspan438">1-server</tspan></text></g><path
           d="M 225,151.5 H 353.25 V 104.25 H 225 Z"
           style="fill:#ffffff;fill-opacity:1;fill-rule:nonzero;stroke:none"
           id="path442" /><g
           id="g444"
           transform="matrix(0.75,0,0,-0.75,-29.25,232.5)"><path
             d="m 339,108 h 171 v 63 H 339 Z"
             style="fill:none;stroke:#000000;stroke-width:5;stroke-linecap:round;stroke-linejoin:round;stroke-miterlimit:10;stroke-dasharray:none;stroke-opacity:1"
             id="path446" /></g><g
           id="g448"
           transform="matrix(0.75,0,0,-0.75,289.125,127.875)"><text
             transform="translate(-77.2,-3.447998)"
             style="font-variant:normal;font-weight:normal;font-size:16px;font-family:'Helvetica Neue';-inkscape-font-specification:HelveticaNeue;writing-mode:lr-tb;fill:#000000;fill-opacity:1;fill-rule:nonzero;stroke:none"
             id="text452"><tspan
               x="0 11.552 20.736 30.224001 38.816002 43.264 48 53.040001 62.223999 71.120003 76.160004 84.751999 93.648003 103.136 107.584 115.584 124.176 129.504 137.504 146.09599 149.952"
               y="0"
               id="tspan450">Node frontend server,</tspan></text></g><g
           id="g454"
           transform="matrix(0.75,0,0,-0.75,289.125,127.875)"><text
             transform="translate(-73.496,15)"
             style="font-variant:normal;font-weight:normal;font-size:16px;font-family:'Helvetica Neue';-inkscape-font-specification:HelveticaNeue;writing-mode:lr-tb;fill:#000000;fill-opacity:1;fill-rule:nonzero;stroke:none"
             id="text458"><tspan
               x="0 8 16.591999 21.92 29.92 33.472 42.368 51.551998 56 65.183998 74.080002 82.671997 87.120003 91.856003 96.896004 106.08 114.976 120.016 128.608 137.504"
               y="0"
               id="tspan456">serving Vue frontend</tspan></text></g><path
           d="M 225,63.75 H 353.25 V 16.5 H 225 Z"
           style="fill:#ffffff;fill-opacity:1;fill-rule:nonzero;stroke:none"
           id="path460" /><g
           id="g462"
           transform="matrix(0.75,0,0,-0.75,-29.25,232.5)"><path
             d="m 339,225 h 171 v 63 H 339 Z"
             style="fill:none;stroke:#000000;stroke-width:1;stroke-linecap:round;stroke-linejoin:round;stroke-miterlimit:10;stroke-dasharray:none;stroke-opacity:1"
             id="path464" /></g><g
           id="g466"
           transform="matrix(0.75,0,0,-0.75,289.125,40.125)"><text
             transform="translate(-45.496,5.776001)"
             style="font-variant:normal;font-weight:normal;font-size:16px;font-family:'Helvetica Neue';-inkscape-font-specification:HelveticaNeue;writing-mode:lr-tb;fill:#000000;fill-opacity:1;fill-rule:nonzero;stroke:none"
             id="text470"><tspan
               x="0 9.184 18.08 26.672001 31.120001 35.855999 40.896 50.080002 58.976002 64.015999 72.608002 81.503998"
               y="0"
               id="tspan468">Vue frontend</tspan></text></g><path
           d="m 433.773,109.023 c 2.636,-2.6361 2.636,-6.9099 0,-9.54597 -2.6361,-2.63605 -6.9099,-2.63605 -9.546,0 -2.636,2.63607 -2.636,6.90987 0,9.54597 2.6361,2.636 6.9099,2.636 9.546,0"
           style="fill:#ffffff;fill-opacity:1;fill-rule:nonzero;stroke:none"
           id="path472" /><g
           id="g474"
           transform="matrix(0.75,0,0,-0.75,-29.25,232.5)"><path
             d="m 617.364,164.636 c 3.5147,3.5148 3.5147,9.2132 0,12.728 -3.5148,3.5147 -9.2132,3.5147 -12.728,0 -3.5147,-3.5148 -3.5147,-9.2132 0,-12.728 3.5148,-3.5147 9.2132,-3.5147 12.728,0"
             style="fill:none;stroke:#000000;stroke-width:1;stroke-linecap:round;stroke-linejoin:round;stroke-miterlimit:10;stroke-dasharray:none;stroke-opacity:1"
             id="path476" /></g><path
           d="m 278.1562,111 h 23.0626 V 72.75 H 312.75 L 289.6875,57 266.625,72.75 h 11.5312 z"
           style="fill:#ffffff;fill-opacity:1;fill-rule:nonzero;stroke:none"
           id="path478" /><g
           id="g480"
           transform="matrix(0.75,0,0,-0.75,-29.25,232.5)"><path
             d="m 409.875,162 h 30.75 v 51 H 456 l -30.75,21 -30.75,-21 h 15.375 z"
             style="fill:none;stroke:#000000;stroke-width:1;stroke-linecap:round;stroke-linejoin:round;stroke-miterlimit:10;stroke-dasharray:none;stroke-opacity:1"
             id="path482" /></g><g
           id="g484"
           transform="matrix(0.75,0,0,-0.75,253.125,87.375)"><text
             transform="translate(-20.44,5.776001)"
             style="font-variant:normal;font-weight:normal;font-size:16px;font-family:'Helvetica Neue';-inkscape-font-specification:HelveticaNeue;writing-mode:lr-tb;fill:#000000;fill-opacity:1;fill-rule:nonzero;stroke:none"
             id="text488"><tspan
               x="0 10.368 18.959999 24.288 32.287998"
               y="0"
               id="tspan486">Serve</tspan></text></g><g
           id="g490"
           transform="matrix(0.75,0,0,-0.75,-29.25,232.5)"><path
             d="m 510,256.5 h 15.9 85.1 v -76.5 15.9 -2"
             style="fill:none;stroke:#000000;stroke-width:1;stroke-linecap:round;stroke-linejoin:round;stroke-miterlimit:10;stroke-dasharray:none;stroke-opacity:1"
             id="path492" /></g><g
           id="g494"
           transform="matrix(0.75,0,0,-0.75,-29.25,232.5)"><path
             d="m 611,181.9 v 12 m -4.5,0 4.5,-12 4.5,12"
             style="fill:none;stroke:#000000;stroke-width:1;stroke-linecap:butt;stroke-linejoin:miter;stroke-miterlimit:10;stroke-dasharray:none;stroke-opacity:1"
             id="path496" /></g><g
           id="g498"
           transform="matrix(0.75,0,0,-0.75,463.5,84)"><text
             transform="translate(-15.4,-3.447998)"
             style="font-variant:normal;font-weight:normal;font-size:16px;font-family:'Helvetica Neue';-inkscape-font-specification:HelveticaNeue;writing-mode:lr-tb;fill:#000000;fill-opacity:1;fill-rule:nonzero;stroke:none"
             id="text502"><tspan
               x="0 10.368 13.92 22.511999 30.799999"
               y="0"
               id="tspan500">Ajax </tspan></text></g><g
           id="g504"
           transform="matrix(0.75,0,0,-0.75,463.5,84)"><text
             transform="translate(-35.568,15)"
             style="font-variant:normal;font-weight:normal;font-size:16px;font-family:'Helvetica Neue';-inkscape-font-specification:HelveticaNeue;writing-mode:lr-tb;fill:#000000;fill-opacity:1;fill-rule:nonzero;stroke:none"
             id="text508"><tspan
               x="0 8.592 17.488001 26.976 36.464001 45.647999 49.200001 58.096001 63.136002"
               y="0"
               id="tspan506">endpoints</tspan></text></g><g
           id="g510"
           transform="matrix(0.75,0,0,-0.75,361.125,179.625)"><path
             d="M -50.22,12.66667 H 49.22"
             style="fill:none;stroke:#000000;stroke-width:1.33333;stroke-linecap:butt;stroke-linejoin:miter;stroke-miterlimit:10;stroke-dasharray:none;stroke-opacity:1"
             id="path512" /></g><g
           id="g514"
           transform="matrix(0.75,0,0,-0.75,361.125,179.625)"><text
             transform="translate(-50.22,8.664001)"
             style="font-variant:normal;font-weight:normal;font-size:24px;font-family:'Helvetica Neue';-inkscape-font-specification:HelveticaNeue;writing-mode:lr-tb;fill:#000000;fill-opacity:1;fill-rule:nonzero;stroke:none"
             id="text518"><tspan
               x="0 13.344 22.68 34.68 47.568001 55.560001 67.559998 80.447998 88.440002"
               y="0"
               id="tspan516">2-servers</tspan></text></g><g
           id="g520"
           transform="matrix(0.75,0,0,-0.75,-29.25,232.5)"><path
             d="M 288,54 V 306"
             style="fill:none;stroke:#000000;stroke-width:3;stroke-linecap:round;stroke-linejoin:round;stroke-miterlimit:10;stroke-dasharray:12, 12;stroke-dashoffset:0;stroke-opacity:1"
             id="path522" /></g></g></g></g></svg>
