<?xml version="1.0" encoding="UTF-8" standalone="no"?>
<svg
   xmlns:dc="http://purl.org/dc/elements/1.1/"
   xmlns:cc="http://creativecommons.org/ns#"
   xmlns:rdf="http://www.w3.org/1999/02/22-rdf-syntax-ns#"
   xmlns:svg="http://www.w3.org/2000/svg"
   xmlns="http://www.w3.org/2000/svg"
   version="1.1"
   id="svg566"
   xml:space="preserve"
   width="256"
   height="293"
   viewBox="0 0 256 293"><metadata
     id="metadata572"><rdf:RDF><cc:Work
         rdf:about=""><dc:format>image/svg+xml</dc:format><dc:type
           rdf:resource="http://purl.org/dc/dcmitype/StillImage" /><dc:title></dc:title></cc:Work></rdf:RDF></metadata><defs
     id="defs570"><clipPath
       clipPathUnits="userSpaceOnUse"
       id="clipPath584"><path
         d="M 0,0 H 192 V 219.75 H 0 Z"
         id="path582" /></clipPath></defs><g
     id="g574"
     transform="matrix(1.3333333,0,0,-1.3333333,0,293)"><g
       id="g576" /><g
       id="g578"><g
         id="g580"
         clip-path="url(#clipPath584)"><path
           d="m 18.78445,187.5344 c 3.95407,-3.954 3.95407,-10.3648 0,-14.3188 -3.95406,-3.9541 -10.364843,-3.9541 -14.318898,0 -3.954076,3.954 -3.954076,10.3648 0,14.3188 3.954055,3.9541 10.364838,3.9541 14.318898,0"
           style="fill:#ffffff;fill-opacity:1;fill-rule:nonzero;stroke:none"
           id="path586" /><g
           id="g588"
           transform="matrix(0.75,0,0,-0.75,-12,224.25)"><path
             d="m 41.04593,48.95407 c 5.2721,5.27207 5.2721,13.81979 0,19.09186 -5.27207,5.2721 -13.81979,5.2721 -19.09186,0 -5.2721,-5.27207 -5.2721,-13.81979 0,-19.09186 5.27207,-5.2721 13.81979,-5.2721 19.09186,0"
             style="fill:none;stroke:#000000;stroke-width:1;stroke-linecap:round;stroke-linejoin:round;stroke-miterlimit:10;stroke-dasharray:none;stroke-opacity:1"
             id="path590" /></g><path
           d="m 18.78445,153.7844 c 3.95407,-3.954 3.95407,-10.3648 0,-14.3188 -3.95406,-3.9541 -10.364843,-3.9541 -14.318898,0 -3.954076,3.954 -3.954076,10.3648 0,14.3188 3.954055,3.9541 10.364838,3.9541 14.318898,0"
           style="fill:#ffffff;fill-opacity:1;fill-rule:nonzero;stroke:none"
           id="path592" /><g
           id="g594"
           transform="matrix(0.75,0,0,-0.75,-12,224.25)"><path
             d="m 41.04593,93.95407 c 5.2721,5.27207 5.2721,13.81983 0,19.09183 -5.27207,5.2721 -13.81979,5.2721 -19.09186,0 -5.2721,-5.272 -5.2721,-13.81976 0,-19.09183 5.27207,-5.2721 13.81979,-5.2721 19.09186,0"
             style="fill:none;stroke:#000000;stroke-width:1;stroke-linecap:round;stroke-linejoin:round;stroke-miterlimit:10;stroke-dasharray:none;stroke-opacity:1"
             id="path596" /></g><path
           d="m 18.78445,120.0344 c 3.95407,-3.954 3.95407,-10.3648 0,-14.3188 -3.95406,-3.9541 -10.364843,-3.9541 -14.318898,0 -3.954076,3.954 -3.954076,10.3648 0,14.3188 3.954055,3.9541 10.364838,3.9541 14.318898,0"
           style="fill:#ffffff;fill-opacity:1;fill-rule:nonzero;stroke:none"
           id="path598" /><g
           id="g600"
           transform="matrix(0.75,0,0,-0.75,-12,224.25)"><path
             d="m 41.04593,138.9541 c 5.2721,5.272 5.2721,13.8198 0,19.0918 -5.27207,5.2721 -13.81979,5.2721 -19.09186,0 -5.2721,-5.272 -5.2721,-13.8198 0,-19.0918 5.27207,-5.2721 13.81979,-5.2721 19.09186,0"
             style="fill:none;stroke:#000000;stroke-width:1;stroke-linecap:round;stroke-linejoin:round;stroke-miterlimit:10;stroke-dasharray:none;stroke-opacity:1"
             id="path602" /></g><path
           d="m 18.78445,86.28445 c 3.95407,-3.95406 3.95407,-10.36484 0,-14.3189 -3.95406,-3.95407 -10.364843,-3.95407 -14.318898,0 -3.954076,3.95406 -3.954076,10.36484 0,14.3189 3.954055,3.95407 10.364838,3.95407 14.318898,0"
           style="fill:#ffffff;fill-opacity:1;fill-rule:nonzero;stroke:none"
           id="path604" /><g
           id="g606"
           transform="matrix(0.75,0,0,-0.75,-12,224.25)"><path
             d="m 41.04593,183.9541 c 5.2721,5.272 5.2721,13.8198 0,19.0918 -5.27207,5.2721 -13.81979,5.2721 -19.09186,0 -5.2721,-5.272 -5.2721,-13.8198 0,-19.0918 5.27207,-5.2721 13.81979,-5.2721 19.09186,0"
             style="fill:none;stroke:#000000;stroke-width:1;stroke-linecap:round;stroke-linejoin:round;stroke-miterlimit:10;stroke-dasharray:none;stroke-opacity:1"
             id="path608" /></g><path
           d="m 18.78445,52.53445 c 3.95407,-3.95406 3.95407,-10.36484 0,-14.3189 -3.95406,-3.95407 -10.364843,-3.95407 -14.318898,0 -3.954076,3.95406 -3.954076,10.36484 0,14.3189 3.954055,3.95407 10.364838,3.95407 14.318898,0"
           style="fill:#ffffff;fill-opacity:1;fill-rule:nonzero;stroke:none"
           id="path610" /><g
           id="g612"
           transform="matrix(0.75,0,0,-0.75,-12,224.25)"><path
             d="m 41.04593,228.9541 c 5.2721,5.272 5.2721,13.8198 0,19.0918 -5.27207,5.2721 -13.81979,5.2721 -19.09186,0 -5.2721,-5.272 -5.2721,-13.8198 0,-19.0918 5.27207,-5.2721 13.81979,-5.2721 19.09186,0"
             style="fill:none;stroke:#000000;stroke-width:1;stroke-linecap:round;stroke-linejoin:round;stroke-miterlimit:10;stroke-dasharray:none;stroke-opacity:1"
             id="path614" /></g><path
           d="m 18.78445,18.78445 c 3.95407,-3.95406 3.95407,-10.364843 0,-14.318898 -3.95406,-3.954076 -10.364843,-3.954076 -14.318898,0 -3.954076,3.954055 -3.954076,10.364838 0,14.318898 3.954055,3.95407 10.364838,3.95407 14.318898,0"
           style="fill:#ffffff;fill-opacity:1;fill-rule:nonzero;stroke:none"
           id="path616" /><g
           id="g618"
           transform="matrix(0.75,0,0,-0.75,-12,224.25)"><path
             d="m 41.04593,273.9541 c 5.2721,5.272 5.2721,13.8198 0,19.0918 -5.27207,5.2721 -13.81979,5.2721 -19.09186,0 -5.2721,-5.272 -5.2721,-13.8198 0,-19.0918 5.27207,-5.2721 13.81979,-5.2721 19.09186,0"
             style="fill:none;stroke:#000000;stroke-width:1;stroke-linecap:round;stroke-linejoin:round;stroke-miterlimit:10;stroke-dasharray:none;stroke-opacity:1"
             id="path620" /></g><path
           d="m 52.53445,187.5344 c 3.95407,-3.954 3.95407,-10.3648 0,-14.3188 -3.95406,-3.9541 -10.36484,-3.9541 -14.3189,0 -3.95407,3.954 -3.95407,10.3648 0,14.3188 3.95406,3.9541 10.36484,3.9541 14.3189,0"
           style="fill:#ffffff;fill-opacity:1;fill-rule:nonzero;stroke:none"
           id="path622" /><g
           id="g624"
           transform="matrix(0.75,0,0,-0.75,-12,224.25)"><path
             d="m 86.04593,48.95407 c 5.2721,5.27207 5.2721,13.81979 0,19.09186 -5.27207,5.2721 -13.81979,5.2721 -19.09186,0 -5.2721,-5.27207 -5.2721,-13.81979 0,-19.09186 5.27207,-5.2721 13.81979,-5.2721 19.09186,0"
             style="fill:none;stroke:#000000;stroke-width:1;stroke-linecap:round;stroke-linejoin:round;stroke-miterlimit:10;stroke-dasharray:none;stroke-opacity:1"
             id="path626" /></g><path
           d="m 52.53445,153.7844 c 3.95407,-3.954 3.95407,-10.3648 0,-14.3188 -3.95406,-3.9541 -10.36484,-3.9541 -14.3189,0 -3.95407,3.954 -3.95407,10.3648 0,14.3188 3.95406,3.9541 10.36484,3.9541 14.3189,0"
           style="fill:#ffffff;fill-opacity:1;fill-rule:nonzero;stroke:none"
           id="path628" /><g
           id="g630"
           transform="matrix(0.75,0,0,-0.75,-12,224.25)"><path
             d="m 86.04593,93.95407 c 5.2721,5.27207 5.2721,13.81983 0,19.09183 -5.27207,5.2721 -13.81979,5.2721 -19.09186,0 -5.2721,-5.272 -5.2721,-13.81976 0,-19.09183 5.27207,-5.2721 13.81979,-5.2721 19.09186,0"
             style="fill:none;stroke:#000000;stroke-width:1;stroke-linecap:round;stroke-linejoin:round;stroke-miterlimit:10;stroke-dasharray:none;stroke-opacity:1"
             id="path632" /></g><path
           d="m 52.53445,120.0344 c 3.95407,-3.954 3.95407,-10.3648 0,-14.3188 -3.95406,-3.9541 -10.36484,-3.9541 -14.3189,0 -3.95407,3.954 -3.95407,10.3648 0,14.3188 3.95406,3.9541 10.36484,3.9541 14.3189,0"
           style="fill:#ffffff;fill-opacity:1;fill-rule:nonzero;stroke:none"
           id="path634" /><g
           id="g636"
           transform="matrix(0.75,0,0,-0.75,-12,224.25)"><path
             d="m 86.04593,138.9541 c 5.2721,5.272 5.2721,13.8198 0,19.0918 -5.27207,5.2721 -13.81979,5.2721 -19.09186,0 -5.2721,-5.272 -5.2721,-13.8198 0,-19.0918 5.27207,-5.2721 13.81979,-5.2721 19.09186,0"
             style="fill:none;stroke:#000000;stroke-width:1;stroke-linecap:round;stroke-linejoin:round;stroke-miterlimit:10;stroke-dasharray:none;stroke-opacity:1"
             id="path638" /></g><path
           d="m 52.53445,86.28445 c 3.95407,-3.95406 3.95407,-10.36484 0,-14.3189 -3.95406,-3.95407 -10.36484,-3.95407 -14.3189,0 -3.95407,3.95406 -3.95407,10.36484 0,14.3189 3.95406,3.95407 10.36484,3.95407 14.3189,0"
           style="fill:#ffffff;fill-opacity:1;fill-rule:nonzero;stroke:none"
           id="path640" /><g
           id="g642"
           transform="matrix(0.75,0,0,-0.75,-12,224.25)"><path
             d="m 86.04593,183.9541 c 5.2721,5.272 5.2721,13.8198 0,19.0918 -5.27207,5.2721 -13.81979,5.2721 -19.09186,0 -5.2721,-5.272 -5.2721,-13.8198 0,-19.0918 5.27207,-5.2721 13.81979,-5.2721 19.09186,0"
             style="fill:none;stroke:#000000;stroke-width:1;stroke-linecap:round;stroke-linejoin:round;stroke-miterlimit:10;stroke-dasharray:none;stroke-opacity:1"
             id="path644" /></g><path
           d="m 52.53445,52.53445 c 3.95407,-3.95406 3.95407,-10.36484 0,-14.3189 -3.95406,-3.95407 -10.36484,-3.95407 -14.3189,0 -3.95407,3.95406 -3.95407,10.36484 0,14.3189 3.95406,3.95407 10.36484,3.95407 14.3189,0"
           style="fill:#ffffff;fill-opacity:1;fill-rule:nonzero;stroke:none"
           id="path646" /><g
           id="g648"
           transform="matrix(0.75,0,0,-0.75,-12,224.25)"><path
             d="m 86.04593,228.9541 c 5.2721,5.272 5.2721,13.8198 0,19.0918 -5.27207,5.2721 -13.81979,5.2721 -19.09186,0 -5.2721,-5.272 -5.2721,-13.8198 0,-19.0918 5.27207,-5.2721 13.81979,-5.2721 19.09186,0"
             style="fill:none;stroke:#000000;stroke-width:1;stroke-linecap:round;stroke-linejoin:round;stroke-miterlimit:10;stroke-dasharray:none;stroke-opacity:1"
             id="path650" /></g><path
           d="m 52.53445,18.78445 c 3.95407,-3.95406 3.95407,-10.364843 0,-14.318898 -3.95406,-3.954076 -10.36484,-3.954076 -14.3189,0 -3.95407,3.954055 -3.95407,10.364838 0,14.318898 3.95406,3.95407 10.36484,3.95407 14.3189,0"
           style="fill:#ffffff;fill-opacity:1;fill-rule:nonzero;stroke:none"
           id="path652" /><g
           id="g654"
           transform="matrix(0.75,0,0,-0.75,-12,224.25)"><path
             d="m 86.04593,273.9541 c 5.2721,5.272 5.2721,13.8198 0,19.0918 -5.27207,5.2721 -13.81979,5.2721 -19.09186,0 -5.2721,-5.272 -5.2721,-13.8198 0,-19.0918 5.27207,-5.2721 13.81979,-5.2721 19.09186,0"
             style="fill:none;stroke:#000000;stroke-width:1;stroke-linecap:round;stroke-linejoin:round;stroke-miterlimit:10;stroke-dasharray:none;stroke-opacity:1"
             id="path656" /></g><path
           d="m 86.28445,187.5344 c 3.95407,-3.954 3.95407,-10.3648 0,-14.3188 -3.95406,-3.9541 -10.36484,-3.9541 -14.3189,0 -3.95407,3.954 -3.95407,10.3648 0,14.3188 3.95406,3.9541 10.36484,3.9541 14.3189,0"
           style="fill:#ffffff;fill-opacity:1;fill-rule:nonzero;stroke:none"
           id="path658" /><g
           id="g660"
           transform="matrix(0.75,0,0,-0.75,-12,224.25)"><path
             d="m 131.0459,48.95407 c 5.2721,5.27207 5.2721,13.81979 0,19.09186 -5.272,5.2721 -13.8198,5.2721 -19.0918,0 -5.2721,-5.27207 -5.2721,-13.81979 0,-19.09186 5.272,-5.2721 13.8198,-5.2721 19.0918,0"
             style="fill:none;stroke:#000000;stroke-width:1;stroke-linecap:round;stroke-linejoin:round;stroke-miterlimit:10;stroke-dasharray:none;stroke-opacity:1"
             id="path662" /></g><path
           d="m 86.28445,153.7844 c 3.95407,-3.954 3.95407,-10.3648 0,-14.3188 -3.95406,-3.9541 -10.36484,-3.9541 -14.3189,0 -3.95407,3.954 -3.95407,10.3648 0,14.3188 3.95406,3.9541 10.36484,3.9541 14.3189,0"
           style="fill:#ffffff;fill-opacity:1;fill-rule:nonzero;stroke:none"
           id="path664" /><g
           id="g666"
           transform="matrix(0.75,0,0,-0.75,-12,224.25)"><path
             d="m 131.0459,93.95407 c 5.2721,5.27207 5.2721,13.81983 0,19.09183 -5.272,5.2721 -13.8198,5.2721 -19.0918,0 -5.2721,-5.272 -5.2721,-13.81976 0,-19.09183 5.272,-5.2721 13.8198,-5.2721 19.0918,0"
             style="fill:none;stroke:#000000;stroke-width:1;stroke-linecap:round;stroke-linejoin:round;stroke-miterlimit:10;stroke-dasharray:none;stroke-opacity:1"
             id="path668" /></g><path
           d="m 86.28445,120.0344 c 3.95407,-3.954 3.95407,-10.3648 0,-14.3188 -3.95406,-3.9541 -10.36484,-3.9541 -14.3189,0 -3.95407,3.954 -3.95407,10.3648 0,14.3188 3.95406,3.9541 10.36484,3.9541 14.3189,0"
           style="fill:#ffffff;fill-opacity:1;fill-rule:nonzero;stroke:none"
           id="path670" /><g
           id="g672"
           transform="matrix(0.75,0,0,-0.75,-12,224.25)"><path
             d="m 131.0459,138.9541 c 5.2721,5.272 5.2721,13.8198 0,19.0918 -5.272,5.2721 -13.8198,5.2721 -19.0918,0 -5.2721,-5.272 -5.2721,-13.8198 0,-19.0918 5.272,-5.2721 13.8198,-5.2721 19.0918,0"
             style="fill:none;stroke:#000000;stroke-width:1;stroke-linecap:round;stroke-linejoin:round;stroke-miterlimit:10;stroke-dasharray:none;stroke-opacity:1"
             id="path674" /></g><path
           d="m 86.28445,86.28445 c 3.95407,-3.95406 3.95407,-10.36484 0,-14.3189 -3.95406,-3.95407 -10.36484,-3.95407 -14.3189,0 -3.95407,3.95406 -3.95407,10.36484 0,14.3189 3.95406,3.95407 10.36484,3.95407 14.3189,0"
           style="fill:#ffffff;fill-opacity:1;fill-rule:nonzero;stroke:none"
           id="path676" /><g
           id="g678"
           transform="matrix(0.75,0,0,-0.75,-12,224.25)"><path
             d="m 131.0459,183.9541 c 5.2721,5.272 5.2721,13.8198 0,19.0918 -5.272,5.2721 -13.8198,5.2721 -19.0918,0 -5.2721,-5.272 -5.2721,-13.8198 0,-19.0918 5.272,-5.2721 13.8198,-5.2721 19.0918,0"
             style="fill:none;stroke:#000000;stroke-width:1;stroke-linecap:round;stroke-linejoin:round;stroke-miterlimit:10;stroke-dasharray:none;stroke-opacity:1"
             id="path680" /></g><path
           d="m 86.28445,52.53445 c 3.95407,-3.95406 3.95407,-10.36484 0,-14.3189 -3.95406,-3.95407 -10.36484,-3.95407 -14.3189,0 -3.95407,3.95406 -3.95407,10.36484 0,14.3189 3.95406,3.95407 10.36484,3.95407 14.3189,0"
           style="fill:#ffffff;fill-opacity:1;fill-rule:nonzero;stroke:none"
           id="path682" /><g
           id="g684"
           transform="matrix(0.75,0,0,-0.75,-12,224.25)"><path
             d="m 131.0459,228.9541 c 5.2721,5.272 5.2721,13.8198 0,19.0918 -5.272,5.2721 -13.8198,5.2721 -19.0918,0 -5.2721,-5.272 -5.2721,-13.8198 0,-19.0918 5.272,-5.2721 13.8198,-5.2721 19.0918,0"
             style="fill:none;stroke:#000000;stroke-width:1;stroke-linecap:round;stroke-linejoin:round;stroke-miterlimit:10;stroke-dasharray:none;stroke-opacity:1"
             id="path686" /></g><path
           d="m 86.28445,18.78445 c 3.95407,-3.95406 3.95407,-10.364843 0,-14.318898 -3.95406,-3.954076 -10.36484,-3.954076 -14.3189,0 -3.95407,3.954055 -3.95407,10.364838 0,14.318898 3.95406,3.95407 10.36484,3.95407 14.3189,0"
           style="fill:#ffffff;fill-opacity:1;fill-rule:nonzero;stroke:none"
           id="path688" /><g
           id="g690"
           transform="matrix(0.75,0,0,-0.75,-12,224.25)"><path
             d="m 131.0459,273.9541 c 5.2721,5.272 5.2721,13.8198 0,19.0918 -5.272,5.2721 -13.8198,5.2721 -19.0918,0 -5.2721,-5.272 -5.2721,-13.8198 0,-19.0918 5.272,-5.2721 13.8198,-5.2721 19.0918,0"
             style="fill:none;stroke:#000000;stroke-width:1;stroke-linecap:round;stroke-linejoin:round;stroke-miterlimit:10;stroke-dasharray:none;stroke-opacity:1"
             id="path692" /></g><path
           d="m 120.0344,187.5344 c 3.9541,-3.954 3.9541,-10.3648 0,-14.3188 -3.954,-3.9541 -10.3648,-3.9541 -14.3188,0 -3.9541,3.954 -3.9541,10.3648 0,14.3188 3.954,3.9541 10.3648,3.9541 14.3188,0"
           style="fill:#ffffff;fill-opacity:1;fill-rule:nonzero;stroke:none"
           id="path694" /><g
           id="g696"
           transform="matrix(0.75,0,0,-0.75,-12,224.25)"><path
             d="m 176.0459,48.95407 c 5.2721,5.27207 5.2721,13.81979 0,19.09186 -5.272,5.2721 -13.8198,5.2721 -19.0918,0 -5.2721,-5.27207 -5.2721,-13.81979 0,-19.09186 5.272,-5.2721 13.8198,-5.2721 19.0918,0"
             style="fill:none;stroke:#000000;stroke-width:1;stroke-linecap:round;stroke-linejoin:round;stroke-miterlimit:10;stroke-dasharray:none;stroke-opacity:1"
             id="path698" /></g><path
           d="m 120.0344,153.7844 c 3.9541,-3.954 3.9541,-10.3648 0,-14.3188 -3.954,-3.9541 -10.3648,-3.9541 -14.3188,0 -3.9541,3.954 -3.9541,10.3648 0,14.3188 3.954,3.9541 10.3648,3.9541 14.3188,0"
           style="fill:#ffffff;fill-opacity:1;fill-rule:nonzero;stroke:none"
           id="path700" /><g
           id="g702"
           transform="matrix(0.75,0,0,-0.75,-12,224.25)"><path
             d="m 176.0459,93.95407 c 5.2721,5.27207 5.2721,13.81983 0,19.09183 -5.272,5.2721 -13.8198,5.2721 -19.0918,0 -5.2721,-5.272 -5.2721,-13.81976 0,-19.09183 5.272,-5.2721 13.8198,-5.2721 19.0918,0"
             style="fill:none;stroke:#000000;stroke-width:1;stroke-linecap:round;stroke-linejoin:round;stroke-miterlimit:10;stroke-dasharray:none;stroke-opacity:1"
             id="path704" /></g><path
           d="m 120.0344,120.0344 c 3.9541,-3.954 3.9541,-10.3648 0,-14.3188 -3.954,-3.9541 -10.3648,-3.9541 -14.3188,0 -3.9541,3.954 -3.9541,10.3648 0,14.3188 3.954,3.9541 10.3648,3.9541 14.3188,0"
           style="fill:#ffffff;fill-opacity:1;fill-rule:nonzero;stroke:none"
           id="path706" /><g
           id="g708"
           transform="matrix(0.75,0,0,-0.75,-12,224.25)"><path
             d="m 176.0459,138.9541 c 5.2721,5.272 5.2721,13.8198 0,19.0918 -5.272,5.2721 -13.8198,5.2721 -19.0918,0 -5.2721,-5.272 -5.2721,-13.8198 0,-19.0918 5.272,-5.2721 13.8198,-5.2721 19.0918,0"
             style="fill:none;stroke:#000000;stroke-width:1;stroke-linecap:round;stroke-linejoin:round;stroke-miterlimit:10;stroke-dasharray:none;stroke-opacity:1"
             id="path710" /></g><path
           d="m 120.0344,86.28445 c 3.9541,-3.95406 3.9541,-10.36484 0,-14.3189 -3.954,-3.95407 -10.3648,-3.95407 -14.3188,0 -3.9541,3.95406 -3.9541,10.36484 0,14.3189 3.954,3.95407 10.3648,3.95407 14.3188,0"
           style="fill:#ffffff;fill-opacity:1;fill-rule:nonzero;stroke:none"
           id="path712" /><g
           id="g714"
           transform="matrix(0.75,0,0,-0.75,-12,224.25)"><path
             d="m 176.0459,183.9541 c 5.2721,5.272 5.2721,13.8198 0,19.0918 -5.272,5.2721 -13.8198,5.2721 -19.0918,0 -5.2721,-5.272 -5.2721,-13.8198 0,-19.0918 5.272,-5.2721 13.8198,-5.2721 19.0918,0"
             style="fill:none;stroke:#000000;stroke-width:1;stroke-linecap:round;stroke-linejoin:round;stroke-miterlimit:10;stroke-dasharray:none;stroke-opacity:1"
             id="path716" /></g><path
           d="m 120.0344,52.53445 c 3.9541,-3.95406 3.9541,-10.36484 0,-14.3189 -3.954,-3.95407 -10.3648,-3.95407 -14.3188,0 -3.9541,3.95406 -3.9541,10.36484 0,14.3189 3.954,3.95407 10.3648,3.95407 14.3188,0"
           style="fill:#ffffff;fill-opacity:1;fill-rule:nonzero;stroke:none"
           id="path718" /><g
           id="g720"
           transform="matrix(0.75,0,0,-0.75,-12,224.25)"><path
             d="m 176.0459,228.9541 c 5.2721,5.272 5.2721,13.8198 0,19.0918 -5.272,5.2721 -13.8198,5.2721 -19.0918,0 -5.2721,-5.272 -5.2721,-13.8198 0,-19.0918 5.272,-5.2721 13.8198,-5.2721 19.0918,0"
             style="fill:none;stroke:#000000;stroke-width:1;stroke-linecap:round;stroke-linejoin:round;stroke-miterlimit:10;stroke-dasharray:none;stroke-opacity:1"
             id="path722" /></g><path
           d="m 120.0344,18.78445 c 3.9541,-3.95406 3.9541,-10.364843 0,-14.318898 -3.954,-3.954076 -10.3648,-3.954076 -14.3188,0 -3.9541,3.954055 -3.9541,10.364838 0,14.318898 3.954,3.95407 10.3648,3.95407 14.3188,0"
           style="fill:#ffffff;fill-opacity:1;fill-rule:nonzero;stroke:none"
           id="path724" /><g
           id="g726"
           transform="matrix(0.75,0,0,-0.75,-12,224.25)"><path
             d="m 176.0459,273.9541 c 5.2721,5.272 5.2721,13.8198 0,19.0918 -5.272,5.2721 -13.8198,5.2721 -19.0918,0 -5.2721,-5.272 -5.2721,-13.8198 0,-19.0918 5.272,-5.2721 13.8198,-5.2721 19.0918,0"
             style="fill:none;stroke:#000000;stroke-width:1;stroke-linecap:round;stroke-linejoin:round;stroke-miterlimit:10;stroke-dasharray:none;stroke-opacity:1"
             id="path728" /></g><path
           d="m 153.7844,187.5344 c 3.9541,-3.954 3.9541,-10.3648 0,-14.3188 -3.954,-3.9541 -10.3648,-3.9541 -14.3188,0 -3.9541,3.954 -3.9541,10.3648 0,14.3188 3.954,3.9541 10.3648,3.9541 14.3188,0"
           style="fill:#ffffff;fill-opacity:1;fill-rule:nonzero;stroke:none"
           id="path730" /><g
           id="g732"
           transform="matrix(0.75,0,0,-0.75,-12,224.25)"><path
             d="m 221.0459,48.95407 c 5.2721,5.27207 5.2721,13.81979 0,19.09186 -5.272,5.2721 -13.8198,5.2721 -19.0918,0 -5.2721,-5.27207 -5.2721,-13.81979 0,-19.09186 5.272,-5.2721 13.8198,-5.2721 19.0918,0"
             style="fill:none;stroke:#000000;stroke-width:1;stroke-linecap:round;stroke-linejoin:round;stroke-miterlimit:10;stroke-dasharray:none;stroke-opacity:1"
             id="path734" /></g><path
           d="m 153.7844,153.7844 c 3.9541,-3.954 3.9541,-10.3648 0,-14.3188 -3.954,-3.9541 -10.3648,-3.9541 -14.3188,0 -3.9541,3.954 -3.9541,10.3648 0,14.3188 3.954,3.9541 10.3648,3.9541 14.3188,0"
           style="fill:#ffffff;fill-opacity:1;fill-rule:nonzero;stroke:none"
           id="path736" /><g
           id="g738"
           transform="matrix(0.75,0,0,-0.75,-12,224.25)"><path
             d="m 221.0459,93.95407 c 5.2721,5.27207 5.2721,13.81983 0,19.09183 -5.272,5.2721 -13.8198,5.2721 -19.0918,0 -5.2721,-5.272 -5.2721,-13.81976 0,-19.09183 5.272,-5.2721 13.8198,-5.2721 19.0918,0"
             style="fill:none;stroke:#000000;stroke-width:1;stroke-linecap:round;stroke-linejoin:round;stroke-miterlimit:10;stroke-dasharray:none;stroke-opacity:1"
             id="path740" /></g><path
           d="m 153.7844,120.0344 c 3.9541,-3.954 3.9541,-10.3648 0,-14.3188 -3.954,-3.9541 -10.3648,-3.9541 -14.3188,0 -3.9541,3.954 -3.9541,10.3648 0,14.3188 3.954,3.9541 10.3648,3.9541 14.3188,0"
           style="fill:#ffffff;fill-opacity:1;fill-rule:nonzero;stroke:none"
           id="path742" /><g
           id="g744"
           transform="matrix(0.75,0,0,-0.75,-12,224.25)"><path
             d="m 221.0459,138.9541 c 5.2721,5.272 5.2721,13.8198 0,19.0918 -5.272,5.2721 -13.8198,5.2721 -19.0918,0 -5.2721,-5.272 -5.2721,-13.8198 0,-19.0918 5.272,-5.2721 13.8198,-5.2721 19.0918,0"
             style="fill:none;stroke:#000000;stroke-width:1;stroke-linecap:round;stroke-linejoin:round;stroke-miterlimit:10;stroke-dasharray:none;stroke-opacity:1"
             id="path746" /></g><path
           d="m 153.7844,86.28445 c 3.9541,-3.95406 3.9541,-10.36484 0,-14.3189 -3.954,-3.95407 -10.3648,-3.95407 -14.3188,0 -3.9541,3.95406 -3.9541,10.36484 0,14.3189 3.954,3.95407 10.3648,3.95407 14.3188,0"
           style="fill:#ffffff;fill-opacity:1;fill-rule:nonzero;stroke:none"
           id="path748" /><g
           id="g750"
           transform="matrix(0.75,0,0,-0.75,-12,224.25)"><path
             d="m 221.0459,183.9541 c 5.2721,5.272 5.2721,13.8198 0,19.0918 -5.272,5.2721 -13.8198,5.2721 -19.0918,0 -5.2721,-5.272 -5.2721,-13.8198 0,-19.0918 5.272,-5.2721 13.8198,-5.2721 19.0918,0"
             style="fill:none;stroke:#000000;stroke-width:1;stroke-linecap:round;stroke-linejoin:round;stroke-miterlimit:10;stroke-dasharray:none;stroke-opacity:1"
             id="path752" /></g><path
           d="m 153.7844,52.53445 c 3.9541,-3.95406 3.9541,-10.36484 0,-14.3189 -3.954,-3.95407 -10.3648,-3.95407 -14.3188,0 -3.9541,3.95406 -3.9541,10.36484 0,14.3189 3.954,3.95407 10.3648,3.95407 14.3188,0"
           style="fill:#ffffff;fill-opacity:1;fill-rule:nonzero;stroke:none"
           id="path754" /><g
           id="g756"
           transform="matrix(0.75,0,0,-0.75,-12,224.25)"><path
             d="m 221.0459,228.9541 c 5.2721,5.272 5.2721,13.8198 0,19.0918 -5.272,5.2721 -13.8198,5.2721 -19.0918,0 -5.2721,-5.272 -5.2721,-13.8198 0,-19.0918 5.272,-5.2721 13.8198,-5.2721 19.0918,0"
             style="fill:none;stroke:#000000;stroke-width:1;stroke-linecap:round;stroke-linejoin:round;stroke-miterlimit:10;stroke-dasharray:none;stroke-opacity:1"
             id="path758" /></g><path
           d="m 153.7844,18.78445 c 3.9541,-3.95406 3.9541,-10.364843 0,-14.318898 -3.954,-3.954076 -10.3648,-3.954076 -14.3188,0 -3.9541,3.954055 -3.9541,10.364838 0,14.318898 3.954,3.95407 10.3648,3.95407 14.3188,0"
           style="fill:#ffffff;fill-opacity:1;fill-rule:nonzero;stroke:none"
           id="path760" /><g
           id="g762"
           transform="matrix(0.75,0,0,-0.75,-12,224.25)"><path
             d="m 221.0459,273.9541 c 5.2721,5.272 5.2721,13.8198 0,19.0918 -5.272,5.2721 -13.8198,5.2721 -19.0918,0 -5.2721,-5.272 -5.2721,-13.8198 0,-19.0918 5.272,-5.2721 13.8198,-5.2721 19.0918,0"
             style="fill:none;stroke:#000000;stroke-width:1;stroke-linecap:round;stroke-linejoin:round;stroke-miterlimit:10;stroke-dasharray:none;stroke-opacity:1"
             id="path764" /></g><path
           d="m 187.5344,187.5344 c 3.9541,-3.954 3.9541,-10.3648 0,-14.3188 -3.954,-3.9541 -10.3648,-3.9541 -14.3188,0 -3.9541,3.954 -3.9541,10.3648 0,14.3188 3.954,3.9541 10.3648,3.9541 14.3188,0"
           style="fill:#ffffff;fill-opacity:1;fill-rule:nonzero;stroke:none"
           id="path766" /><g
           id="g768"
           transform="matrix(0.75,0,0,-0.75,-12,224.25)"><path
             d="m 266.0459,48.95407 c 5.2721,5.27207 5.2721,13.81979 0,19.09186 -5.272,5.2721 -13.8198,5.2721 -19.0918,0 -5.2721,-5.27207 -5.2721,-13.81979 0,-19.09186 5.272,-5.2721 13.8198,-5.2721 19.0918,0"
             style="fill:none;stroke:#000000;stroke-width:1;stroke-linecap:round;stroke-linejoin:round;stroke-miterlimit:10;stroke-dasharray:none;stroke-opacity:1"
             id="path770" /></g><path
           d="m 187.5344,153.7844 c 3.9541,-3.954 3.9541,-10.3648 0,-14.3188 -3.954,-3.9541 -10.3648,-3.9541 -14.3188,0 -3.9541,3.954 -3.9541,10.3648 0,14.3188 3.954,3.9541 10.3648,3.9541 14.3188,0"
           style="fill:#ffffff;fill-opacity:1;fill-rule:nonzero;stroke:none"
           id="path772" /><g
           id="g774"
           transform="matrix(0.75,0,0,-0.75,-12,224.25)"><path
             d="m 266.0459,93.95407 c 5.2721,5.27207 5.2721,13.81983 0,19.09183 -5.272,5.2721 -13.8198,5.2721 -19.0918,0 -5.2721,-5.272 -5.2721,-13.81976 0,-19.09183 5.272,-5.2721 13.8198,-5.2721 19.0918,0"
             style="fill:none;stroke:#000000;stroke-width:1;stroke-linecap:round;stroke-linejoin:round;stroke-miterlimit:10;stroke-dasharray:none;stroke-opacity:1"
             id="path776" /></g><path
           d="m 187.5344,120.0344 c 3.9541,-3.954 3.9541,-10.3648 0,-14.3188 -3.954,-3.9541 -10.3648,-3.9541 -14.3188,0 -3.9541,3.954 -3.9541,10.3648 0,14.3188 3.954,3.9541 10.3648,3.9541 14.3188,0"
           style="fill:#ffffff;fill-opacity:1;fill-rule:nonzero;stroke:none"
           id="path778" /><g
           id="g780"
           transform="matrix(0.75,0,0,-0.75,-12,224.25)"><path
             d="m 266.0459,138.9541 c 5.2721,5.272 5.2721,13.8198 0,19.0918 -5.272,5.2721 -13.8198,5.2721 -19.0918,0 -5.2721,-5.272 -5.2721,-13.8198 0,-19.0918 5.272,-5.2721 13.8198,-5.2721 19.0918,0"
             style="fill:none;stroke:#000000;stroke-width:1;stroke-linecap:round;stroke-linejoin:round;stroke-miterlimit:10;stroke-dasharray:none;stroke-opacity:1"
             id="path782" /></g><path
           d="m 187.5344,86.28445 c 3.9541,-3.95406 3.9541,-10.36484 0,-14.3189 -3.954,-3.95407 -10.3648,-3.95407 -14.3188,0 -3.9541,3.95406 -3.9541,10.36484 0,14.3189 3.954,3.95407 10.3648,3.95407 14.3188,0"
           style="fill:#ffffff;fill-opacity:1;fill-rule:nonzero;stroke:none"
           id="path784" /><g
           id="g786"
           transform="matrix(0.75,0,0,-0.75,-12,224.25)"><path
             d="m 266.0459,183.9541 c 5.2721,5.272 5.2721,13.8198 0,19.0918 -5.272,5.2721 -13.8198,5.2721 -19.0918,0 -5.2721,-5.272 -5.2721,-13.8198 0,-19.0918 5.272,-5.2721 13.8198,-5.2721 19.0918,0"
             style="fill:none;stroke:#000000;stroke-width:1;stroke-linecap:round;stroke-linejoin:round;stroke-miterlimit:10;stroke-dasharray:none;stroke-opacity:1"
             id="path788" /></g><path
           d="m 187.5344,52.53445 c 3.9541,-3.95406 3.9541,-10.36484 0,-14.3189 -3.954,-3.95407 -10.3648,-3.95407 -14.3188,0 -3.9541,3.95406 -3.9541,10.36484 0,14.3189 3.954,3.95407 10.3648,3.95407 14.3188,0"
           style="fill:#ffffff;fill-opacity:1;fill-rule:nonzero;stroke:none"
           id="path790" /><g
           id="g792"
           transform="matrix(0.75,0,0,-0.75,-12,224.25)"><path
             d="m 266.0459,228.9541 c 5.2721,5.272 5.2721,13.8198 0,19.0918 -5.272,5.2721 -13.8198,5.2721 -19.0918,0 -5.2721,-5.272 -5.2721,-13.8198 0,-19.0918 5.272,-5.2721 13.8198,-5.2721 19.0918,0"
             style="fill:none;stroke:#000000;stroke-width:1;stroke-linecap:round;stroke-linejoin:round;stroke-miterlimit:10;stroke-dasharray:none;stroke-opacity:1"
             id="path794" /></g><path
           d="m 187.5344,18.78445 c 3.9541,-3.95406 3.9541,-10.364843 0,-14.318898 -3.954,-3.954076 -10.3648,-3.954076 -14.3188,0 -3.9541,3.954055 -3.9541,10.364838 0,14.318898 3.954,3.95407 10.3648,3.95407 14.3188,0"
           style="fill:#ffffff;fill-opacity:1;fill-rule:nonzero;stroke:none"
           id="path796" /><g
           id="g798"
           transform="matrix(0.75,0,0,-0.75,-12,224.25)"><path
             d="m 266.0459,273.9541 c 5.2721,5.272 5.2721,13.8198 0,19.0918 -5.272,5.2721 -13.8198,5.2721 -19.0918,0 -5.2721,-5.272 -5.2721,-13.8198 0,-19.0918 5.272,-5.2721 13.8198,-5.2721 19.0918,0"
             style="fill:none;stroke:#000000;stroke-width:1;stroke-linecap:round;stroke-linejoin:round;stroke-miterlimit:10;stroke-dasharray:none;stroke-opacity:1"
             id="path800" /></g><g
           id="g802"
           transform="matrix(0.75,0,0,-0.75,96,208.5)"><text
             transform="translate(-49.784,5.776001)"
             style="font-variant:normal;font-weight:normal;font-size:16px;font-family:'Helvetica Neue';-inkscape-font-specification:HelveticaNeue;writing-mode:lr-tb;fill:#000000;fill-opacity:1;fill-rule:nonzero;stroke:none"
             id="text806"><tspan
               x="0 8.8959999 12.448 21.344 29.936001 37.936001 42.383999 51.568001 56.304001 60.751999 72.304001 81.487999 90.975998"
               y="0"
               id="tspan804">Lines of Code</tspan></text></g></g></g></g></svg>
