<?xml version="1.0" encoding="UTF-8" standalone="no"?>
<svg
   xmlns:dc="http://purl.org/dc/elements/1.1/"
   xmlns:cc="http://creativecommons.org/ns#"
   xmlns:rdf="http://www.w3.org/1999/02/22-rdf-syntax-ns#"
   xmlns:svg="http://www.w3.org/2000/svg"
   xmlns="http://www.w3.org/2000/svg"
   version="1.1"
   id="svg844"
   xml:space="preserve"
   width="472"
   height="293"
   viewBox="0 0 472 293"><metadata
     id="metadata850"><rdf:RDF><cc:Work
         rdf:about=""><dc:format>image/svg+xml</dc:format><dc:type
           rdf:resource="http://purl.org/dc/dcmitype/StillImage" /><dc:title></dc:title></cc:Work></rdf:RDF></metadata><defs
     id="defs848"><clipPath
       clipPathUnits="userSpaceOnUse"
       id="clipPath862"><path
         d="M 0,0 H 354 V 219.75 H 0 Z"
         id="path860" /></clipPath></defs><g
     id="g852"
     transform="matrix(1.3333333,0,0,-1.3333333,0,293)"><g
       id="g854" /><g
       id="g856"><g
         id="g858"
         clip-path="url(#clipPath862)"><path
           d="m 10.5,190.5 h 36 c 4.97056,0 9,-4.0294 9,-9 v -36 c 0,-4.9706 -4.02944,-9 -9,-9 h -36 c -4.970563,0 -9,4.0294 -9,9 v 36 c 0,4.9706 4.029437,9 9,9 z"
           style="fill:#ffffff;fill-opacity:1;fill-rule:nonzero;stroke:none"
           id="path864" /><g
           id="g866"
           transform="matrix(0.75,0,0,-0.75,-12,224.25)"><path
             d="m 30,45 h 48 c 6.62742,0 12,5.37258 12,12 v 48 c 0,6.6274 -5.37258,12 -12,12 H 30 c -6.62742,0 -12,-5.3726 -12,-12 V 57 c 0,-6.62742 5.37258,-12 12,-12 z"
             style="fill:none;stroke:#000000;stroke-width:1;stroke-linecap:round;stroke-linejoin:round;stroke-miterlimit:10;stroke-dasharray:none;stroke-opacity:1"
             id="path868" /></g><path
           d="m 21.21334,181.5258 c 2.96555,-2.9655 2.96555,-7.7736 0,-10.7391 -2.96555,-2.9656 -7.77363,-2.9656 -10.73918,0 -2.965553,2.9655 -2.965553,7.7736 0,10.7391 2.96555,2.9656 7.77363,2.9656 10.73918,0"
           style="fill:#ffffff;fill-opacity:1;fill-rule:nonzero;stroke:none"
           id="path870" /><g
           id="g872"
           transform="matrix(0.75,0,0,-0.75,-12,224.25)"><path
             d="m 44.28445,56.96555 c 3.95407,3.95406 3.95407,10.36484 0,14.3189 -3.95406,3.95407 -10.36484,3.95407 -14.3189,0 -3.95407,-3.95406 -3.95407,-10.36484 0,-14.3189 3.95406,-3.95407 10.36484,-3.95407 14.3189,0"
             style="fill:none;stroke:#d6d6d6;stroke-width:1;stroke-linecap:round;stroke-linejoin:round;stroke-miterlimit:10;stroke-dasharray:none;stroke-opacity:1"
             id="path874" /></g><path
           d="m 21.21334,156.2133 c 2.96555,-2.9655 2.96555,-7.7736 0,-10.7391 -2.96555,-2.9656 -7.77363,-2.9656 -10.73918,0 -2.965553,2.9655 -2.965553,7.7736 0,10.7391 2.96555,2.9656 7.77363,2.9656 10.73918,0"
           style="fill:#ffffff;fill-opacity:1;fill-rule:nonzero;stroke:none"
           id="path876" /><g
           id="g878"
           transform="matrix(0.75,0,0,-0.75,-12,224.25)"><path
             d="m 44.28445,90.71555 c 3.95407,3.95406 3.95407,10.36485 0,14.31885 -3.95406,3.9541 -10.36484,3.9541 -14.3189,0 -3.95407,-3.954 -3.95407,-10.36479 0,-14.31885 3.95406,-3.95407 10.36484,-3.95407 14.3189,0"
             style="fill:none;stroke:#d6d6d6;stroke-width:1;stroke-linecap:round;stroke-linejoin:round;stroke-miterlimit:10;stroke-dasharray:none;stroke-opacity:1"
             id="path880" /></g><path
           d="m 46.52584,181.5258 c 2.96555,-2.9655 2.96555,-7.7736 0,-10.7391 -2.96555,-2.9656 -7.77363,-2.9656 -10.73918,0 -2.96555,2.9655 -2.96555,7.7736 0,10.7391 2.96555,2.9656 7.77363,2.9656 10.73918,0"
           style="fill:#ffffff;fill-opacity:1;fill-rule:nonzero;stroke:none"
           id="path882" /><g
           id="g884"
           transform="matrix(0.75,0,0,-0.75,-12,224.25)"><path
             d="m 78.03445,56.96555 c 3.95407,3.95406 3.95407,10.36484 0,14.3189 -3.95406,3.95407 -10.36484,3.95407 -14.3189,0 -3.95407,-3.95406 -3.95407,-10.36484 0,-14.3189 3.95406,-3.95407 10.36484,-3.95407 14.3189,0"
             style="fill:none;stroke:#d6d6d6;stroke-width:1;stroke-linecap:round;stroke-linejoin:round;stroke-miterlimit:10;stroke-dasharray:none;stroke-opacity:1"
             id="path886" /></g><path
           d="m 46.52584,156.2133 c 2.96555,-2.9655 2.96555,-7.7736 0,-10.7391 -2.96555,-2.9656 -7.77363,-2.9656 -10.73918,0 -2.96555,2.9655 -2.96555,7.7736 0,10.7391 2.96555,2.9656 7.77363,2.9656 10.73918,0"
           style="fill:#ffffff;fill-opacity:1;fill-rule:nonzero;stroke:none"
           id="path888" /><g
           id="g890"
           transform="matrix(0.75,0,0,-0.75,-12,224.25)"><path
             d="m 78.03445,90.71555 c 3.95407,3.95406 3.95407,10.36485 0,14.31885 -3.95406,3.9541 -10.36484,3.9541 -14.3189,0 -3.95407,-3.954 -3.95407,-10.36479 0,-14.31885 3.95406,-3.95407 10.36484,-3.95407 14.3189,0"
             style="fill:none;stroke:#d6d6d6;stroke-width:1;stroke-linecap:round;stroke-linejoin:round;stroke-miterlimit:10;stroke-dasharray:none;stroke-opacity:1"
             id="path892" /></g><path
           d="m 78,190.5 h 36 c 4.9706,0 9,-4.0294 9,-9 v -36 c 0,-4.9706 -4.0294,-9 -9,-9 H 78 c -4.97056,0 -9,4.0294 -9,9 v 36 c 0,4.9706 4.02944,9 9,9 z"
           style="fill:#ffffff;fill-opacity:1;fill-rule:nonzero;stroke:none"
           id="path894" /><g
           id="g896"
           transform="matrix(0.75,0,0,-0.75,-12,224.25)"><path
             d="m 120,45 h 48 c 6.6274,0 12,5.37258 12,12 v 48 c 0,6.6274 -5.3726,12 -12,12 h -48 c -6.6274,0 -12,-5.3726 -12,-12 V 57 c 0,-6.62742 5.3726,-12 12,-12 z"
             style="fill:none;stroke:#000000;stroke-width:1;stroke-linecap:round;stroke-linejoin:round;stroke-miterlimit:10;stroke-dasharray:none;stroke-opacity:1"
             id="path898" /></g><path
           d="m 88.71334,181.5258 c 2.96555,-2.9655 2.96555,-7.7736 0,-10.7391 -2.96555,-2.9656 -7.77363,-2.9656 -10.73918,0 -2.96555,2.9655 -2.96555,7.7736 0,10.7391 2.96555,2.9656 7.77363,2.9656 10.73918,0"
           style="fill:#ffffff;fill-opacity:1;fill-rule:nonzero;stroke:none"
           id="path900" /><g
           id="g902"
           transform="matrix(0.75,0,0,-0.75,-12,224.25)"><path
             d="m 134.2844,56.96555 c 3.9541,3.95406 3.9541,10.36484 0,14.3189 -3.954,3.95407 -10.3648,3.95407 -14.3188,0 -3.9541,-3.95406 -3.9541,-10.36484 0,-14.3189 3.954,-3.95407 10.3648,-3.95407 14.3188,0"
             style="fill:none;stroke:#d6d6d6;stroke-width:1;stroke-linecap:round;stroke-linejoin:round;stroke-miterlimit:10;stroke-dasharray:none;stroke-opacity:1"
             id="path904" /></g><path
           d="m 88.71334,156.2133 c 2.96555,-2.9655 2.96555,-7.7736 0,-10.7391 -2.96555,-2.9656 -7.77363,-2.9656 -10.73918,0 -2.96555,2.9655 -2.96555,7.7736 0,10.7391 2.96555,2.9656 7.77363,2.9656 10.73918,0"
           style="fill:#ffffff;fill-opacity:1;fill-rule:nonzero;stroke:none"
           id="path906" /><g
           id="g908"
           transform="matrix(0.75,0,0,-0.75,-12,224.25)"><path
             d="m 134.2844,90.71555 c 3.9541,3.95406 3.9541,10.36485 0,14.31885 -3.954,3.9541 -10.3648,3.9541 -14.3188,0 -3.9541,-3.954 -3.9541,-10.36479 0,-14.31885 3.954,-3.95407 10.3648,-3.95407 14.3188,0"
             style="fill:none;stroke:#d6d6d6;stroke-width:1;stroke-linecap:round;stroke-linejoin:round;stroke-miterlimit:10;stroke-dasharray:none;stroke-opacity:1"
             id="path910" /></g><path
           d="m 114.0258,181.5258 c 2.9656,-2.9655 2.9656,-7.7736 0,-10.7391 -2.9655,-2.9656 -7.7736,-2.9656 -10.7391,0 -2.9656,2.9655 -2.9656,7.7736 0,10.7391 2.9655,2.9656 7.7736,2.9656 10.7391,0"
           style="fill:#ffffff;fill-opacity:1;fill-rule:nonzero;stroke:none"
           id="path912" /><g
           id="g914"
           transform="matrix(0.75,0,0,-0.75,-12,224.25)"><path
             d="m 168.0344,56.96555 c 3.9541,3.95406 3.9541,10.36484 0,14.3189 -3.954,3.95407 -10.3648,3.95407 -14.3188,0 -3.9541,-3.95406 -3.9541,-10.36484 0,-14.3189 3.954,-3.95407 10.3648,-3.95407 14.3188,0"
             style="fill:none;stroke:#d6d6d6;stroke-width:1;stroke-linecap:round;stroke-linejoin:round;stroke-miterlimit:10;stroke-dasharray:none;stroke-opacity:1"
             id="path916" /></g><path
           d="m 114.0258,156.2133 c 2.9656,-2.9655 2.9656,-7.7736 0,-10.7391 -2.9655,-2.9656 -7.7736,-2.9656 -10.7391,0 -2.9656,2.9655 -2.9656,7.7736 0,10.7391 2.9655,2.9656 7.7736,2.9656 10.7391,0"
           style="fill:#ffffff;fill-opacity:1;fill-rule:nonzero;stroke:none"
           id="path918" /><g
           id="g920"
           transform="matrix(0.75,0,0,-0.75,-12,224.25)"><path
             d="m 168.0344,90.71555 c 3.9541,3.95406 3.9541,10.36485 0,14.31885 -3.954,3.9541 -10.3648,3.9541 -14.3188,0 -3.9541,-3.954 -3.9541,-10.36479 0,-14.31885 3.954,-3.95407 10.3648,-3.95407 14.3188,0"
             style="fill:none;stroke:#d6d6d6;stroke-width:1;stroke-linecap:round;stroke-linejoin:round;stroke-miterlimit:10;stroke-dasharray:none;stroke-opacity:1"
             id="path922" /></g><path
           d="m 145.5,190.5 h 36 c 4.9706,0 9,-4.0294 9,-9 v -36 c 0,-4.9706 -4.0294,-9 -9,-9 h -36 c -4.9706,0 -9,4.0294 -9,9 v 36 c 0,4.9706 4.0294,9 9,9 z"
           style="fill:#ffffff;fill-opacity:1;fill-rule:nonzero;stroke:none"
           id="path924" /><g
           id="g926"
           transform="matrix(0.75,0,0,-0.75,-12,224.25)"><path
             d="m 210,45 h 48 c 6.6274,0 12,5.37258 12,12 v 48 c 0,6.6274 -5.3726,12 -12,12 h -48 c -6.6274,0 -12,-5.3726 -12,-12 V 57 c 0,-6.62742 5.3726,-12 12,-12 z"
             style="fill:none;stroke:#000000;stroke-width:1;stroke-linecap:round;stroke-linejoin:round;stroke-miterlimit:10;stroke-dasharray:none;stroke-opacity:1"
             id="path928" /></g><path
           d="m 156.2133,181.5258 c 2.9656,-2.9655 2.9656,-7.7736 0,-10.7391 -2.9655,-2.9656 -7.7736,-2.9656 -10.7391,0 -2.9656,2.9655 -2.9656,7.7736 0,10.7391 2.9655,2.9656 7.7736,2.9656 10.7391,0"
           style="fill:#ffffff;fill-opacity:1;fill-rule:nonzero;stroke:none"
           id="path930" /><g
           id="g932"
           transform="matrix(0.75,0,0,-0.75,-12,224.25)"><path
             d="m 224.2844,56.96555 c 3.9541,3.95406 3.9541,10.36484 0,14.3189 -3.954,3.95407 -10.3648,3.95407 -14.3188,0 -3.9541,-3.95406 -3.9541,-10.36484 0,-14.3189 3.954,-3.95407 10.3648,-3.95407 14.3188,0"
             style="fill:none;stroke:#d6d6d6;stroke-width:1;stroke-linecap:round;stroke-linejoin:round;stroke-miterlimit:10;stroke-dasharray:none;stroke-opacity:1"
             id="path934" /></g><path
           d="m 156.2133,156.2133 c 2.9656,-2.9655 2.9656,-7.7736 0,-10.7391 -2.9655,-2.9656 -7.7736,-2.9656 -10.7391,0 -2.9656,2.9655 -2.9656,7.7736 0,10.7391 2.9655,2.9656 7.7736,2.9656 10.7391,0"
           style="fill:#ffffff;fill-opacity:1;fill-rule:nonzero;stroke:none"
           id="path936" /><g
           id="g938"
           transform="matrix(0.75,0,0,-0.75,-12,224.25)"><path
             d="m 224.2844,90.71555 c 3.9541,3.95406 3.9541,10.36485 0,14.31885 -3.954,3.9541 -10.3648,3.9541 -14.3188,0 -3.9541,-3.954 -3.9541,-10.36479 0,-14.31885 3.954,-3.95407 10.3648,-3.95407 14.3188,0"
             style="fill:none;stroke:#d6d6d6;stroke-width:1;stroke-linecap:round;stroke-linejoin:round;stroke-miterlimit:10;stroke-dasharray:none;stroke-opacity:1"
             id="path940" /></g><path
           d="m 181.5258,181.5258 c 2.9656,-2.9655 2.9656,-7.7736 0,-10.7391 -2.9655,-2.9656 -7.7736,-2.9656 -10.7391,0 -2.9656,2.9655 -2.9656,7.7736 0,10.7391 2.9655,2.9656 7.7736,2.9656 10.7391,0"
           style="fill:#ffffff;fill-opacity:1;fill-rule:nonzero;stroke:none"
           id="path942" /><g
           id="g944"
           transform="matrix(0.75,0,0,-0.75,-12,224.25)"><path
             d="m 258.0344,56.96555 c 3.9541,3.95406 3.9541,10.36484 0,14.3189 -3.954,3.95407 -10.3648,3.95407 -14.3188,0 -3.9541,-3.95406 -3.9541,-10.36484 0,-14.3189 3.954,-3.95407 10.3648,-3.95407 14.3188,0"
             style="fill:none;stroke:#d6d6d6;stroke-width:1;stroke-linecap:round;stroke-linejoin:round;stroke-miterlimit:10;stroke-dasharray:none;stroke-opacity:1"
             id="path946" /></g><path
           d="m 181.5258,156.2133 c 2.9656,-2.9655 2.9656,-7.7736 0,-10.7391 -2.9655,-2.9656 -7.7736,-2.9656 -10.7391,0 -2.9656,2.9655 -2.9656,7.7736 0,10.7391 2.9655,2.9656 7.7736,2.9656 10.7391,0"
           style="fill:#ffffff;fill-opacity:1;fill-rule:nonzero;stroke:none"
           id="path948" /><g
           id="g950"
           transform="matrix(0.75,0,0,-0.75,-12,224.25)"><path
             d="m 258.0344,90.71555 c 3.9541,3.95406 3.9541,10.36485 0,14.31885 -3.954,3.9541 -10.3648,3.9541 -14.3188,0 -3.9541,-3.954 -3.9541,-10.36479 0,-14.31885 3.954,-3.95407 10.3648,-3.95407 14.3188,0"
             style="fill:none;stroke:#d6d6d6;stroke-width:1;stroke-linecap:round;stroke-linejoin:round;stroke-miterlimit:10;stroke-dasharray:none;stroke-opacity:1"
             id="path952" /></g><path
           d="m 10.5,123 h 36 c 4.97056,0 9,-4.0294 9,-9 V 78 c 0,-4.97056 -4.02944,-9 -9,-9 h -36 c -4.970563,0 -9,4.02944 -9,9 v 36 c 0,4.9706 4.029437,9 9,9 z"
           style="fill:#ffffff;fill-opacity:1;fill-rule:nonzero;stroke:none"
           id="path954" /><g
           id="g956"
           transform="matrix(0.75,0,0,-0.75,-12,224.25)"><path
             d="m 30,135 h 48 c 6.62742,0 12,5.3726 12,12 v 48 c 0,6.6274 -5.37258,12 -12,12 H 30 c -6.62742,0 -12,-5.3726 -12,-12 v -48 c 0,-6.6274 5.37258,-12 12,-12 z"
             style="fill:none;stroke:#000000;stroke-width:1;stroke-linecap:round;stroke-linejoin:round;stroke-miterlimit:10;stroke-dasharray:none;stroke-opacity:1"
             id="path958" /></g><path
           d="m 21.21334,114.0258 c 2.96555,-2.9655 2.96555,-7.7736 0,-10.7391 -2.96555,-2.9656 -7.77363,-2.9656 -10.73918,0 -2.965553,2.9655 -2.965553,7.7736 0,10.7391 2.96555,2.9656 7.77363,2.9656 10.73918,0"
           style="fill:#ffffff;fill-opacity:1;fill-rule:nonzero;stroke:none"
           id="path960" /><g
           id="g962"
           transform="matrix(0.75,0,0,-0.75,-12,224.25)"><path
             d="m 44.28445,146.9656 c 3.95407,3.954 3.95407,10.3648 0,14.3188 -3.95406,3.9541 -10.36484,3.9541 -14.3189,0 -3.95407,-3.954 -3.95407,-10.3648 0,-14.3188 3.95406,-3.9541 10.36484,-3.9541 14.3189,0"
             style="fill:none;stroke:#d6d6d6;stroke-width:1;stroke-linecap:round;stroke-linejoin:round;stroke-miterlimit:10;stroke-dasharray:none;stroke-opacity:1"
             id="path964" /></g><path
           d="m 21.21334,88.71334 c 2.96555,-2.96555 2.96555,-7.77363 0,-10.73918 -2.96555,-2.96555 -7.77363,-2.96555 -10.73918,0 -2.965553,2.96555 -2.965553,7.77363 0,10.73918 2.96555,2.96555 7.77363,2.96555 10.73918,0"
           style="fill:#ffffff;fill-opacity:1;fill-rule:nonzero;stroke:none"
           id="path966" /><g
           id="g968"
           transform="matrix(0.75,0,0,-0.75,-12,224.25)"><path
             d="m 44.28445,180.7156 c 3.95407,3.954 3.95407,10.3648 0,14.3188 -3.95406,3.9541 -10.36484,3.9541 -14.3189,0 -3.95407,-3.954 -3.95407,-10.3648 0,-14.3188 3.95406,-3.9541 10.36484,-3.9541 14.3189,0"
             style="fill:none;stroke:#d6d6d6;stroke-width:1;stroke-linecap:round;stroke-linejoin:round;stroke-miterlimit:10;stroke-dasharray:none;stroke-opacity:1"
             id="path970" /></g><path
           d="m 46.52584,114.0258 c 2.96555,-2.9655 2.96555,-7.7736 0,-10.7391 -2.96555,-2.9656 -7.77363,-2.9656 -10.73918,0 -2.96555,2.9655 -2.96555,7.7736 0,10.7391 2.96555,2.9656 7.77363,2.9656 10.73918,0"
           style="fill:#ffffff;fill-opacity:1;fill-rule:nonzero;stroke:none"
           id="path972" /><g
           id="g974"
           transform="matrix(0.75,0,0,-0.75,-12,224.25)"><path
             d="m 78.03445,146.9656 c 3.95407,3.954 3.95407,10.3648 0,14.3188 -3.95406,3.9541 -10.36484,3.9541 -14.3189,0 -3.95407,-3.954 -3.95407,-10.3648 0,-14.3188 3.95406,-3.9541 10.36484,-3.9541 14.3189,0"
             style="fill:none;stroke:#d6d6d6;stroke-width:1;stroke-linecap:round;stroke-linejoin:round;stroke-miterlimit:10;stroke-dasharray:none;stroke-opacity:1"
             id="path976" /></g><path
           d="m 46.52584,88.71334 c 2.96555,-2.96555 2.96555,-7.77363 0,-10.73918 -2.96555,-2.96555 -7.77363,-2.96555 -10.73918,0 -2.96555,2.96555 -2.96555,7.77363 0,10.73918 2.96555,2.96555 7.77363,2.96555 10.73918,0"
           style="fill:#ffffff;fill-opacity:1;fill-rule:nonzero;stroke:none"
           id="path978" /><g
           id="g980"
           transform="matrix(0.75,0,0,-0.75,-12,224.25)"><path
             d="m 78.03445,180.7156 c 3.95407,3.954 3.95407,10.3648 0,14.3188 -3.95406,3.9541 -10.36484,3.9541 -14.3189,0 -3.95407,-3.954 -3.95407,-10.3648 0,-14.3188 3.95406,-3.9541 10.36484,-3.9541 14.3189,0"
             style="fill:none;stroke:#d6d6d6;stroke-width:1;stroke-linecap:round;stroke-linejoin:round;stroke-miterlimit:10;stroke-dasharray:none;stroke-opacity:1"
             id="path982" /></g><path
           d="m 78,123 h 36 c 4.9706,0 9,-4.0294 9,-9 V 78 c 0,-4.97056 -4.0294,-9 -9,-9 H 78 c -4.97056,0 -9,4.02944 -9,9 v 36 c 0,4.9706 4.02944,9 9,9 z"
           style="fill:#ffffff;fill-opacity:1;fill-rule:nonzero;stroke:none"
           id="path984" /><g
           id="g986"
           transform="matrix(0.75,0,0,-0.75,-12,224.25)"><path
             d="m 120,135 h 48 c 6.6274,0 12,5.3726 12,12 v 48 c 0,6.6274 -5.3726,12 -12,12 h -48 c -6.6274,0 -12,-5.3726 -12,-12 v -48 c 0,-6.6274 5.3726,-12 12,-12 z"
             style="fill:none;stroke:#000000;stroke-width:1;stroke-linecap:round;stroke-linejoin:round;stroke-miterlimit:10;stroke-dasharray:none;stroke-opacity:1"
             id="path988" /></g><path
           d="m 88.71334,114.0258 c 2.96555,-2.9655 2.96555,-7.7736 0,-10.7391 -2.96555,-2.9656 -7.77363,-2.9656 -10.73918,0 -2.96555,2.9655 -2.96555,7.7736 0,10.7391 2.96555,2.9656 7.77363,2.9656 10.73918,0"
           style="fill:#ffffff;fill-opacity:1;fill-rule:nonzero;stroke:none"
           id="path990" /><g
           id="g992"
           transform="matrix(0.75,0,0,-0.75,-12,224.25)"><path
             d="m 134.2844,146.9656 c 3.9541,3.954 3.9541,10.3648 0,14.3188 -3.954,3.9541 -10.3648,3.9541 -14.3188,0 -3.9541,-3.954 -3.9541,-10.3648 0,-14.3188 3.954,-3.9541 10.3648,-3.9541 14.3188,0"
             style="fill:none;stroke:#d6d6d6;stroke-width:1;stroke-linecap:round;stroke-linejoin:round;stroke-miterlimit:10;stroke-dasharray:none;stroke-opacity:1"
             id="path994" /></g><path
           d="m 88.71334,88.71334 c 2.96555,-2.96555 2.96555,-7.77363 0,-10.73918 -2.96555,-2.96555 -7.77363,-2.96555 -10.73918,0 -2.96555,2.96555 -2.96555,7.77363 0,10.73918 2.96555,2.96555 7.77363,2.96555 10.73918,0"
           style="fill:#ffffff;fill-opacity:1;fill-rule:nonzero;stroke:none"
           id="path996" /><g
           id="g998"
           transform="matrix(0.75,0,0,-0.75,-12,224.25)"><path
             d="m 134.2844,180.7156 c 3.9541,3.954 3.9541,10.3648 0,14.3188 -3.954,3.9541 -10.3648,3.9541 -14.3188,0 -3.9541,-3.954 -3.9541,-10.3648 0,-14.3188 3.954,-3.9541 10.3648,-3.9541 14.3188,0"
             style="fill:none;stroke:#d6d6d6;stroke-width:1;stroke-linecap:round;stroke-linejoin:round;stroke-miterlimit:10;stroke-dasharray:none;stroke-opacity:1"
             id="path1000" /></g><path
           d="m 114.0258,114.0258 c 2.9656,-2.9655 2.9656,-7.7736 0,-10.7391 -2.9655,-2.9656 -7.7736,-2.9656 -10.7391,0 -2.9656,2.9655 -2.9656,7.7736 0,10.7391 2.9655,2.9656 7.7736,2.9656 10.7391,0"
           style="fill:#ffffff;fill-opacity:1;fill-rule:nonzero;stroke:none"
           id="path1002" /><g
           id="g1004"
           transform="matrix(0.75,0,0,-0.75,-12,224.25)"><path
             d="m 168.0344,146.9656 c 3.9541,3.954 3.9541,10.3648 0,14.3188 -3.954,3.9541 -10.3648,3.9541 -14.3188,0 -3.9541,-3.954 -3.9541,-10.3648 0,-14.3188 3.954,-3.9541 10.3648,-3.9541 14.3188,0"
             style="fill:none;stroke:#d6d6d6;stroke-width:1;stroke-linecap:round;stroke-linejoin:round;stroke-miterlimit:10;stroke-dasharray:none;stroke-opacity:1"
             id="path1006" /></g><path
           d="m 114.0258,88.71334 c 2.9656,-2.96555 2.9656,-7.77363 0,-10.73918 -2.9655,-2.96555 -7.7736,-2.96555 -10.7391,0 -2.9656,2.96555 -2.9656,7.77363 0,10.73918 2.9655,2.96555 7.7736,2.96555 10.7391,0"
           style="fill:#ffffff;fill-opacity:1;fill-rule:nonzero;stroke:none"
           id="path1008" /><g
           id="g1010"
           transform="matrix(0.75,0,0,-0.75,-12,224.25)"><path
             d="m 168.0344,180.7156 c 3.9541,3.954 3.9541,10.3648 0,14.3188 -3.954,3.9541 -10.3648,3.9541 -14.3188,0 -3.9541,-3.954 -3.9541,-10.3648 0,-14.3188 3.954,-3.9541 10.3648,-3.9541 14.3188,0"
             style="fill:none;stroke:#d6d6d6;stroke-width:1;stroke-linecap:round;stroke-linejoin:round;stroke-miterlimit:10;stroke-dasharray:none;stroke-opacity:1"
             id="path1012" /></g><path
           d="m 145.5,123 h 36 c 4.9706,0 9,-4.0294 9,-9 V 78 c 0,-4.97056 -4.0294,-9 -9,-9 h -36 c -4.9706,0 -9,4.02944 -9,9 v 36 c 0,4.9706 4.0294,9 9,9 z"
           style="fill:#ffffff;fill-opacity:1;fill-rule:nonzero;stroke:none"
           id="path1014" /><g
           id="g1016"
           transform="matrix(0.75,0,0,-0.75,-12,224.25)"><path
             d="m 210,135 h 48 c 6.6274,0 12,5.3726 12,12 v 48 c 0,6.6274 -5.3726,12 -12,12 h -48 c -6.6274,0 -12,-5.3726 -12,-12 v -48 c 0,-6.6274 5.3726,-12 12,-12 z"
             style="fill:none;stroke:#000000;stroke-width:1;stroke-linecap:round;stroke-linejoin:round;stroke-miterlimit:10;stroke-dasharray:none;stroke-opacity:1"
             id="path1018" /></g><path
           d="m 156.2133,114.0258 c 2.9656,-2.9655 2.9656,-7.7736 0,-10.7391 -2.9655,-2.9656 -7.7736,-2.9656 -10.7391,0 -2.9656,2.9655 -2.9656,7.7736 0,10.7391 2.9655,2.9656 7.7736,2.9656 10.7391,0"
           style="fill:#ffffff;fill-opacity:1;fill-rule:nonzero;stroke:none"
           id="path1020" /><g
           id="g1022"
           transform="matrix(0.75,0,0,-0.75,-12,224.25)"><path
             d="m 224.2844,146.9656 c 3.9541,3.954 3.9541,10.3648 0,14.3188 -3.954,3.9541 -10.3648,3.9541 -14.3188,0 -3.9541,-3.954 -3.9541,-10.3648 0,-14.3188 3.954,-3.9541 10.3648,-3.9541 14.3188,0"
             style="fill:none;stroke:#d6d6d6;stroke-width:1;stroke-linecap:round;stroke-linejoin:round;stroke-miterlimit:10;stroke-dasharray:none;stroke-opacity:1"
             id="path1024" /></g><path
           d="m 156.2133,88.71334 c 2.9656,-2.96555 2.9656,-7.77363 0,-10.73918 -2.9655,-2.96555 -7.7736,-2.96555 -10.7391,0 -2.9656,2.96555 -2.9656,7.77363 0,10.73918 2.9655,2.96555 7.7736,2.96555 10.7391,0"
           style="fill:#ffffff;fill-opacity:1;fill-rule:nonzero;stroke:none"
           id="path1026" /><g
           id="g1028"
           transform="matrix(0.75,0,0,-0.75,-12,224.25)"><path
             d="m 224.2844,180.7156 c 3.9541,3.954 3.9541,10.3648 0,14.3188 -3.954,3.9541 -10.3648,3.9541 -14.3188,0 -3.9541,-3.954 -3.9541,-10.3648 0,-14.3188 3.954,-3.9541 10.3648,-3.9541 14.3188,0"
             style="fill:none;stroke:#d6d6d6;stroke-width:1;stroke-linecap:round;stroke-linejoin:round;stroke-miterlimit:10;stroke-dasharray:none;stroke-opacity:1"
             id="path1030" /></g><path
           d="m 181.5258,114.0258 c 2.9656,-2.9655 2.9656,-7.7736 0,-10.7391 -2.9655,-2.9656 -7.7736,-2.9656 -10.7391,0 -2.9656,2.9655 -2.9656,7.7736 0,10.7391 2.9655,2.9656 7.7736,2.9656 10.7391,0"
           style="fill:#ffffff;fill-opacity:1;fill-rule:nonzero;stroke:none"
           id="path1032" /><g
           id="g1034"
           transform="matrix(0.75,0,0,-0.75,-12,224.25)"><path
             d="m 258.0344,146.9656 c 3.9541,3.954 3.9541,10.3648 0,14.3188 -3.954,3.9541 -10.3648,3.9541 -14.3188,0 -3.9541,-3.954 -3.9541,-10.3648 0,-14.3188 3.954,-3.9541 10.3648,-3.9541 14.3188,0"
             style="fill:none;stroke:#d6d6d6;stroke-width:1;stroke-linecap:round;stroke-linejoin:round;stroke-miterlimit:10;stroke-dasharray:none;stroke-opacity:1"
             id="path1036" /></g><path
           d="m 181.5258,88.71334 c 2.9656,-2.96555 2.9656,-7.77363 0,-10.73918 -2.9655,-2.96555 -7.7736,-2.96555 -10.7391,0 -2.9656,2.96555 -2.9656,7.77363 0,10.73918 2.9655,2.96555 7.7736,2.96555 10.7391,0"
           style="fill:#ffffff;fill-opacity:1;fill-rule:nonzero;stroke:none"
           id="path1038" /><g
           id="g1040"
           transform="matrix(0.75,0,0,-0.75,-12,224.25)"><path
             d="m 258.0344,180.7156 c 3.9541,3.954 3.9541,10.3648 0,14.3188 -3.954,3.9541 -10.3648,3.9541 -14.3188,0 -3.9541,-3.954 -3.9541,-10.3648 0,-14.3188 3.954,-3.9541 10.3648,-3.9541 14.3188,0"
             style="fill:none;stroke:#d6d6d6;stroke-width:1;stroke-linecap:round;stroke-linejoin:round;stroke-miterlimit:10;stroke-dasharray:none;stroke-opacity:1"
             id="path1042" /></g><path
           d="m 10.5,55.5 h 36 c 4.97056,0 9,-4.02944 9,-9 v -36 c 0,-4.970563 -4.02944,-9 -9,-9 h -36 c -4.970563,0 -9,4.029437 -9,9 v 36 c 0,4.97056 4.029437,9 9,9 z"
           style="fill:#ffffff;fill-opacity:1;fill-rule:nonzero;stroke:none"
           id="path1044" /><g
           id="g1046"
           transform="matrix(0.75,0,0,-0.75,-12,224.25)"><path
             d="m 30,225 h 48 c 6.62742,0 12,5.3726 12,12 v 48 c 0,6.6274 -5.37258,12 -12,12 H 30 c -6.62742,0 -12,-5.3726 -12,-12 v -48 c 0,-6.6274 5.37258,-12 12,-12 z"
             style="fill:none;stroke:#000000;stroke-width:1;stroke-linecap:round;stroke-linejoin:round;stroke-miterlimit:10;stroke-dasharray:none;stroke-opacity:1"
             id="path1048" /></g><path
           d="m 21.21334,46.52584 c 2.96555,-2.96555 2.96555,-7.77363 0,-10.73918 -2.96555,-2.96555 -7.77363,-2.96555 -10.73918,0 -2.965553,2.96555 -2.965553,7.77363 0,10.73918 2.96555,2.96555 7.77363,2.96555 10.73918,0"
           style="fill:#ffffff;fill-opacity:1;fill-rule:nonzero;stroke:none"
           id="path1050" /><g
           id="g1052"
           transform="matrix(0.75,0,0,-0.75,-12,224.25)"><path
             d="m 44.28445,236.9656 c 3.95407,3.954 3.95407,10.3648 0,14.3188 -3.95406,3.9541 -10.36484,3.9541 -14.3189,0 -3.95407,-3.954 -3.95407,-10.3648 0,-14.3188 3.95406,-3.9541 10.36484,-3.9541 14.3189,0"
             style="fill:none;stroke:#d6d6d6;stroke-width:1;stroke-linecap:round;stroke-linejoin:round;stroke-miterlimit:10;stroke-dasharray:none;stroke-opacity:1"
             id="path1054" /></g><path
           d="m 21.21334,21.21334 c 2.96555,-2.96555 2.96555,-7.77363 0,-10.73918 -2.96555,-2.965553 -7.77363,-2.965553 -10.73918,0 -2.965553,2.96555 -2.965553,7.77363 0,10.73918 2.96555,2.96555 7.77363,2.96555 10.73918,0"
           style="fill:#ffffff;fill-opacity:1;fill-rule:nonzero;stroke:none"
           id="path1056" /><g
           id="g1058"
           transform="matrix(0.75,0,0,-0.75,-12,224.25)"><path
             d="m 44.28445,270.7156 c 3.95407,3.954 3.95407,10.3648 0,14.3188 -3.95406,3.9541 -10.36484,3.9541 -14.3189,0 -3.95407,-3.954 -3.95407,-10.3648 0,-14.3188 3.95406,-3.9541 10.36484,-3.9541 14.3189,0"
             style="fill:none;stroke:#d6d6d6;stroke-width:1;stroke-linecap:round;stroke-linejoin:round;stroke-miterlimit:10;stroke-dasharray:none;stroke-opacity:1"
             id="path1060" /></g><path
           d="m 46.52584,46.52584 c 2.96555,-2.96555 2.96555,-7.77363 0,-10.73918 -2.96555,-2.96555 -7.77363,-2.96555 -10.73918,0 -2.96555,2.96555 -2.96555,7.77363 0,10.73918 2.96555,2.96555 7.77363,2.96555 10.73918,0"
           style="fill:#ffffff;fill-opacity:1;fill-rule:nonzero;stroke:none"
           id="path1062" /><g
           id="g1064"
           transform="matrix(0.75,0,0,-0.75,-12,224.25)"><path
             d="m 78.03445,236.9656 c 3.95407,3.954 3.95407,10.3648 0,14.3188 -3.95406,3.9541 -10.36484,3.9541 -14.3189,0 -3.95407,-3.954 -3.95407,-10.3648 0,-14.3188 3.95406,-3.9541 10.36484,-3.9541 14.3189,0"
             style="fill:none;stroke:#d6d6d6;stroke-width:1;stroke-linecap:round;stroke-linejoin:round;stroke-miterlimit:10;stroke-dasharray:none;stroke-opacity:1"
             id="path1066" /></g><path
           d="m 46.52584,21.21334 c 2.96555,-2.96555 2.96555,-7.77363 0,-10.73918 -2.96555,-2.965553 -7.77363,-2.965553 -10.73918,0 -2.96555,2.96555 -2.96555,7.77363 0,10.73918 2.96555,2.96555 7.77363,2.96555 10.73918,0"
           style="fill:#ffffff;fill-opacity:1;fill-rule:nonzero;stroke:none"
           id="path1068" /><g
           id="g1070"
           transform="matrix(0.75,0,0,-0.75,-12,224.25)"><path
             d="m 78.03445,270.7156 c 3.95407,3.954 3.95407,10.3648 0,14.3188 -3.95406,3.9541 -10.36484,3.9541 -14.3189,0 -3.95407,-3.954 -3.95407,-10.3648 0,-14.3188 3.95406,-3.9541 10.36484,-3.9541 14.3189,0"
             style="fill:none;stroke:#d6d6d6;stroke-width:1;stroke-linecap:round;stroke-linejoin:round;stroke-miterlimit:10;stroke-dasharray:none;stroke-opacity:1"
             id="path1072" /></g><path
           d="m 78,55.5 h 36 c 4.9706,0 9,-4.02944 9,-9 v -36 c 0,-4.970563 -4.0294,-9 -9,-9 H 78 c -4.97056,0 -9,4.029437 -9,9 v 36 c 0,4.97056 4.02944,9 9,9 z"
           style="fill:#ffffff;fill-opacity:1;fill-rule:nonzero;stroke:none"
           id="path1074" /><g
           id="g1076"
           transform="matrix(0.75,0,0,-0.75,-12,224.25)"><path
             d="m 120,225 h 48 c 6.6274,0 12,5.3726 12,12 v 48 c 0,6.6274 -5.3726,12 -12,12 h -48 c -6.6274,0 -12,-5.3726 -12,-12 v -48 c 0,-6.6274 5.3726,-12 12,-12 z"
             style="fill:none;stroke:#000000;stroke-width:1;stroke-linecap:round;stroke-linejoin:round;stroke-miterlimit:10;stroke-dasharray:none;stroke-opacity:1"
             id="path1078" /></g><path
           d="m 88.71334,46.52584 c 2.96555,-2.96555 2.96555,-7.77363 0,-10.73918 -2.96555,-2.96555 -7.77363,-2.96555 -10.73918,0 -2.96555,2.96555 -2.96555,7.77363 0,10.73918 2.96555,2.96555 7.77363,2.96555 10.73918,0"
           style="fill:#ffffff;fill-opacity:1;fill-rule:nonzero;stroke:none"
           id="path1080" /><g
           id="g1082"
           transform="matrix(0.75,0,0,-0.75,-12,224.25)"><path
             d="m 134.2844,236.9656 c 3.9541,3.954 3.9541,10.3648 0,14.3188 -3.954,3.9541 -10.3648,3.9541 -14.3188,0 -3.9541,-3.954 -3.9541,-10.3648 0,-14.3188 3.954,-3.9541 10.3648,-3.9541 14.3188,0"
             style="fill:none;stroke:#d6d6d6;stroke-width:1;stroke-linecap:round;stroke-linejoin:round;stroke-miterlimit:10;stroke-dasharray:none;stroke-opacity:1"
             id="path1084" /></g><path
           d="m 88.71334,21.21334 c 2.96555,-2.96555 2.96555,-7.77363 0,-10.73918 -2.96555,-2.965553 -7.77363,-2.965553 -10.73918,0 -2.96555,2.96555 -2.96555,7.77363 0,10.73918 2.96555,2.96555 7.77363,2.96555 10.73918,0"
           style="fill:#ffffff;fill-opacity:1;fill-rule:nonzero;stroke:none"
           id="path1086" /><g
           id="g1088"
           transform="matrix(0.75,0,0,-0.75,-12,224.25)"><path
             d="m 134.2844,270.7156 c 3.9541,3.954 3.9541,10.3648 0,14.3188 -3.954,3.9541 -10.3648,3.9541 -14.3188,0 -3.9541,-3.954 -3.9541,-10.3648 0,-14.3188 3.954,-3.9541 10.3648,-3.9541 14.3188,0"
             style="fill:none;stroke:#d6d6d6;stroke-width:1;stroke-linecap:round;stroke-linejoin:round;stroke-miterlimit:10;stroke-dasharray:none;stroke-opacity:1"
             id="path1090" /></g><path
           d="m 114.0258,46.52584 c 2.9656,-2.96555 2.9656,-7.77363 0,-10.73918 -2.9655,-2.96555 -7.7736,-2.96555 -10.7391,0 -2.9656,2.96555 -2.9656,7.77363 0,10.73918 2.9655,2.96555 7.7736,2.96555 10.7391,0"
           style="fill:#ffffff;fill-opacity:1;fill-rule:nonzero;stroke:none"
           id="path1092" /><g
           id="g1094"
           transform="matrix(0.75,0,0,-0.75,-12,224.25)"><path
             d="m 168.0344,236.9656 c 3.9541,3.954 3.9541,10.3648 0,14.3188 -3.954,3.9541 -10.3648,3.9541 -14.3188,0 -3.9541,-3.954 -3.9541,-10.3648 0,-14.3188 3.954,-3.9541 10.3648,-3.9541 14.3188,0"
             style="fill:none;stroke:#d6d6d6;stroke-width:1;stroke-linecap:round;stroke-linejoin:round;stroke-miterlimit:10;stroke-dasharray:none;stroke-opacity:1"
             id="path1096" /></g><path
           d="m 114.0258,21.21334 c 2.9656,-2.96555 2.9656,-7.77363 0,-10.73918 -2.9655,-2.965553 -7.7736,-2.965553 -10.7391,0 -2.9656,2.96555 -2.9656,7.77363 0,10.73918 2.9655,2.96555 7.7736,2.96555 10.7391,0"
           style="fill:#ffffff;fill-opacity:1;fill-rule:nonzero;stroke:none"
           id="path1098" /><g
           id="g1100"
           transform="matrix(0.75,0,0,-0.75,-12,224.25)"><path
             d="m 168.0344,270.7156 c 3.9541,3.954 3.9541,10.3648 0,14.3188 -3.954,3.9541 -10.3648,3.9541 -14.3188,0 -3.9541,-3.954 -3.9541,-10.3648 0,-14.3188 3.954,-3.9541 10.3648,-3.9541 14.3188,0"
             style="fill:none;stroke:#d6d6d6;stroke-width:1;stroke-linecap:round;stroke-linejoin:round;stroke-miterlimit:10;stroke-dasharray:none;stroke-opacity:1"
             id="path1102" /></g><path
           d="m 145.5,55.5 h 36 c 4.9706,0 9,-4.02944 9,-9 v -36 c 0,-4.970563 -4.0294,-9 -9,-9 h -36 c -4.9706,0 -9,4.029437 -9,9 v 36 c 0,4.97056 4.0294,9 9,9 z"
           style="fill:#ffffff;fill-opacity:1;fill-rule:nonzero;stroke:none"
           id="path1104" /><g
           id="g1106"
           transform="matrix(0.75,0,0,-0.75,-12,224.25)"><path
             d="m 210,225 h 48 c 6.6274,0 12,5.3726 12,12 v 48 c 0,6.6274 -5.3726,12 -12,12 h -48 c -6.6274,0 -12,-5.3726 -12,-12 v -48 c 0,-6.6274 5.3726,-12 12,-12 z"
             style="fill:none;stroke:#000000;stroke-width:1;stroke-linecap:round;stroke-linejoin:round;stroke-miterlimit:10;stroke-dasharray:none;stroke-opacity:1"
             id="path1108" /></g><path
           d="m 156.2133,46.52584 c 2.9656,-2.96555 2.9656,-7.77363 0,-10.73918 -2.9655,-2.96555 -7.7736,-2.96555 -10.7391,0 -2.9656,2.96555 -2.9656,7.77363 0,10.73918 2.9655,2.96555 7.7736,2.96555 10.7391,0"
           style="fill:#ffffff;fill-opacity:1;fill-rule:nonzero;stroke:none"
           id="path1110" /><g
           id="g1112"
           transform="matrix(0.75,0,0,-0.75,-12,224.25)"><path
             d="m 224.2844,236.9656 c 3.9541,3.954 3.9541,10.3648 0,14.3188 -3.954,3.9541 -10.3648,3.9541 -14.3188,0 -3.9541,-3.954 -3.9541,-10.3648 0,-14.3188 3.954,-3.9541 10.3648,-3.9541 14.3188,0"
             style="fill:none;stroke:#d6d6d6;stroke-width:1;stroke-linecap:round;stroke-linejoin:round;stroke-miterlimit:10;stroke-dasharray:none;stroke-opacity:1"
             id="path1114" /></g><path
           d="m 156.2133,21.21334 c 2.9656,-2.96555 2.9656,-7.77363 0,-10.73918 -2.9655,-2.965553 -7.7736,-2.965553 -10.7391,0 -2.9656,2.96555 -2.9656,7.77363 0,10.73918 2.9655,2.96555 7.7736,2.96555 10.7391,0"
           style="fill:#ffffff;fill-opacity:1;fill-rule:nonzero;stroke:none"
           id="path1116" /><g
           id="g1118"
           transform="matrix(0.75,0,0,-0.75,-12,224.25)"><path
             d="m 224.2844,270.7156 c 3.9541,3.954 3.9541,10.3648 0,14.3188 -3.954,3.9541 -10.3648,3.9541 -14.3188,0 -3.9541,-3.954 -3.9541,-10.3648 0,-14.3188 3.954,-3.9541 10.3648,-3.9541 14.3188,0"
             style="fill:none;stroke:#d6d6d6;stroke-width:1;stroke-linecap:round;stroke-linejoin:round;stroke-miterlimit:10;stroke-dasharray:none;stroke-opacity:1"
             id="path1120" /></g><path
           d="m 181.5258,46.52584 c 2.9656,-2.96555 2.9656,-7.77363 0,-10.73918 -2.9655,-2.96555 -7.7736,-2.96555 -10.7391,0 -2.9656,2.96555 -2.9656,7.77363 0,10.73918 2.9655,2.96555 7.7736,2.96555 10.7391,0"
           style="fill:#ffffff;fill-opacity:1;fill-rule:nonzero;stroke:none"
           id="path1122" /><g
           id="g1124"
           transform="matrix(0.75,0,0,-0.75,-12,224.25)"><path
             d="m 258.0344,236.9656 c 3.9541,3.954 3.9541,10.3648 0,14.3188 -3.954,3.9541 -10.3648,3.9541 -14.3188,0 -3.9541,-3.954 -3.9541,-10.3648 0,-14.3188 3.954,-3.9541 10.3648,-3.9541 14.3188,0"
             style="fill:none;stroke:#d6d6d6;stroke-width:1;stroke-linecap:round;stroke-linejoin:round;stroke-miterlimit:10;stroke-dasharray:none;stroke-opacity:1"
             id="path1126" /></g><path
           d="m 181.5258,21.21334 c 2.9656,-2.96555 2.9656,-7.77363 0,-10.73918 -2.9655,-2.965553 -7.7736,-2.965553 -10.7391,0 -2.9656,2.96555 -2.9656,7.77363 0,10.73918 2.9655,2.96555 7.7736,2.96555 10.7391,0"
           style="fill:#ffffff;fill-opacity:1;fill-rule:nonzero;stroke:none"
           id="path1128" /><g
           id="g1130"
           transform="matrix(0.75,0,0,-0.75,-12,224.25)"><path
             d="m 258.0344,270.7156 c 3.9541,3.954 3.9541,10.3648 0,14.3188 -3.954,3.9541 -10.3648,3.9541 -14.3188,0 -3.9541,-3.954 -3.9541,-10.3648 0,-14.3188 3.954,-3.9541 10.3648,-3.9541 14.3188,0"
             style="fill:none;stroke:#d6d6d6;stroke-width:1;stroke-linecap:round;stroke-linejoin:round;stroke-miterlimit:10;stroke-dasharray:none;stroke-opacity:1"
             id="path1132" /></g><g
           id="g1134"
           transform="matrix(0.75,0,0,-0.75,214.0312,100.5)"><text
             transform="translate(-13.8,16.356)"
             style="font-variant:normal;font-weight:normal;font-size:46px;font-family:'Helvetica Neue';-inkscape-font-specification:HelveticaNeue;writing-mode:lr-tb;fill:#000000;fill-opacity:1;fill-rule:nonzero;stroke:none"
             id="text1138"><tspan
               x="0"
               y="0"
               id="tspan1136">=</tspan></text></g><path
           d="m 246.75,156.75 h 15.75 c 4.9706,0 9,-4.0294 9,-9 V 132 c 0,-4.9706 -4.0294,-9 -9,-9 h -15.75 c -4.9706,0 -9,4.0294 -9,9 v 15.75 c 0,4.9706 4.0294,9 9,9 z"
           style="fill:#ffffff;fill-opacity:1;fill-rule:nonzero;stroke:none"
           id="path1140" /><g
           id="g1142"
           transform="matrix(0.75,0,0,-0.75,-12,224.25)"><path
             d="m 345,90 h 21 c 6.6274,0 12,5.37258 12,12 v 21 c 0,6.6274 -5.3726,12 -12,12 h -21 c -6.6274,0 -12,-5.3726 -12,-12 v -21 c 0,-6.62742 5.3726,-12 12,-12 z"
             style="fill:none;stroke:#000000;stroke-width:1;stroke-linecap:round;stroke-linejoin:round;stroke-miterlimit:10;stroke-dasharray:none;stroke-opacity:1"
             id="path1144" /></g><path
           d="M 287.25,156.75 H 303 c 4.9706,0 9,-4.0294 9,-9 V 132 c 0,-4.9706 -4.0294,-9 -9,-9 h -15.75 c -4.9706,0 -9,4.0294 -9,9 v 15.75 c 0,4.9706 4.0294,9 9,9 z"
           style="fill:#ffffff;fill-opacity:1;fill-rule:nonzero;stroke:none"
           id="path1146" /><g
           id="g1148"
           transform="matrix(0.75,0,0,-0.75,-12,224.25)"><path
             d="m 399,90 h 21 c 6.6274,0 12,5.37258 12,12 v 21 c 0,6.6274 -5.3726,12 -12,12 h -21 c -6.6274,0 -12,-5.3726 -12,-12 v -21 c 0,-6.62742 5.3726,-12 12,-12 z"
             style="fill:none;stroke:#000000;stroke-width:1;stroke-linecap:round;stroke-linejoin:round;stroke-miterlimit:10;stroke-dasharray:none;stroke-opacity:1"
             id="path1150" /></g><path
           d="m 327.75,156.75 h 15.75 c 4.9706,0 9,-4.0294 9,-9 V 132 c 0,-4.9706 -4.0294,-9 -9,-9 h -15.75 c -4.9706,0 -9,4.0294 -9,9 v 15.75 c 0,4.9706 4.0294,9 9,9 z"
           style="fill:#ffffff;fill-opacity:1;fill-rule:nonzero;stroke:none"
           id="path1152" /><g
           id="g1154"
           transform="matrix(0.75,0,0,-0.75,-12,224.25)"><path
             d="m 453,90 h 21 c 6.6274,0 12,5.37258 12,12 v 21 c 0,6.6274 -5.3726,12 -12,12 h -21 c -6.6274,0 -12,-5.3726 -12,-12 v -21 c 0,-6.62742 5.3726,-12 12,-12 z"
             style="fill:none;stroke:#000000;stroke-width:1;stroke-linecap:round;stroke-linejoin:round;stroke-miterlimit:10;stroke-dasharray:none;stroke-opacity:1"
             id="path1156" /></g><path
           d="m 246.75,116.25 h 15.75 c 4.9706,0 9,-4.0294 9,-9 V 91.5 c 0,-4.97056 -4.0294,-9 -9,-9 h -15.75 c -4.9706,0 -9,4.02944 -9,9 v 15.75 c 0,4.9706 4.0294,9 9,9 z"
           style="fill:#ffffff;fill-opacity:1;fill-rule:nonzero;stroke:none"
           id="path1158" /><g
           id="g1160"
           transform="matrix(0.75,0,0,-0.75,-12,224.25)"><path
             d="m 345,144 h 21 c 6.6274,0 12,5.3726 12,12 v 21 c 0,6.6274 -5.3726,12 -12,12 h -21 c -6.6274,0 -12,-5.3726 -12,-12 v -21 c 0,-6.6274 5.3726,-12 12,-12 z"
             style="fill:none;stroke:#000000;stroke-width:1;stroke-linecap:round;stroke-linejoin:round;stroke-miterlimit:10;stroke-dasharray:none;stroke-opacity:1"
             id="path1162" /></g><path
           d="M 287.25,116.25 H 303 c 4.9706,0 9,-4.0294 9,-9 V 91.5 c 0,-4.97056 -4.0294,-9 -9,-9 h -15.75 c -4.9706,0 -9,4.02944 -9,9 v 15.75 c 0,4.9706 4.0294,9 9,9 z"
           style="fill:#ffffff;fill-opacity:1;fill-rule:nonzero;stroke:none"
           id="path1164" /><g
           id="g1166"
           transform="matrix(0.75,0,0,-0.75,-12,224.25)"><path
             d="m 399,144 h 21 c 6.6274,0 12,5.3726 12,12 v 21 c 0,6.6274 -5.3726,12 -12,12 h -21 c -6.6274,0 -12,-5.3726 -12,-12 v -21 c 0,-6.6274 5.3726,-12 12,-12 z"
             style="fill:none;stroke:#000000;stroke-width:1;stroke-linecap:round;stroke-linejoin:round;stroke-miterlimit:10;stroke-dasharray:none;stroke-opacity:1"
             id="path1168" /></g><path
           d="m 327.75,116.25 h 15.75 c 4.9706,0 9,-4.0294 9,-9 V 91.5 c 0,-4.97056 -4.0294,-9 -9,-9 h -15.75 c -4.9706,0 -9,4.02944 -9,9 v 15.75 c 0,4.9706 4.0294,9 9,9 z"
           style="fill:#ffffff;fill-opacity:1;fill-rule:nonzero;stroke:none"
           id="path1170" /><g
           id="g1172"
           transform="matrix(0.75,0,0,-0.75,-12,224.25)"><path
             d="m 453,144 h 21 c 6.6274,0 12,5.3726 12,12 v 21 c 0,6.6274 -5.3726,12 -12,12 h -21 c -6.6274,0 -12,-5.3726 -12,-12 v -21 c 0,-6.6274 5.3726,-12 12,-12 z"
             style="fill:none;stroke:#000000;stroke-width:1;stroke-linecap:round;stroke-linejoin:round;stroke-miterlimit:10;stroke-dasharray:none;stroke-opacity:1"
             id="path1174" /></g><path
           d="m 246.75,75.75 h 15.75 c 4.9706,0 9,-4.02944 9,-9 V 51 c 0,-4.97056 -4.0294,-9 -9,-9 h -15.75 c -4.9706,0 -9,4.02944 -9,9 v 15.75 c 0,4.97056 4.0294,9 9,9 z"
           style="fill:#ffffff;fill-opacity:1;fill-rule:nonzero;stroke:none"
           id="path1176" /><g
           id="g1178"
           transform="matrix(0.75,0,0,-0.75,-12,224.25)"><path
             d="m 345,198 h 21 c 6.6274,0 12,5.3726 12,12 v 21 c 0,6.6274 -5.3726,12 -12,12 h -21 c -6.6274,0 -12,-5.3726 -12,-12 v -21 c 0,-6.6274 5.3726,-12 12,-12 z"
             style="fill:none;stroke:#000000;stroke-width:1;stroke-linecap:round;stroke-linejoin:round;stroke-miterlimit:10;stroke-dasharray:none;stroke-opacity:1"
             id="path1180" /></g><path
           d="M 287.25,75.75 H 303 c 4.9706,0 9,-4.02944 9,-9 V 51 c 0,-4.97056 -4.0294,-9 -9,-9 h -15.75 c -4.9706,0 -9,4.02944 -9,9 v 15.75 c 0,4.97056 4.0294,9 9,9 z"
           style="fill:#ffffff;fill-opacity:1;fill-rule:nonzero;stroke:none"
           id="path1182" /><g
           id="g1184"
           transform="matrix(0.75,0,0,-0.75,-12,224.25)"><path
             d="m 399,198 h 21 c 6.6274,0 12,5.3726 12,12 v 21 c 0,6.6274 -5.3726,12 -12,12 h -21 c -6.6274,0 -12,-5.3726 -12,-12 v -21 c 0,-6.6274 5.3726,-12 12,-12 z"
             style="fill:none;stroke:#000000;stroke-width:1;stroke-linecap:round;stroke-linejoin:round;stroke-miterlimit:10;stroke-dasharray:none;stroke-opacity:1"
             id="path1186" /></g><path
           d="m 327.75,75.75 h 15.75 c 4.9706,0 9,-4.02944 9,-9 V 51 c 0,-4.97056 -4.0294,-9 -9,-9 h -15.75 c -4.9706,0 -9,4.02944 -9,9 v 15.75 c 0,4.97056 4.0294,9 9,9 z"
           style="fill:#ffffff;fill-opacity:1;fill-rule:nonzero;stroke:none"
           id="path1188" /><g
           id="g1190"
           transform="matrix(0.75,0,0,-0.75,-12,224.25)"><path
             d="m 453,198 h 21 c 6.6274,0 12,5.3726 12,12 v 21 c 0,6.6274 -5.3726,12 -12,12 h -21 c -6.6274,0 -12,-5.3726 -12,-12 v -21 c 0,-6.6274 5.3726,-12 12,-12 z"
             style="fill:none;stroke:#000000;stroke-width:1;stroke-linecap:round;stroke-linejoin:round;stroke-miterlimit:10;stroke-dasharray:none;stroke-opacity:1"
             id="path1192" /></g><g
           id="g1194"
           transform="matrix(0.75,0,0,-0.75,96,208.5)"><text
             transform="translate(-30.088,5.776001)"
             style="font-variant:normal;font-weight:normal;font-size:16px;font-family:'Helvetica Neue';-inkscape-font-specification:HelveticaNeue;writing-mode:lr-tb;fill:#000000;fill-opacity:1;fill-rule:nonzero;stroke:none"
             id="text1198"><tspan
               x="0 8.8959999 17.792 22.24 31.136 34.688 43.584 52.175999"
               y="0"
               id="tspan1196">36 Lines</tspan></text></g><g
           id="g1200"
           transform="matrix(0.75,0,0,-0.75,295.125,174.75)"><text
             transform="translate(-41.792,5.776001)"
             style="font-variant:normal;font-weight:normal;font-size:16px;font-family:'Helvetica Neue';-inkscape-font-specification:HelveticaNeue;writing-mode:lr-tb;fill:#000000;fill-opacity:1;fill-rule:nonzero;stroke:none"
             id="text1204"><tspan
               x="0 8.8959999 13.344 22.528 31.424 40.32 48.911999 53.952 57.504002 66.688004 75.584"
               y="0"
               id="tspan1202">9 Functions</tspan></text></g></g></g></g></svg>
