<?xml version="1.0" encoding="UTF-8" standalone="no"?>
<svg
   xmlns:dc="http://purl.org/dc/elements/1.1/"
   xmlns:cc="http://creativecommons.org/ns#"
   xmlns:rdf="http://www.w3.org/1999/02/22-rdf-syntax-ns#"
   xmlns:svg="http://www.w3.org/2000/svg"
   xmlns="http://www.w3.org/2000/svg"
   version="1.1"
   id="svg1224"
   xml:space="preserve"
   width="210"
   height="215"
   viewBox="0 0 210 215"><metadata
     id="metadata1230"><rdf:RDF><cc:Work
         rdf:about=""><dc:format>image/svg+xml</dc:format><dc:type
           rdf:resource="http://purl.org/dc/dcmitype/StillImage" /><dc:title></dc:title></cc:Work></rdf:RDF></metadata><defs
     id="defs1228"><clipPath
       clipPathUnits="userSpaceOnUse"
       id="clipPath1242"><path
         d="M 0,0 H 157.5 V 171.75 H 0 Z"
         id="path1240" /></clipPath></defs><g
     id="g1232"
     transform="matrix(1.3333333,0,0,-1.3333333,0,229)"><g
       id="g1234" /><g
       id="g1236"><g
         id="g1238"
         clip-path="url(#clipPath1242)"><path
           d="m 24.75,135.9888 h 36 c 4.97056,0 9,-4.0294 9,-9 V 90.98883 c 0,-4.97057 -4.02944,-9 -9,-9 h -36 c -4.97056,0 -9,4.02943 -9,9 v 35.99997 c 0,4.9706 4.02944,9 9,9 z"
           style="fill:#ffffff;fill-opacity:1;fill-rule:nonzero;stroke:none"
           id="path1244" /><g
           id="g1246"
           transform="matrix(0.75,0,0,-0.75,-16.5,183.75)"><path
             d="m 55,63.68157 h 48 c 6.6274,0 12,5.37258 12,12 v 48.00003 c 0,6.6274 -5.3726,12 -12,12 H 55 c -6.62742,0 -12,-5.3726 -12,-12 V 75.68157 c 0,-6.62742 5.37258,-12 12,-12 z"
             style="fill:none;stroke:#000000;stroke-width:1;stroke-linecap:round;stroke-linejoin:round;stroke-miterlimit:10;stroke-dasharray:none;stroke-opacity:1"
             id="path1248" /></g><path
           d="m 35.46334,127.0147 c 2.96555,-2.9656 2.96555,-7.7737 0,-10.7392 -2.96555,-2.9656 -7.77363,-2.9656 -10.73918,0 -2.96555,2.9655 -2.96555,7.7736 0,10.7392 2.96555,2.9655 7.77363,2.9655 10.73918,0"
           style="fill:#ffffff;fill-opacity:1;fill-rule:nonzero;stroke:none"
           id="path1250" /><g
           id="g1252"
           transform="matrix(0.75,0,0,-0.75,-16.5,183.75)"><path
             d="m 69.28445,75.64712 c 3.95407,3.95405 3.95407,10.36484 0,14.31889 -3.95406,3.95408 -10.36484,3.95408 -14.3189,0 -3.95407,-3.95405 -3.95407,-10.36484 0,-14.31889 3.95406,-3.95408 10.36484,-3.95408 14.3189,0"
             style="fill:none;stroke:#d6d6d6;stroke-width:1;stroke-linecap:round;stroke-linejoin:round;stroke-miterlimit:10;stroke-dasharray:none;stroke-opacity:1"
             id="path1254" /></g><path
           d="m 35.46334,101.7022 c 2.96555,-2.96558 2.96555,-7.77367 0,-10.73921 -2.96555,-2.96556 -7.77363,-2.96556 -10.73918,0 -2.96555,2.96554 -2.96555,7.77363 0,10.73921 2.96555,2.9655 7.77363,2.9655 10.73918,0"
           style="fill:#ffffff;fill-opacity:1;fill-rule:nonzero;stroke:none"
           id="path1256" /><g
           id="g1258"
           transform="matrix(0.75,0,0,-0.75,-16.5,183.75)"><path
             d="m 69.28445,109.3971 c 3.95407,3.9541 3.95407,10.3649 0,14.3189 -3.95406,3.9541 -10.36484,3.9541 -14.3189,0 -3.95407,-3.954 -3.95407,-10.3648 0,-14.3189 3.95406,-3.9541 10.36484,-3.9541 14.3189,0"
             style="fill:none;stroke:#d6d6d6;stroke-width:1;stroke-linecap:round;stroke-linejoin:round;stroke-miterlimit:10;stroke-dasharray:none;stroke-opacity:1"
             id="path1260" /></g><path
           d="m 60.77584,127.0147 c 2.96555,-2.9656 2.96555,-7.7737 0,-10.7392 -2.96555,-2.9656 -7.77363,-2.9656 -10.73918,0 -2.96555,2.9655 -2.96555,7.7736 0,10.7392 2.96555,2.9655 7.77363,2.9655 10.73918,0"
           style="fill:#ffffff;fill-opacity:1;fill-rule:nonzero;stroke:none"
           id="path1262" /><g
           id="g1264"
           transform="matrix(0.75,0,0,-0.75,-16.5,183.75)"><path
             d="m 103.0344,75.64712 c 3.9541,3.95405 3.9541,10.36484 0,14.31889 -3.95401,3.95408 -10.36479,3.95408 -14.31885,0 -3.95407,-3.95405 -3.95407,-10.36484 0,-14.31889 3.95406,-3.95408 10.36484,-3.95408 14.31885,0"
             style="fill:none;stroke:#d6d6d6;stroke-width:1;stroke-linecap:round;stroke-linejoin:round;stroke-miterlimit:10;stroke-dasharray:none;stroke-opacity:1"
             id="path1266" /></g><path
           d="m 60.77584,101.7022 c 2.96555,-2.96558 2.96555,-7.77367 0,-10.73921 -2.96555,-2.96556 -7.77363,-2.96556 -10.73918,0 -2.96555,2.96554 -2.96555,7.77363 0,10.73921 2.96555,2.9655 7.77363,2.9655 10.73918,0"
           style="fill:#ffffff;fill-opacity:1;fill-rule:nonzero;stroke:none"
           id="path1268" /><g
           id="g1270"
           transform="matrix(0.75,0,0,-0.75,-16.5,183.75)"><path
             d="m 103.0344,109.3971 c 3.9541,3.9541 3.9541,10.3649 0,14.3189 -3.95401,3.9541 -10.36479,3.9541 -14.31885,0 -3.95407,-3.954 -3.95407,-10.3648 0,-14.3189 3.95406,-3.9541 10.36484,-3.9541 14.31885,0"
             style="fill:none;stroke:#d6d6d6;stroke-width:1;stroke-linecap:round;stroke-linejoin:round;stroke-miterlimit:10;stroke-dasharray:none;stroke-opacity:1"
             id="path1272" /></g><path
           d="m 8.25,119.25 13.5,6.75 -13.5,6.75 z"
           style="fill:#ffffff;fill-opacity:1;fill-rule:nonzero;stroke:none"
           id="path1274" /><g
           id="g1276"
           transform="matrix(0.75,0,0,-0.75,-16.5,183.75)"><path
             d="M 33,86 51,77 33,68 Z"
             style="fill:none;stroke:#000000;stroke-width:1;stroke-linecap:round;stroke-linejoin:round;stroke-miterlimit:10;stroke-dasharray:none;stroke-opacity:1"
             id="path1278" /></g><path
           d="m 8.25,102.75 13.5,6.75 -13.5,6.75 z"
           style="fill:#ffffff;fill-opacity:1;fill-rule:nonzero;stroke:none"
           id="path1280" /><g
           id="g1282"
           transform="matrix(0.75,0,0,-0.75,-16.5,183.75)"><path
             d="M 33,108 51,99 33,90 Z"
             style="fill:none;stroke:#000000;stroke-width:1;stroke-linecap:round;stroke-linejoin:round;stroke-miterlimit:10;stroke-dasharray:none;stroke-opacity:1"
             id="path1284" /></g><path
           d="M 8.25,86.25 21.75,93 8.25,99.75 Z"
           style="fill:#ffffff;fill-opacity:1;fill-rule:nonzero;stroke:none"
           id="path1286" /><g
           id="g1288"
           transform="matrix(0.75,0,0,-0.75,-16.5,183.75)"><path
             d="m 33,130 18,-9 -18,-9 z"
             style="fill:none;stroke:#000000;stroke-width:1;stroke-linecap:round;stroke-linejoin:round;stroke-miterlimit:10;stroke-dasharray:none;stroke-opacity:1"
             id="path1290" /></g><g
           id="g1292"
           transform="matrix(0.75,0,0,-0.75,83.25,160.5)"><text
             transform="translate(-80.912,5.776001)"
             style="font-variant:normal;font-weight:normal;font-size:16px;font-family:'Helvetica Neue';-inkscape-font-specification:HelveticaNeue;writing-mode:lr-tb;fill:#000000;fill-opacity:1;fill-rule:nonzero;stroke:none"
             id="text1296"><tspan
               x="0 10.368 19.264 27.856001 32.896 42.080002 55.728001 63.728001 68.176003 77.360001 82.096001 86.543999 95.136002 99.584 108.768 117.664 126.56 135.15199 140.192 143.744 152.92799"
               y="0"
               id="tspan1294">Anatomy of a Function</tspan></text></g><path
           d="m 66.75,102.2388 13.5,6.75 -13.5,6.75 z"
           style="fill:#ffffff;fill-opacity:1;fill-rule:nonzero;stroke:none"
           id="path1298" /><g
           id="g1300"
           transform="matrix(0.75,0,0,-0.75,-16.5,183.75)"><path
             d="m 111,108.6816 18,-9.00003 -18,-9 z"
             style="fill:none;stroke:#000000;stroke-width:1;stroke-linecap:round;stroke-linejoin:round;stroke-miterlimit:10;stroke-dasharray:none;stroke-opacity:1"
             id="path1302" /></g><g
           id="g1304"
           transform="matrix(0.75,0,0,-0.75,103.125,136.5)"><text
             transform="translate(-21.5,5.776001)"
             style="font-variant:normal;font-weight:normal;font-size:16px;font-family:'Helvetica Neue';-inkscape-font-specification:HelveticaNeue;writing-mode:lr-tb;fill:#000000;fill-opacity:1;fill-rule:nonzero;stroke:none"
             id="text1308"><tspan
               x="0 11.552 20.143999 33.792"
               y="0"
               id="tspan1306">Name</tspan></text></g><g
           id="g1310"
           transform="matrix(0.75,0,0,-0.75,-16.5,183.75)"><path
             d="m 106,143.5 v 9 H 52 v -9"
             style="fill:none;stroke:#000000;stroke-width:1;stroke-linecap:round;stroke-linejoin:round;stroke-miterlimit:10;stroke-dasharray:none;stroke-opacity:1"
             id="path1312" /></g><g
           id="g1314"
           transform="matrix(0.75,0,0,-0.75,-16.5,183.75)"><path
             d="m 133,63 h -5.5"
             style="fill:none;stroke:#000000;stroke-width:1;stroke-linecap:round;stroke-linejoin:round;stroke-miterlimit:10;stroke-dasharray:none;stroke-opacity:1"
             id="path1316" /></g><path
           d="m 78.7955,137.2955 c 0.43933,-0.4393 0.43933,-1.1517 0,-1.591 -0.43934,-0.4393 -1.15166,-0.4393 -1.591,0 -0.43933,0.4393 -0.43933,1.1517 0,1.591 0.43934,0.4393 1.15166,0.4393 1.591,0"
           style="fill:#000000;fill-opacity:1;fill-rule:nonzero;stroke:none"
           id="path1318" /><g
           id="g1320"
           transform="matrix(0.75,0,0,-0.75,-16.5,183.75)"><path
             d="m 127.0607,61.93934 c 0.5857,0.58579 0.5857,1.53553 0,2.12132 -0.5858,0.58579 -1.5356,0.58579 -2.1214,0 -0.5857,-0.58579 -0.5857,-1.53553 0,-2.12132 0.5858,-0.58578 1.5356,-0.58578 2.1214,0"
             style="fill:none;stroke:#000000;stroke-width:1;stroke-linecap:butt;stroke-linejoin:miter;stroke-miterlimit:10;stroke-dasharray:none;stroke-opacity:1"
             id="path1322" /></g><path
           d="M 22.5,145.5 H 63 V 132 H 22.5 Z"
           style="fill:#ffffff;fill-opacity:1;fill-rule:nonzero;stroke:none"
           id="path1324" /><g
           id="g1326"
           transform="matrix(0.75,0,0,-0.75,-16.5,183.75)"><path
             d="m 52,51 h 54 V 69 H 52 Z"
             style="fill:none;stroke:#000000;stroke-width:1;stroke-linecap:round;stroke-linejoin:round;stroke-miterlimit:10;stroke-dasharray:none;stroke-opacity:1"
             id="path1328" /></g><g
           id="g1330"
           transform="matrix(0.75,0,0,-0.75,42.75,138.75)"><text
             transform="translate(-18.00293,3)"
             style="font-variant:normal;font-weight:normal;font-size:12px;font-family:Courier;-inkscape-font-specification:Courier;writing-mode:lr-tb;fill:#000000;fill-opacity:1;fill-rule:nonzero;stroke:none"
             id="text1334"><tspan
               x="0 7.2012 14.4024 21.6036 28.8048"
               y="0"
               id="tspan1332">doFoo</tspan></text></g><g
           id="g1336"
           transform="matrix(0.5303301,-0.5303301,-0.5303301,-0.5303301,34.49536,38.59653)"><text
             transform="translate(-45.00344,5.776001)"
             style="font-variant:normal;font-weight:normal;font-size:16px;font-family:'Helvetica Neue';-inkscape-font-specification:HelveticaNeue;writing-mode:lr-tb;fill:#000000;fill-opacity:1;fill-rule:nonzero;stroke:none"
             id="text1340"><tspan
               x="0 10.368 18.959999 24.288 32.880001 46.528 55.119999 60.16 68.751999 74.080002"
               y="0"
               id="tspan1338">Parameters</tspan></text></g><g
           id="g1342"
           transform="matrix(0.75,0,0,-0.75,-16.5,183.75)"><path
             d="M 39,153 V 138.5"
             style="fill:none;stroke:#000000;stroke-width:1;stroke-linecap:round;stroke-linejoin:round;stroke-miterlimit:10;stroke-dasharray:none;stroke-opacity:1"
             id="path1344" /></g><path
           d="m 13.54549,80.2045 c -0.43933,-0.43933 -1.15165,-0.43933 -1.59098,0 -0.43934,0.43934 -0.43934,1.15166 0,1.591 0.43933,0.43933 1.15165,0.43933 1.59098,0 0.43934,-0.43934 0.43934,-1.15166 0,-1.591"
           style="fill:#000000;fill-opacity:1;fill-rule:nonzero;stroke:none"
           id="path1346" /><g
           id="g1348"
           transform="matrix(0.75,0,0,-0.75,-16.5,183.75)"><path
             d="m 40.06066,138.0607 c -0.58579,0.5857 -1.53553,0.5857 -2.12132,0 -0.58578,-0.5858 -0.58578,-1.5356 0,-2.1214 0.58579,-0.5857 1.53553,-0.5857 2.12132,0 0.58578,0.5858 0.58578,1.5356 0,2.1214"
             style="fill:none;stroke:#000000;stroke-width:1;stroke-linecap:butt;stroke-linejoin:miter;stroke-miterlimit:10;stroke-dasharray:none;stroke-opacity:1"
             id="path1350" /></g><g
           id="g1352"
           transform="matrix(0.75,0,0,-0.75,-16.5,183.75)"><path
             d="M 120,153 V 111.5"
             style="fill:none;stroke:#000000;stroke-width:1;stroke-linecap:round;stroke-linejoin:round;stroke-miterlimit:10;stroke-dasharray:none;stroke-opacity:1"
             id="path1354" /></g><path
           d="m 74.2955,100.4545 c -0.43934,-0.4393 -1.15166,-0.4393 -1.591,0 -0.43933,0.4393 -0.43933,1.1517 0,1.591 0.43934,0.4393 1.15166,0.4393 1.591,0 0.43933,-0.4393 0.43933,-1.1517 0,-1.591"
           style="fill:#000000;fill-opacity:1;fill-rule:nonzero;stroke:none"
           id="path1356" /><g
           id="g1358"
           transform="matrix(0.75,0,0,-0.75,-16.5,183.75)"><path
             d="m 121.0607,111.0607 c -0.5858,0.5857 -1.5356,0.5857 -2.1214,0 -0.5857,-0.5858 -0.5857,-1.5356 0,-2.1214 0.5858,-0.5857 1.5356,-0.5857 2.1214,0 0.5857,0.5858 0.5857,1.5356 0,2.1214"
             style="fill:none;stroke:#000000;stroke-width:1;stroke-linecap:butt;stroke-linejoin:miter;stroke-miterlimit:10;stroke-dasharray:none;stroke-opacity:1"
             id="path1360" /></g><g
           id="g1362"
           transform="matrix(0.5303301,-0.5303301,-0.5303301,-0.5303301,96.89429,36.5882)"><text
             transform="translate(-48.09798,5.776001)"
             style="font-variant:normal;font-weight:normal;font-size:16px;font-family:'Helvetica Neue';-inkscape-font-specification:HelveticaNeue;writing-mode:lr-tb;fill:#000000;fill-opacity:1;fill-rule:nonzero;stroke:none"
             id="text1366"><tspan
               x="0 10.96 19.552 24.591999 33.487999 39.104 48 52.448002 61.344002 69.935997 73.487999 82.384003"
               y="0"
               id="tspan1364">Return Value</tspan></text></g><g
           id="g1368"
           transform="matrix(0.5303301,-0.5303301,-0.5303301,-0.5303301,62.99536,38.59653)"><text
             transform="translate(-45.00344,5.776001)"
             style="font-variant:normal;font-weight:normal;font-size:16px;font-family:'Helvetica Neue';-inkscape-font-specification:HelveticaNeue;writing-mode:lr-tb;fill:#000000;fill-opacity:1;fill-rule:nonzero;stroke:none"
             id="text1372"><tspan
               x="0 10.96 20.143999 29.632"
               y="0"
               id="tspan1370">Body</tspan></text></g></g></g></g></svg>
