<?xml version="1.0" encoding="UTF-8" standalone="no"?>
<svg
   xmlns:dc="http://purl.org/dc/elements/1.1/"
   xmlns:cc="http://creativecommons.org/ns#"
   xmlns:rdf="http://www.w3.org/1999/02/22-rdf-syntax-ns#"
   xmlns:svg="http://www.w3.org/2000/svg"
   xmlns="http://www.w3.org/2000/svg"
   version="1.1"
   id="svg1392"
   xml:space="preserve"
   width="256"
   height="285"
   viewBox="0 0 256 285"><metadata
     id="metadata1398"><rdf:RDF><cc:Work
         rdf:about=""><dc:format>image/svg+xml</dc:format><dc:type
           rdf:resource="http://purl.org/dc/dcmitype/StillImage" /><dc:title></dc:title></cc:Work></rdf:RDF></metadata><defs
     id="defs1396"><clipPath
       clipPathUnits="userSpaceOnUse"
       id="clipPath1410"><path
         d="M 0,0 H 192 V 213.75 H 0 Z"
         id="path1408" /></clipPath></defs><g
     id="g1400"
     transform="matrix(1.3333333,0,0,-1.3333333,0,285)"><g
       id="g1402" /><g
       id="g1404"><g
         id="g1406"
         clip-path="url(#clipPath1410)"><path
           d="m 36.75,177.75 h 148.5 v -135 H 36.75 Z"
           style="fill:#ffffff;fill-opacity:1;fill-rule:nonzero;stroke:none"
           id="path1412" /><g
           id="g1414"
           transform="matrix(0.75,0,0,-0.75,-44.25,225)"><path
             d="M 108,63 H 306 V 243 H 108 Z"
             style="fill:none;stroke:#000000;stroke-width:1;stroke-linecap:round;stroke-linejoin:round;stroke-miterlimit:10;stroke-dasharray:none;stroke-opacity:1"
             id="path1416" /></g><path
           d="m 23.25,150.75 h 27 v -13.5 h -27 z"
           style="fill:#ffffff;fill-opacity:1;fill-rule:nonzero;stroke:none"
           id="path1418" /><g
           id="g1420"
           transform="matrix(0.75,0,0,-0.75,-44.25,225)"><path
             d="m 90,99 h 36 v 18 H 90 Z"
             style="fill:none;stroke:#000000;stroke-width:1;stroke-linecap:round;stroke-linejoin:round;stroke-miterlimit:10;stroke-dasharray:none;stroke-opacity:1"
             id="path1422" /></g><path
           d="m 23.25,117 h 27 v -13.5 h -27 z"
           style="fill:#ffffff;fill-opacity:1;fill-rule:nonzero;stroke:none"
           id="path1424" /><g
           id="g1426"
           transform="matrix(0.75,0,0,-0.75,-44.25,225)"><path
             d="m 90,144 h 36 v 18 H 90 Z"
             style="fill:none;stroke:#000000;stroke-width:1;stroke-linecap:round;stroke-linejoin:round;stroke-miterlimit:10;stroke-dasharray:none;stroke-opacity:1"
             id="path1428" /></g><path
           d="m 23.25,83.25 h 27 v -13.5 h -27 z"
           style="fill:#ffffff;fill-opacity:1;fill-rule:nonzero;stroke:none"
           id="path1430" /><g
           id="g1432"
           transform="matrix(0.75,0,0,-0.75,-44.25,225)"><path
             d="m 90,189 h 36 v 18 H 90 Z"
             style="fill:none;stroke:#000000;stroke-width:1;stroke-linecap:round;stroke-linejoin:round;stroke-miterlimit:10;stroke-dasharray:none;stroke-opacity:1"
             id="path1434" /></g><path
           d="m 63.75,164.25 h 27 v -13.5 h -27 z"
           style="fill:#ffffff;fill-opacity:1;fill-rule:nonzero;stroke:none"
           id="path1436" /><g
           id="g1438"
           transform="matrix(0.75,0,0,-0.75,-44.25,225)"><path
             d="m 144,81 h 36 v 18 h -36 z"
             style="fill:none;stroke:#d6d6d6;stroke-width:1;stroke-linecap:round;stroke-linejoin:round;stroke-miterlimit:10;stroke-dasharray:none;stroke-opacity:1"
             id="path1440" /></g><path
           d="m 63.75,144 h 27 v -13.5 h -27 z"
           style="fill:#ffffff;fill-opacity:1;fill-rule:nonzero;stroke:none"
           id="path1442" /><g
           id="g1444"
           transform="matrix(0.75,0,0,-0.75,-44.25,225)"><path
             d="m 144,108 h 36 v 18 h -36 z"
             style="fill:none;stroke:#d6d6d6;stroke-width:1;stroke-linecap:round;stroke-linejoin:round;stroke-miterlimit:10;stroke-dasharray:none;stroke-opacity:1"
             id="path1446" /></g><path
           d="m 63.75,123.75 h 27 v -13.5 h -27 z"
           style="fill:#ffffff;fill-opacity:1;fill-rule:nonzero;stroke:none"
           id="path1448" /><g
           id="g1450"
           transform="matrix(0.75,0,0,-0.75,-44.25,225)"><path
             d="m 144,135 h 36 v 18 h -36 z"
             style="fill:none;stroke:#d6d6d6;stroke-width:1;stroke-linecap:round;stroke-linejoin:round;stroke-miterlimit:10;stroke-dasharray:none;stroke-opacity:1"
             id="path1452" /></g><path
           d="m 63.75,103.5 h 27 V 90 h -27 z"
           style="fill:#ffffff;fill-opacity:1;fill-rule:nonzero;stroke:none"
           id="path1454" /><g
           id="g1456"
           transform="matrix(0.75,0,0,-0.75,-44.25,225)"><path
             d="m 144,162 h 36 v 18 h -36 z"
             style="fill:none;stroke:#d6d6d6;stroke-width:1;stroke-linecap:round;stroke-linejoin:round;stroke-miterlimit:10;stroke-dasharray:none;stroke-opacity:1"
             id="path1458" /></g><path
           d="m 63.75,83.25 h 27 v -13.5 h -27 z"
           style="fill:#ffffff;fill-opacity:1;fill-rule:nonzero;stroke:none"
           id="path1460" /><g
           id="g1462"
           transform="matrix(0.75,0,0,-0.75,-44.25,225)"><path
             d="m 144,189 h 36 v 18 h -36 z"
             style="fill:none;stroke:#d6d6d6;stroke-width:1;stroke-linecap:round;stroke-linejoin:round;stroke-miterlimit:10;stroke-dasharray:none;stroke-opacity:1"
             id="path1464" /></g><path
           d="m 63.75,63 h 27 V 49.5 h -27 z"
           style="fill:#ffffff;fill-opacity:1;fill-rule:nonzero;stroke:none"
           id="path1466" /><g
           id="g1468"
           transform="matrix(0.75,0,0,-0.75,-44.25,225)"><path
             d="m 144,216 h 36 v 18 h -36 z"
             style="fill:none;stroke:#d6d6d6;stroke-width:1;stroke-linecap:round;stroke-linejoin:round;stroke-miterlimit:10;stroke-dasharray:none;stroke-opacity:1"
             id="path1470" /></g><path
           d="m 104.25,164.25 h 27 v -13.5 h -27 z"
           style="fill:#ffffff;fill-opacity:1;fill-rule:nonzero;stroke:none"
           id="path1472" /><g
           id="g1474"
           transform="matrix(0.75,0,0,-0.75,-44.25,225)"><path
             d="m 198,81 h 36 v 18 h -36 z"
             style="fill:none;stroke:#d6d6d6;stroke-width:1;stroke-linecap:round;stroke-linejoin:round;stroke-miterlimit:10;stroke-dasharray:none;stroke-opacity:1"
             id="path1476" /></g><path
           d="m 104.25,144 h 27 v -13.5 h -27 z"
           style="fill:#ffffff;fill-opacity:1;fill-rule:nonzero;stroke:none"
           id="path1478" /><g
           id="g1480"
           transform="matrix(0.75,0,0,-0.75,-44.25,225)"><path
             d="m 198,108 h 36 v 18 h -36 z"
             style="fill:none;stroke:#d6d6d6;stroke-width:1;stroke-linecap:round;stroke-linejoin:round;stroke-miterlimit:10;stroke-dasharray:none;stroke-opacity:1"
             id="path1482" /></g><path
           d="m 104.25,123.75 h 27 v -13.5 h -27 z"
           style="fill:#ffffff;fill-opacity:1;fill-rule:nonzero;stroke:none"
           id="path1484" /><g
           id="g1486"
           transform="matrix(0.75,0,0,-0.75,-44.25,225)"><path
             d="m 198,135 h 36 v 18 h -36 z"
             style="fill:none;stroke:#d6d6d6;stroke-width:1;stroke-linecap:round;stroke-linejoin:round;stroke-miterlimit:10;stroke-dasharray:none;stroke-opacity:1"
             id="path1488" /></g><path
           d="m 104.25,103.5 h 27 V 90 h -27 z"
           style="fill:#ffffff;fill-opacity:1;fill-rule:nonzero;stroke:none"
           id="path1490" /><g
           id="g1492"
           transform="matrix(0.75,0,0,-0.75,-44.25,225)"><path
             d="m 198,162 h 36 v 18 h -36 z"
             style="fill:none;stroke:#d6d6d6;stroke-width:1;stroke-linecap:round;stroke-linejoin:round;stroke-miterlimit:10;stroke-dasharray:none;stroke-opacity:1"
             id="path1494" /></g><path
           d="m 104.25,83.25 h 27 v -13.5 h -27 z"
           style="fill:#ffffff;fill-opacity:1;fill-rule:nonzero;stroke:none"
           id="path1496" /><g
           id="g1498"
           transform="matrix(0.75,0,0,-0.75,-44.25,225)"><path
             d="m 198,189 h 36 v 18 h -36 z"
             style="fill:none;stroke:#d6d6d6;stroke-width:1;stroke-linecap:round;stroke-linejoin:round;stroke-miterlimit:10;stroke-dasharray:none;stroke-opacity:1"
             id="path1500" /></g><path
           d="m 104.25,63 h 27 V 49.5 h -27 z"
           style="fill:#ffffff;fill-opacity:1;fill-rule:nonzero;stroke:none"
           id="path1502" /><g
           id="g1504"
           transform="matrix(0.75,0,0,-0.75,-44.25,225)"><path
             d="m 198,216 h 36 v 18 h -36 z"
             style="fill:none;stroke:#d6d6d6;stroke-width:1;stroke-linecap:round;stroke-linejoin:round;stroke-miterlimit:10;stroke-dasharray:none;stroke-opacity:1"
             id="path1506" /></g><path
           d="m 144.75,164.25 h 27 v -13.5 h -27 z"
           style="fill:#ffffff;fill-opacity:1;fill-rule:nonzero;stroke:none"
           id="path1508" /><g
           id="g1510"
           transform="matrix(0.75,0,0,-0.75,-44.25,225)"><path
             d="m 252,81 h 36 v 18 h -36 z"
             style="fill:none;stroke:#d6d6d6;stroke-width:1;stroke-linecap:round;stroke-linejoin:round;stroke-miterlimit:10;stroke-dasharray:none;stroke-opacity:1"
             id="path1512" /></g><path
           d="m 144.75,144 h 27 v -13.5 h -27 z"
           style="fill:#ffffff;fill-opacity:1;fill-rule:nonzero;stroke:none"
           id="path1514" /><g
           id="g1516"
           transform="matrix(0.75,0,0,-0.75,-44.25,225)"><path
             d="m 252,108 h 36 v 18 h -36 z"
             style="fill:none;stroke:#d6d6d6;stroke-width:1;stroke-linecap:round;stroke-linejoin:round;stroke-miterlimit:10;stroke-dasharray:none;stroke-opacity:1"
             id="path1518" /></g><path
           d="m 144.75,123.75 h 27 v -13.5 h -27 z"
           style="fill:#ffffff;fill-opacity:1;fill-rule:nonzero;stroke:none"
           id="path1520" /><g
           id="g1522"
           transform="matrix(0.75,0,0,-0.75,-44.25,225)"><path
             d="m 252,135 h 36 v 18 h -36 z"
             style="fill:none;stroke:#d6d6d6;stroke-width:1;stroke-linecap:round;stroke-linejoin:round;stroke-miterlimit:10;stroke-dasharray:none;stroke-opacity:1"
             id="path1524" /></g><path
           d="m 144.75,103.5 h 27 V 90 h -27 z"
           style="fill:#ffffff;fill-opacity:1;fill-rule:nonzero;stroke:none"
           id="path1526" /><g
           id="g1528"
           transform="matrix(0.75,0,0,-0.75,-44.25,225)"><path
             d="m 252,162 h 36 v 18 h -36 z"
             style="fill:none;stroke:#d6d6d6;stroke-width:1;stroke-linecap:round;stroke-linejoin:round;stroke-miterlimit:10;stroke-dasharray:none;stroke-opacity:1"
             id="path1530" /></g><path
           d="m 144.75,83.25 h 27 v -13.5 h -27 z"
           style="fill:#ffffff;fill-opacity:1;fill-rule:nonzero;stroke:none"
           id="path1532" /><g
           id="g1534"
           transform="matrix(0.75,0,0,-0.75,-44.25,225)"><path
             d="m 252,189 h 36 v 18 h -36 z"
             style="fill:none;stroke:#d6d6d6;stroke-width:1;stroke-linecap:round;stroke-linejoin:round;stroke-miterlimit:10;stroke-dasharray:none;stroke-opacity:1"
             id="path1536" /></g><path
           d="m 144.75,63 h 27 V 49.5 h -27 z"
           style="fill:#ffffff;fill-opacity:1;fill-rule:nonzero;stroke:none"
           id="path1538" /><g
           id="g1540"
           transform="matrix(0.75,0,0,-0.75,-44.25,225)"><path
             d="m 252,216 h 36 v 18 h -36 z"
             style="fill:none;stroke:#d6d6d6;stroke-width:1;stroke-linecap:round;stroke-linejoin:round;stroke-miterlimit:10;stroke-dasharray:none;stroke-opacity:1"
             id="path1542" /></g><path
           d="m 77.25,184.5 h 67.5 V 171 h -67.5 z"
           style="fill:#ffffff;fill-opacity:1;fill-rule:nonzero;stroke:none"
           id="path1544" /><g
           id="g1546"
           transform="matrix(0.75,0,0,-0.75,-44.25,225)"><path
             d="m 162,54 h 90 v 18 h -90 z"
             style="fill:none;stroke:#000000;stroke-width:1;stroke-linecap:round;stroke-linejoin:round;stroke-miterlimit:10;stroke-dasharray:none;stroke-opacity:1"
             id="path1548" /></g><g
           id="g1550"
           transform="matrix(0.75,0,0,-0.75,111,177.75)"><text
             transform="translate(-32.40527,3)"
             style="font-variant:normal;font-weight:normal;font-size:12px;font-family:Courier;-inkscape-font-specification:Courier;writing-mode:lr-tb;fill:#000000;fill-opacity:1;fill-rule:nonzero;stroke:none"
             id="text1554"><tspan
               x="0 7.2012 14.4024 21.6036 28.8048 36.006001 43.207199 50.408401 57.6096"
               y="0"
               id="tspan1552">FooObject</tspan></text></g><g
           id="g1556"
           transform="matrix(0.75,0,0,-0.75,117.75,14.625)"><text
             transform="translate(-43.896,-3.335999)"
             style="font-variant:normal;font-weight:normal;font-size:12px;font-family:'Helvetica Neue';-inkscape-font-specification:HelveticaNeue;writing-mode:lr-tb;fill:#000000;fill-opacity:1;fill-rule:nonzero;stroke:none"
             id="text1560"><tspan
               x="0 7.776 11.772 14.436 20.436001 26.879999 30.66 37.104 40.439999 50.891998 57.335999 61.116001 67.788002 74.676003 81.792"
               y="0"
               id="tspan1558">Private Methods</tspan></text></g><g
           id="g1562"
           transform="matrix(0.75,0,0,-0.75,117.75,14.625)"><text
             transform="translate(-27.672,11)"
             style="font-variant:normal;font-weight:normal;font-size:12px;font-family:'Helvetica Neue';-inkscape-font-specification:HelveticaNeue;writing-mode:lr-tb;fill:#000000;fill-opacity:1;fill-rule:nonzero;stroke:none"
             id="text1566"><tspan
               x="0 6.4439998 13.116 20.232 23.568001 30.455999 33.119999 39.563999 42.228001 49.344002"
               y="0"
               id="tspan1564">and Fields</tspan></text></g><g
           id="g1568"
           transform="matrix(0.75,0,0,-0.75,35.625,14.625)"><text
             transform="translate(-42.012,-3.335999)"
             style="font-variant:normal;font-weight:normal;font-size:12px;font-family:'Helvetica Neue';-inkscape-font-specification:HelveticaNeue;writing-mode:lr-tb;fill:#000000;fill-opacity:1;fill-rule:nonzero;stroke:none"
             id="text1572"><tspan
               x="0 7.776 14.448 21.563999 24.228001 26.892 33.335999 36.672001 47.124001 53.568001 57.348 64.019997 70.907997 78.024002"
               y="0"
               id="tspan1570">Public Methods</tspan></text></g><g
           id="g1574"
           transform="matrix(0.75,0,0,-0.75,35.625,14.625)"><text
             transform="translate(-27.672,11)"
             style="font-variant:normal;font-weight:normal;font-size:12px;font-family:'Helvetica Neue';-inkscape-font-specification:HelveticaNeue;writing-mode:lr-tb;fill:#000000;fill-opacity:1;fill-rule:nonzero;stroke:none"
             id="text1578"><tspan
               x="0 6.4439998 13.116 20.232 23.568001 30.455999 33.119999 39.563999 42.228001 49.344002"
               y="0"
               id="tspan1576">and Fields</tspan></text></g><g
           id="g1580"
           transform="matrix(0.75,0,0,-0.75,-44.25,225)"><path
             d="m 144,252 v 9 h 144 v -9"
             style="fill:none;stroke:#000000;stroke-width:2;stroke-linecap:round;stroke-linejoin:round;stroke-miterlimit:10;stroke-dasharray:none;stroke-opacity:1"
             id="path1582" /></g><g
           id="g1584"
           transform="matrix(0.75,0,0,-0.75,-44.25,225)"><path
             d="m 90,252 v 9 h 36 v -9"
             style="fill:none;stroke:#000000;stroke-width:2;stroke-linecap:round;stroke-linejoin:round;stroke-miterlimit:10;stroke-dasharray:none;stroke-opacity:1"
             id="path1586" /></g><g
           id="g1588"
           transform="matrix(0.75,0,0,-0.75,168.375,187.125)"><text
             transform="translate(-15.894,3.832001)"
             style="font-variant:normal;font-weight:normal;font-size:12px;font-family:'Helvetica Neue';-inkscape-font-specification:HelveticaNeue;writing-mode:lr-tb;fill:#000000;fill-opacity:1;fill-rule:nonzero;stroke:none"
             id="text1592"><tspan
               x="0 8.6639996 15.108 25.344"
               y="0"
               id="tspan1590">Name</tspan></text></g><g
           id="g1594"
           transform="matrix(0.75,0,0,-0.75,-44.25,225)"><path
             d="m 261,54 -13.8856,6.94282"
             style="fill:none;stroke:#000000;stroke-width:2;stroke-linecap:round;stroke-linejoin:round;stroke-miterlimit:10;stroke-dasharray:none;stroke-opacity:1"
             id="path1596" /></g><path
           d="m 140.3052,179.9699 c 0.7073,-0.2358 1.0896,-1.0003 0.8538,-1.7077 -0.2358,-0.7073 -1.0003,-1.0895 -1.7076,-0.8538 -0.7073,0.2358 -1.0896,1.0003 -0.8538,1.7077 0.2357,0.7073 1.0003,1.0895 1.7076,0.8538"
           style="fill:#000000;fill-opacity:1;fill-rule:nonzero;stroke:none"
           id="path1598" /><g
           id="g1600"
           transform="matrix(0.75,0,0,-0.75,-44.25,225)"><path
             d="m 246.0736,60.04017 c 0.9431,0.31437 1.4528,1.33374 1.1384,2.27684 -0.3143,0.9431 -1.3337,1.45279 -2.2768,1.13842 -0.9431,-0.31436 -1.4528,-1.33374 -1.1384,-2.27684 0.3143,-0.94309 1.3337,-1.45278 2.2768,-1.13842"
             style="fill:none;stroke:#000000;stroke-width:2;stroke-linecap:butt;stroke-linejoin:miter;stroke-miterlimit:10;stroke-dasharray:none;stroke-opacity:1"
             id="path1602" /></g><g
           id="g1604"
           transform="matrix(0.75,0,0,-0.75,104.25,202.5)"><text
             transform="translate(-69.64,5.776001)"
             style="font-variant:normal;font-weight:normal;font-size:16px;font-family:'Helvetica Neue';-inkscape-font-specification:HelveticaNeue;writing-mode:lr-tb;fill:#000000;fill-opacity:1;fill-rule:nonzero;stroke:none"
             id="text1608"><tspan
               x="0 10.368 19.264 27.856001 32.896 42.080002 55.728001 63.728001 68.176003 77.360001 82.096001 86.543999 95.136002 99.584 111.136 114.688 123.28 131.28"
               y="0"
               id="tspan1606">Anatomy of a Class</tspan></text></g><g
           id="g1610"
           transform="matrix(0.75,0,0,-0.75,-44.25,225)"><path
             d="m 126,102 10.5054,-3.5018"
             style="fill:none;stroke:#d6d6d6;stroke-width:1;stroke-linecap:round;stroke-linejoin:round;stroke-miterlimit:10;stroke-dasharray:none;stroke-opacity:1"
             id="path1612" /></g><g
           id="g1614"
           transform="matrix(0.75,0,0,-0.75,-44.25,225)"><path
             d="m 142.1975,96.60083 -5.6921,1.89737 m -0.7115,-2.13454 6.4036,0.23717 -4.9806,4.03187"
             style="fill:none;stroke:#d6d6d6;stroke-width:1;stroke-linecap:butt;stroke-linejoin:miter;stroke-miterlimit:10;stroke-dasharray:none;stroke-opacity:1"
             id="path1616" /></g><g
           id="g1618"
           transform="matrix(0.75,0,0,-0.75,-44.25,225)"><path
             d="m 126,111 10.2075,1.7012"
             style="fill:none;stroke:#d6d6d6;stroke-width:1;stroke-linecap:round;stroke-linejoin:round;stroke-miterlimit:10;stroke-dasharray:none;stroke-opacity:1"
             id="path1620" /></g><g
           id="g1622"
           transform="matrix(0.75,0,0,-0.75,-44.25,225)"><path
             d="m 142.1259,113.6876 -5.9184,-0.9864 m 0.3699,-2.2193 5.5485,3.2057 -6.2883,1.233"
             style="fill:none;stroke:#d6d6d6;stroke-width:1;stroke-linecap:butt;stroke-linejoin:miter;stroke-miterlimit:10;stroke-dasharray:none;stroke-opacity:1"
             id="path1624" /></g><g
           id="g1626"
           transform="matrix(0.75,0,0,-0.75,-44.25,225)"><path
             d="m 126,150 10.2075,-1.7012"
             style="fill:none;stroke:#d6d6d6;stroke-width:1;stroke-linecap:round;stroke-linejoin:round;stroke-miterlimit:10;stroke-dasharray:none;stroke-opacity:1"
             id="path1628" /></g><g
           id="g1630"
           transform="matrix(0.75,0,0,-0.75,-44.25,225)"><path
             d="m 142.1259,147.3124 -5.9184,0.9864 m -0.3699,-2.2194 6.2883,1.233 -5.5485,3.2057"
             style="fill:none;stroke:#d6d6d6;stroke-width:1;stroke-linecap:butt;stroke-linejoin:miter;stroke-miterlimit:10;stroke-dasharray:none;stroke-opacity:1"
             id="path1632" /></g><g
           id="g1634"
           transform="matrix(0.75,0,0,-0.75,-44.25,225)"><path
             d="m 126,159 10.5054,3.5018"
             style="fill:none;stroke:#d6d6d6;stroke-width:1;stroke-linecap:round;stroke-linejoin:round;stroke-miterlimit:10;stroke-dasharray:none;stroke-opacity:1"
             id="path1636" /></g><g
           id="g1638"
           transform="matrix(0.75,0,0,-0.75,-44.25,225)"><path
             d="m 142.1975,164.3992 -5.6921,-1.8974 m 0.7115,-2.1345 4.9806,4.0319 -6.4036,0.2371"
             style="fill:none;stroke:#d6d6d6;stroke-width:1;stroke-linecap:butt;stroke-linejoin:miter;stroke-miterlimit:10;stroke-dasharray:none;stroke-opacity:1"
             id="path1640" /></g><g
           id="g1642"
           transform="matrix(0.75,0,0,-0.75,-44.25,225)"><path
             d="m 126,198 h 10.1"
             style="fill:none;stroke:#d6d6d6;stroke-width:1;stroke-linecap:round;stroke-linejoin:round;stroke-miterlimit:10;stroke-dasharray:none;stroke-opacity:1"
             id="path1644" /></g><g
           id="g1646"
           transform="matrix(0.75,0,0,-0.75,-44.25,225)"><path
             d="m 142.1,198 h -6 m 0,-2.25 6,2.25 -6,2.25"
             style="fill:none;stroke:#d6d6d6;stroke-width:1;stroke-linecap:butt;stroke-linejoin:miter;stroke-miterlimit:10;stroke-dasharray:none;stroke-opacity:1"
             id="path1648" /></g><g
           id="g1650"
           transform="matrix(0.75,0,0,-0.75,-44.25,225)"><path
             d="m 126,207 10.934,5.467"
             style="fill:none;stroke:#d6d6d6;stroke-width:1;stroke-linecap:round;stroke-linejoin:round;stroke-miterlimit:10;stroke-dasharray:none;stroke-opacity:1"
             id="path1652" /></g><g
           id="g1654"
           transform="matrix(0.75,0,0,-0.75,-44.25,225)"><path
             d="m 142.3006,215.1503 -5.3666,-2.6833 m 1.0063,-2.0124 4.3603,4.6957 -6.3728,-0.6708"
             style="fill:none;stroke:#d6d6d6;stroke-width:1;stroke-linecap:butt;stroke-linejoin:miter;stroke-miterlimit:10;stroke-dasharray:none;stroke-opacity:1"
             id="path1656" /></g><g
           id="g1658"
           transform="matrix(0.75,0,0,-0.75,-44.25,225)"><path
             d="m 180,117 h 10.1"
             style="fill:none;stroke:#d6d6d6;stroke-width:1;stroke-linecap:round;stroke-linejoin:round;stroke-miterlimit:10;stroke-dasharray:none;stroke-opacity:1"
             id="path1660" /></g><g
           id="g1662"
           transform="matrix(0.75,0,0,-0.75,-44.25,225)"><path
             d="m 196.1,117 h -6 m 0,-2.25 6,2.25 -6,2.25"
             style="fill:none;stroke:#d6d6d6;stroke-width:1;stroke-linecap:butt;stroke-linejoin:miter;stroke-miterlimit:10;stroke-dasharray:none;stroke-opacity:1"
             id="path1664" /></g><g
           id="g1666"
           transform="matrix(0.75,0,0,-0.75,-44.25,225)"><path
             d="m 180,90 h 10.1"
             style="fill:none;stroke:#d6d6d6;stroke-width:1;stroke-linecap:round;stroke-linejoin:round;stroke-miterlimit:10;stroke-dasharray:none;stroke-opacity:1"
             id="path1668" /></g><g
           id="g1670"
           transform="matrix(0.75,0,0,-0.75,-44.25,225)"><path
             d="m 196.1,90 h -6 m 0,-2.25 6,2.25 -6,2.25"
             style="fill:none;stroke:#d6d6d6;stroke-width:1;stroke-linecap:butt;stroke-linejoin:miter;stroke-miterlimit:10;stroke-dasharray:none;stroke-opacity:1"
             id="path1672" /></g><g
           id="g1674"
           transform="matrix(0.75,0,0,-0.75,-44.25,225)"><path
             d="m 234,90 h 10.1"
             style="fill:none;stroke:#d6d6d6;stroke-width:1;stroke-linecap:round;stroke-linejoin:round;stroke-miterlimit:10;stroke-dasharray:none;stroke-opacity:1"
             id="path1676" /></g><g
           id="g1678"
           transform="matrix(0.75,0,0,-0.75,-44.25,225)"><path
             d="m 250.1,90 h -6 m 0,-2.25 6,2.25 -6,2.25"
             style="fill:none;stroke:#d6d6d6;stroke-width:1;stroke-linecap:butt;stroke-linejoin:miter;stroke-miterlimit:10;stroke-dasharray:none;stroke-opacity:1"
             id="path1680" /></g><g
           id="g1682"
           transform="matrix(0.75,0,0,-0.75,-44.25,225)"><path
             d="m 234,117 h 10.1"
             style="fill:none;stroke:#d6d6d6;stroke-width:1;stroke-linecap:round;stroke-linejoin:round;stroke-miterlimit:10;stroke-dasharray:none;stroke-opacity:1"
             id="path1684" /></g><g
           id="g1686"
           transform="matrix(0.75,0,0,-0.75,-44.25,225)"><path
             d="m 250.1,117 h -6 m 0,-2.25 6,2.25 -6,2.25"
             style="fill:none;stroke:#d6d6d6;stroke-width:1;stroke-linecap:butt;stroke-linejoin:miter;stroke-miterlimit:10;stroke-dasharray:none;stroke-opacity:1"
             id="path1688" /></g><g
           id="g1690"
           transform="matrix(0.75,0,0,-0.75,-44.25,225)"><path
             d="m 180,144 h 10.1"
             style="fill:none;stroke:#d6d6d6;stroke-width:1;stroke-linecap:round;stroke-linejoin:round;stroke-miterlimit:10;stroke-dasharray:none;stroke-opacity:1"
             id="path1692" /></g><g
           id="g1694"
           transform="matrix(0.75,0,0,-0.75,-44.25,225)"><path
             d="m 196.1,144 h -6 m 0,-2.25 6,2.25 -6,2.25"
             style="fill:none;stroke:#d6d6d6;stroke-width:1;stroke-linecap:butt;stroke-linejoin:miter;stroke-miterlimit:10;stroke-dasharray:none;stroke-opacity:1"
             id="path1696" /></g><g
           id="g1698"
           transform="matrix(0.75,0,0,-0.75,-44.25,225)"><path
             d="m 234,144 h 10.1"
             style="fill:none;stroke:#d6d6d6;stroke-width:1;stroke-linecap:round;stroke-linejoin:round;stroke-miterlimit:10;stroke-dasharray:none;stroke-opacity:1"
             id="path1700" /></g><g
           id="g1702"
           transform="matrix(0.75,0,0,-0.75,-44.25,225)"><path
             d="m 250.1,144 h -6 m 0,-2.25 6,2.25 -6,2.25"
             style="fill:none;stroke:#d6d6d6;stroke-width:1;stroke-linecap:butt;stroke-linejoin:miter;stroke-miterlimit:10;stroke-dasharray:none;stroke-opacity:1"
             id="path1704" /></g><g
           id="g1706"
           transform="matrix(0.75,0,0,-0.75,-44.25,225)"><path
             d="m 180,171 h 10.1"
             style="fill:none;stroke:#d6d6d6;stroke-width:1;stroke-linecap:round;stroke-linejoin:round;stroke-miterlimit:10;stroke-dasharray:none;stroke-opacity:1"
             id="path1708" /></g><g
           id="g1710"
           transform="matrix(0.75,0,0,-0.75,-44.25,225)"><path
             d="m 196.1,171 h -6 m 0,-2.25 6,2.25 -6,2.25"
             style="fill:none;stroke:#d6d6d6;stroke-width:1;stroke-linecap:butt;stroke-linejoin:miter;stroke-miterlimit:10;stroke-dasharray:none;stroke-opacity:1"
             id="path1712" /></g><g
           id="g1714"
           transform="matrix(0.75,0,0,-0.75,-44.25,225)"><path
             d="m 234,171 h 10.1"
             style="fill:none;stroke:#d6d6d6;stroke-width:1;stroke-linecap:round;stroke-linejoin:round;stroke-miterlimit:10;stroke-dasharray:none;stroke-opacity:1"
             id="path1716" /></g><g
           id="g1718"
           transform="matrix(0.75,0,0,-0.75,-44.25,225)"><path
             d="m 250.1,171 h -6 m 0,-2.25 6,2.25 -6,2.25"
             style="fill:none;stroke:#d6d6d6;stroke-width:1;stroke-linecap:butt;stroke-linejoin:miter;stroke-miterlimit:10;stroke-dasharray:none;stroke-opacity:1"
             id="path1720" /></g><g
           id="g1722"
           transform="matrix(0.75,0,0,-0.75,-44.25,225)"><path
             d="m 180,198 h 10.1"
             style="fill:none;stroke:#d6d6d6;stroke-width:1;stroke-linecap:round;stroke-linejoin:round;stroke-miterlimit:10;stroke-dasharray:none;stroke-opacity:1"
             id="path1724" /></g><g
           id="g1726"
           transform="matrix(0.75,0,0,-0.75,-44.25,225)"><path
             d="m 196.1,198 h -6 m 0,-2.25 6,2.25 -6,2.25"
             style="fill:none;stroke:#d6d6d6;stroke-width:1;stroke-linecap:butt;stroke-linejoin:miter;stroke-miterlimit:10;stroke-dasharray:none;stroke-opacity:1"
             id="path1728" /></g><g
           id="g1730"
           transform="matrix(0.75,0,0,-0.75,-44.25,225)"><path
             d="m 180,225 h 10.1"
             style="fill:none;stroke:#d6d6d6;stroke-width:1;stroke-linecap:round;stroke-linejoin:round;stroke-miterlimit:10;stroke-dasharray:none;stroke-opacity:1"
             id="path1732" /></g><g
           id="g1734"
           transform="matrix(0.75,0,0,-0.75,-44.25,225)"><path
             d="m 196.1,225 h -6 m 0,-2.25 6,2.25 -6,2.25"
             style="fill:none;stroke:#d6d6d6;stroke-width:1;stroke-linecap:butt;stroke-linejoin:miter;stroke-miterlimit:10;stroke-dasharray:none;stroke-opacity:1"
             id="path1736" /></g><g
           id="g1738"
           transform="matrix(0.75,0,0,-0.75,-44.25,225)"><path
             d="m 234,198 h 10.1"
             style="fill:none;stroke:#d6d6d6;stroke-width:1;stroke-linecap:round;stroke-linejoin:round;stroke-miterlimit:10;stroke-dasharray:none;stroke-opacity:1"
             id="path1740" /></g><g
           id="g1742"
           transform="matrix(0.75,0,0,-0.75,-44.25,225)"><path
             d="m 250.1,198 h -6 m 0,-2.25 6,2.25 -6,2.25"
             style="fill:none;stroke:#d6d6d6;stroke-width:1;stroke-linecap:butt;stroke-linejoin:miter;stroke-miterlimit:10;stroke-dasharray:none;stroke-opacity:1"
             id="path1744" /></g><g
           id="g1746"
           transform="matrix(0.75,0,0,-0.75,-44.25,225)"><path
             d="m 234,225 h 10.1"
             style="fill:none;stroke:#d6d6d6;stroke-width:1;stroke-linecap:round;stroke-linejoin:round;stroke-miterlimit:10;stroke-dasharray:none;stroke-opacity:1"
             id="path1748" /></g><g
           id="g1750"
           transform="matrix(0.75,0,0,-0.75,-44.25,225)"><path
             d="m 250.1,225 h -6 m 0,-2.25 6,2.25 -6,2.25"
             style="fill:none;stroke:#d6d6d6;stroke-width:1;stroke-linecap:butt;stroke-linejoin:miter;stroke-miterlimit:10;stroke-dasharray:none;stroke-opacity:1"
             id="path1752" /></g></g></g></g></svg>
