<?xml version="1.0" encoding="UTF-8" standalone="no"?>
<svg
   xmlns:dc="http://purl.org/dc/elements/1.1/"
   xmlns:cc="http://creativecommons.org/ns#"
   xmlns:rdf="http://www.w3.org/1999/02/22-rdf-syntax-ns#"
   xmlns:svg="http://www.w3.org/2000/svg"
   xmlns="http://www.w3.org/2000/svg"
   version="1.1"
   id="svg1772"
   xml:space="preserve"
   width="260"
   height="300"
   viewBox="0 0 260 300"><metadata
     id="metadata1778"><rdf:RDF><cc:Work
         rdf:about=""><dc:format>image/svg+xml</dc:format><dc:type
           rdf:resource="http://purl.org/dc/dcmitype/StillImage" /><dc:title></dc:title></cc:Work></rdf:RDF></metadata><defs
     id="defs1776"><clipPath
       clipPathUnits="userSpaceOnUse"
       id="clipPath1790"><path
         d="M 0,0 H 195 V 225 H 0 Z"
         id="path1788" /></clipPath></defs><g
     id="g1780"
     transform="matrix(1.3333333,0,0,-1.3333333,0,300)"><g
       id="g1782" /><g
       id="g1784"><g
         id="g1786"
         clip-path="url(#clipPath1790)"><path
           d="m 39.75,189 h 148.5 V 54 H 39.75 Z"
           style="fill:#ffffff;fill-opacity:1;fill-rule:nonzero;stroke:none"
           id="path1792" /><g
           id="g1794"
           transform="matrix(0.75,0,0,-0.75,-41.25,236.25)"><path
             d="M 108,63 H 306 V 243 H 108 Z"
             style="fill:none;stroke:#000000;stroke-width:1;stroke-linecap:round;stroke-linejoin:round;stroke-miterlimit:10;stroke-dasharray:none;stroke-opacity:1"
             id="path1796" /></g><path
           d="m 26.25,162 h 27 v -13.5 h -27 z"
           style="fill:#ffffff;fill-opacity:1;fill-rule:nonzero;stroke:none"
           id="path1798" /><g
           id="g1800"
           transform="matrix(0.75,0,0,-0.75,-41.25,236.25)"><path
             d="m 90,99 h 36 v 18 H 90 Z"
             style="fill:none;stroke:#000000;stroke-width:1;stroke-linecap:round;stroke-linejoin:round;stroke-miterlimit:10;stroke-dasharray:none;stroke-opacity:1"
             id="path1802" /></g><path
           d="m 26.25,128.25 h 27 v -13.5 h -27 z"
           style="fill:#ffffff;fill-opacity:1;fill-rule:nonzero;stroke:none"
           id="path1804" /><g
           id="g1806"
           transform="matrix(0.75,0,0,-0.75,-41.25,236.25)"><path
             d="m 90,144 h 36 v 18 H 90 Z"
             style="fill:none;stroke:#000000;stroke-width:1;stroke-linecap:round;stroke-linejoin:round;stroke-miterlimit:10;stroke-dasharray:none;stroke-opacity:1"
             id="path1808" /></g><path
           d="m 26.25,94.5 h 27 V 81 h -27 z"
           style="fill:#ffffff;fill-opacity:1;fill-rule:nonzero;stroke:none"
           id="path1810" /><g
           id="g1812"
           transform="matrix(0.75,0,0,-0.75,-41.25,236.25)"><path
             d="m 90,189 h 36 v 18 H 90 Z"
             style="fill:none;stroke:#000000;stroke-width:1;stroke-linecap:round;stroke-linejoin:round;stroke-miterlimit:10;stroke-dasharray:none;stroke-opacity:1"
             id="path1814" /></g><path
           d="m 66.75,175.5 h 27 V 162 h -27 z"
           style="fill:#ffffff;fill-opacity:1;fill-rule:nonzero;stroke:none"
           id="path1816" /><g
           id="g1818"
           transform="matrix(0.75,0,0,-0.75,-41.25,236.25)"><path
             d="m 144,81 h 36 v 18 h -36 z"
             style="fill:none;stroke:#d6d6d6;stroke-width:1;stroke-linecap:round;stroke-linejoin:round;stroke-miterlimit:10;stroke-dasharray:none;stroke-opacity:1"
             id="path1820" /></g><path
           d="m 66.75,155.25 h 27 v -13.5 h -27 z"
           style="fill:#ffffff;fill-opacity:1;fill-rule:nonzero;stroke:none"
           id="path1822" /><g
           id="g1824"
           transform="matrix(0.75,0,0,-0.75,-41.25,236.25)"><path
             d="m 144,108 h 36 v 18 h -36 z"
             style="fill:none;stroke:#d6d6d6;stroke-width:1;stroke-linecap:round;stroke-linejoin:round;stroke-miterlimit:10;stroke-dasharray:none;stroke-opacity:1"
             id="path1826" /></g><path
           d="m 66.75,135 h 27 v -13.5 h -27 z"
           style="fill:#ffffff;fill-opacity:1;fill-rule:nonzero;stroke:none"
           id="path1828" /><g
           id="g1830"
           transform="matrix(0.75,0,0,-0.75,-41.25,236.25)"><path
             d="m 144,135 h 36 v 18 h -36 z"
             style="fill:none;stroke:#d6d6d6;stroke-width:1;stroke-linecap:round;stroke-linejoin:round;stroke-miterlimit:10;stroke-dasharray:none;stroke-opacity:1"
             id="path1832" /></g><path
           d="m 66.75,114.75 h 27 v -13.5 h -27 z"
           style="fill:#ffffff;fill-opacity:1;fill-rule:nonzero;stroke:none"
           id="path1834" /><g
           id="g1836"
           transform="matrix(0.75,0,0,-0.75,-41.25,236.25)"><path
             d="m 144,162 h 36 v 18 h -36 z"
             style="fill:none;stroke:#d6d6d6;stroke-width:1;stroke-linecap:round;stroke-linejoin:round;stroke-miterlimit:10;stroke-dasharray:none;stroke-opacity:1"
             id="path1838" /></g><path
           d="m 66.75,94.5 h 27 V 81 h -27 z"
           style="fill:#ffffff;fill-opacity:1;fill-rule:nonzero;stroke:none"
           id="path1840" /><g
           id="g1842"
           transform="matrix(0.75,0,0,-0.75,-41.25,236.25)"><path
             d="m 144,189 h 36 v 18 h -36 z"
             style="fill:none;stroke:#d6d6d6;stroke-width:1;stroke-linecap:round;stroke-linejoin:round;stroke-miterlimit:10;stroke-dasharray:none;stroke-opacity:1"
             id="path1844" /></g><path
           d="m 66.75,74.25 h 27 v -13.5 h -27 z"
           style="fill:#ffffff;fill-opacity:1;fill-rule:nonzero;stroke:none"
           id="path1846" /><g
           id="g1848"
           transform="matrix(0.75,0,0,-0.75,-41.25,236.25)"><path
             d="m 144,216 h 36 v 18 h -36 z"
             style="fill:none;stroke:#d6d6d6;stroke-width:1;stroke-linecap:round;stroke-linejoin:round;stroke-miterlimit:10;stroke-dasharray:none;stroke-opacity:1"
             id="path1850" /></g><path
           d="m 107.25,175.5 h 27 V 162 h -27 z"
           style="fill:#ffffff;fill-opacity:1;fill-rule:nonzero;stroke:none"
           id="path1852" /><g
           id="g1854"
           transform="matrix(0.75,0,0,-0.75,-41.25,236.25)"><path
             d="m 198,81 h 36 v 18 h -36 z"
             style="fill:none;stroke:#d6d6d6;stroke-width:1;stroke-linecap:round;stroke-linejoin:round;stroke-miterlimit:10;stroke-dasharray:none;stroke-opacity:1"
             id="path1856" /></g><path
           d="m 107.25,155.25 h 27 v -13.5 h -27 z"
           style="fill:#ffffff;fill-opacity:1;fill-rule:nonzero;stroke:none"
           id="path1858" /><g
           id="g1860"
           transform="matrix(0.75,0,0,-0.75,-41.25,236.25)"><path
             d="m 198,108 h 36 v 18 h -36 z"
             style="fill:none;stroke:#d6d6d6;stroke-width:1;stroke-linecap:round;stroke-linejoin:round;stroke-miterlimit:10;stroke-dasharray:none;stroke-opacity:1"
             id="path1862" /></g><path
           d="m 107.25,135 h 27 v -13.5 h -27 z"
           style="fill:#ffffff;fill-opacity:1;fill-rule:nonzero;stroke:none"
           id="path1864" /><g
           id="g1866"
           transform="matrix(0.75,0,0,-0.75,-41.25,236.25)"><path
             d="m 198,135 h 36 v 18 h -36 z"
             style="fill:none;stroke:#d6d6d6;stroke-width:1;stroke-linecap:round;stroke-linejoin:round;stroke-miterlimit:10;stroke-dasharray:none;stroke-opacity:1"
             id="path1868" /></g><path
           d="m 107.25,114.75 h 27 v -13.5 h -27 z"
           style="fill:#ffffff;fill-opacity:1;fill-rule:nonzero;stroke:none"
           id="path1870" /><g
           id="g1872"
           transform="matrix(0.75,0,0,-0.75,-41.25,236.25)"><path
             d="m 198,162 h 36 v 18 h -36 z"
             style="fill:none;stroke:#d6d6d6;stroke-width:1;stroke-linecap:round;stroke-linejoin:round;stroke-miterlimit:10;stroke-dasharray:none;stroke-opacity:1"
             id="path1874" /></g><path
           d="m 107.25,94.5 h 27 V 81 h -27 z"
           style="fill:#ffffff;fill-opacity:1;fill-rule:nonzero;stroke:none"
           id="path1876" /><g
           id="g1878"
           transform="matrix(0.75,0,0,-0.75,-41.25,236.25)"><path
             d="m 198,189 h 36 v 18 h -36 z"
             style="fill:none;stroke:#d6d6d6;stroke-width:1;stroke-linecap:round;stroke-linejoin:round;stroke-miterlimit:10;stroke-dasharray:none;stroke-opacity:1"
             id="path1880" /></g><path
           d="m 107.25,74.25 h 27 v -13.5 h -27 z"
           style="fill:#ffffff;fill-opacity:1;fill-rule:nonzero;stroke:none"
           id="path1882" /><g
           id="g1884"
           transform="matrix(0.75,0,0,-0.75,-41.25,236.25)"><path
             d="m 198,216 h 36 v 18 h -36 z"
             style="fill:none;stroke:#d6d6d6;stroke-width:1;stroke-linecap:round;stroke-linejoin:round;stroke-miterlimit:10;stroke-dasharray:none;stroke-opacity:1"
             id="path1886" /></g><path
           d="m 147.75,175.5 h 27 V 162 h -27 z"
           style="fill:#ffffff;fill-opacity:1;fill-rule:nonzero;stroke:none"
           id="path1888" /><g
           id="g1890"
           transform="matrix(0.75,0,0,-0.75,-41.25,236.25)"><path
             d="m 252,81 h 36 v 18 h -36 z"
             style="fill:none;stroke:#d6d6d6;stroke-width:1;stroke-linecap:round;stroke-linejoin:round;stroke-miterlimit:10;stroke-dasharray:none;stroke-opacity:1"
             id="path1892" /></g><path
           d="m 147.75,155.25 h 27 v -13.5 h -27 z"
           style="fill:#ffffff;fill-opacity:1;fill-rule:nonzero;stroke:none"
           id="path1894" /><g
           id="g1896"
           transform="matrix(0.75,0,0,-0.75,-41.25,236.25)"><path
             d="m 252,108 h 36 v 18 h -36 z"
             style="fill:none;stroke:#d6d6d6;stroke-width:1;stroke-linecap:round;stroke-linejoin:round;stroke-miterlimit:10;stroke-dasharray:none;stroke-opacity:1"
             id="path1898" /></g><path
           d="m 147.75,135 h 27 v -13.5 h -27 z"
           style="fill:#ffffff;fill-opacity:1;fill-rule:nonzero;stroke:none"
           id="path1900" /><g
           id="g1902"
           transform="matrix(0.75,0,0,-0.75,-41.25,236.25)"><path
             d="m 252,135 h 36 v 18 h -36 z"
             style="fill:none;stroke:#d6d6d6;stroke-width:1;stroke-linecap:round;stroke-linejoin:round;stroke-miterlimit:10;stroke-dasharray:none;stroke-opacity:1"
             id="path1904" /></g><path
           d="m 147.75,114.75 h 27 v -13.5 h -27 z"
           style="fill:#ffffff;fill-opacity:1;fill-rule:nonzero;stroke:none"
           id="path1906" /><g
           id="g1908"
           transform="matrix(0.75,0,0,-0.75,-41.25,236.25)"><path
             d="m 252,162 h 36 v 18 h -36 z"
             style="fill:none;stroke:#d6d6d6;stroke-width:1;stroke-linecap:round;stroke-linejoin:round;stroke-miterlimit:10;stroke-dasharray:none;stroke-opacity:1"
             id="path1910" /></g><path
           d="m 147.75,94.5 h 27 V 81 h -27 z"
           style="fill:#ffffff;fill-opacity:1;fill-rule:nonzero;stroke:none"
           id="path1912" /><g
           id="g1914"
           transform="matrix(0.75,0,0,-0.75,-41.25,236.25)"><path
             d="m 252,189 h 36 v 18 h -36 z"
             style="fill:none;stroke:#d6d6d6;stroke-width:1;stroke-linecap:round;stroke-linejoin:round;stroke-miterlimit:10;stroke-dasharray:none;stroke-opacity:1"
             id="path1916" /></g><path
           d="m 147.75,74.25 h 27 v -13.5 h -27 z"
           style="fill:#ffffff;fill-opacity:1;fill-rule:nonzero;stroke:none"
           id="path1918" /><g
           id="g1920"
           transform="matrix(0.75,0,0,-0.75,-41.25,236.25)"><path
             d="m 252,216 h 36 v 18 h -36 z"
             style="fill:none;stroke:#d6d6d6;stroke-width:1;stroke-linecap:round;stroke-linejoin:round;stroke-miterlimit:10;stroke-dasharray:none;stroke-opacity:1"
             id="path1922" /></g><path
           d="m 80.25,195.75 h 67.5 v -13.5 h -67.5 z"
           style="fill:#ffffff;fill-opacity:1;fill-rule:nonzero;stroke:none"
           id="path1924" /><g
           id="g1926"
           transform="matrix(0.75,0,0,-0.75,-41.25,236.25)"><path
             d="m 162,54 h 90 v 18 h -90 z"
             style="fill:none;stroke:#000000;stroke-width:1;stroke-linecap:round;stroke-linejoin:round;stroke-miterlimit:10;stroke-dasharray:none;stroke-opacity:1"
             id="path1928" /></g><g
           id="g1930"
           transform="matrix(0.75,0,0,-0.75,114,189)"><text
             transform="translate(-36.00586,3)"
             style="font-variant:normal;font-weight:normal;font-size:12px;font-family:Courier;-inkscape-font-specification:Courier;writing-mode:lr-tb;fill:#000000;fill-opacity:1;fill-rule:nonzero;stroke:none"
             id="text1934"><tspan
               x="0 7.2012 14.4024 21.6036 28.8048 36.006001 43.207199 50.408401 57.6096 64.810799"
               y="0"
               id="tspan1932">foo_module</tspan></text></g><g
           id="g1936"
           transform="matrix(0.75,0,0,-0.75,120.75,20.25)"><text
             transform="translate(-48.228,-10.504)"
             style="font-variant:normal;font-weight:normal;font-size:12px;font-family:'Helvetica Neue';-inkscape-font-specification:HelveticaNeue;writing-mode:lr-tb;fill:#000000;fill-opacity:1;fill-rule:nonzero;stroke:none"
             id="text1940"><tspan
               x="0 7.776 11.772 14.436 20.436001 26.879999 30.66 37.104 40.439999 47.327999 54 60.672001 67.115997 70.896004 73.559998 80.447998 87.120003 93.120003"
               y="0"
               id="tspan1938">Private Functions,</tspan></text></g><g
           id="g1942"
           transform="matrix(0.75,0,0,-0.75,120.75,20.25)"><text
             transform="translate(-34.56,3.832001)"
             style="font-variant:normal;font-weight:normal;font-size:12px;font-family:'Helvetica Neue';-inkscape-font-specification:HelveticaNeue;writing-mode:lr-tb;fill:#000000;fill-opacity:1;fill-rule:nonzero;stroke:none"
             id="text1946"><tspan
               x="0 8.6639996 11.328 17.771999 23.771999 29.771999 36.216 42.216 45.551998 48.888 55.332001 62.004002 69.120003"
               y="0"
               id="tspan1944">Classes, and </tspan></text></g><g
           id="g1948"
           transform="matrix(0.75,0,0,-0.75,120.75,20.25)"><text
             transform="translate(-27.45,18.168)"
             style="font-variant:normal;font-weight:normal;font-size:12px;font-family:'Helvetica Neue';-inkscape-font-specification:HelveticaNeue;writing-mode:lr-tb;fill:#000000;fill-opacity:1;fill-rule:nonzero;stroke:none"
             id="text1952"><tspan
               x="0 8.6639996 15.552 22.224001 28.224001 32.004002 38.448002 45.119999 48.900002"
               y="0"
               id="tspan1950">Constants</tspan></text></g><g
           id="g1954"
           transform="matrix(0.75,0,0,-0.75,38.625,20.25)"><text
             transform="translate(-46.344,-10.504)"
             style="font-variant:normal;font-weight:normal;font-size:12px;font-family:'Helvetica Neue';-inkscape-font-specification:HelveticaNeue;writing-mode:lr-tb;fill:#000000;fill-opacity:1;fill-rule:nonzero;stroke:none"
             id="text1958"><tspan
               x="0 7.776 14.448 21.563999 24.228001 26.892 33.335999 36.672001 43.560001 50.231998 56.903999 63.348 67.127998 69.792 76.68 83.351997 89.351997"
               y="0"
               id="tspan1956">Public Functions,</tspan></text></g><g
           id="g1960"
           transform="matrix(0.75,0,0,-0.75,38.625,20.25)"><text
             transform="translate(-34.56,3.832001)"
             style="font-variant:normal;font-weight:normal;font-size:12px;font-family:'Helvetica Neue';-inkscape-font-specification:HelveticaNeue;writing-mode:lr-tb;fill:#000000;fill-opacity:1;fill-rule:nonzero;stroke:none"
             id="text1964"><tspan
               x="0 8.6639996 11.328 17.771999 23.771999 29.771999 36.216 42.216 45.551998 48.888 55.332001 62.004002 69.120003"
               y="0"
               id="tspan1962">Classes, and </tspan></text></g><g
           id="g1966"
           transform="matrix(0.75,0,0,-0.75,38.625,20.25)"><text
             transform="translate(-27.45,18.168)"
             style="font-variant:normal;font-weight:normal;font-size:12px;font-family:'Helvetica Neue';-inkscape-font-specification:HelveticaNeue;writing-mode:lr-tb;fill:#000000;fill-opacity:1;fill-rule:nonzero;stroke:none"
             id="text1970"><tspan
               x="0 8.6639996 15.552 22.224001 28.224001 32.004002 38.448002 45.119999 48.900002"
               y="0"
               id="tspan1968">Constants</tspan></text></g><g
           id="g1972"
           transform="matrix(0.75,0,0,-0.75,-41.25,236.25)"><path
             d="m 144,252 v 9 h 144 v -9"
             style="fill:none;stroke:#000000;stroke-width:2;stroke-linecap:round;stroke-linejoin:round;stroke-miterlimit:10;stroke-dasharray:none;stroke-opacity:1"
             id="path1974" /></g><g
           id="g1976"
           transform="matrix(0.75,0,0,-0.75,-41.25,236.25)"><path
             d="m 90,252 v 9 h 36 v -9"
             style="fill:none;stroke:#000000;stroke-width:2;stroke-linecap:round;stroke-linejoin:round;stroke-miterlimit:10;stroke-dasharray:none;stroke-opacity:1"
             id="path1978" /></g><g
           id="g1980"
           transform="matrix(0.75,0,0,-0.75,171.375,198.375)"><text
             transform="translate(-15.894,3.832001)"
             style="font-variant:normal;font-weight:normal;font-size:12px;font-family:'Helvetica Neue';-inkscape-font-specification:HelveticaNeue;writing-mode:lr-tb;fill:#000000;fill-opacity:1;fill-rule:nonzero;stroke:none"
             id="text1984"><tspan
               x="0 8.6639996 15.108 25.344"
               y="0"
               id="tspan1982">Name</tspan></text></g><g
           id="g1986"
           transform="matrix(0.75,0,0,-0.75,-41.25,236.25)"><path
             d="m 261,54 -13.8856,6.94282"
             style="fill:none;stroke:#000000;stroke-width:2;stroke-linecap:round;stroke-linejoin:round;stroke-miterlimit:10;stroke-dasharray:none;stroke-opacity:1"
             id="path1988" /></g><path
           d="m 143.3052,191.2199 c 0.7073,-0.2358 1.0896,-1.0003 0.8538,-1.7077 -0.2358,-0.7073 -1.0003,-1.0895 -1.7076,-0.8538 -0.7073,0.2358 -1.0896,1.0003 -0.8538,1.7077 0.2357,0.7073 1.0003,1.0895 1.7076,0.8538"
           style="fill:#000000;fill-opacity:1;fill-rule:nonzero;stroke:none"
           id="path1990" /><g
           id="g1992"
           transform="matrix(0.75,0,0,-0.75,-41.25,236.25)"><path
             d="m 246.0736,60.04017 c 0.9431,0.31437 1.4528,1.33374 1.1384,2.27684 -0.3143,0.9431 -1.3337,1.45279 -2.2768,1.13842 -0.9431,-0.31436 -1.4528,-1.33374 -1.1384,-2.27684 0.3143,-0.94309 1.3337,-1.45278 2.2768,-1.13842"
             style="fill:none;stroke:#000000;stroke-width:2;stroke-linecap:butt;stroke-linejoin:miter;stroke-miterlimit:10;stroke-dasharray:none;stroke-opacity:1"
             id="path1994" /></g><g
           id="g1996"
           transform="matrix(0.75,0,0,-0.75,107.25,213.75)"><text
             transform="translate(-76.616,5.776001)"
             style="font-variant:normal;font-weight:normal;font-size:16px;font-family:'Helvetica Neue';-inkscape-font-specification:HelveticaNeue;writing-mode:lr-tb;fill:#000000;fill-opacity:1;fill-rule:nonzero;stroke:none"
             id="text2000"><tspan
               x="0 10.368 19.264 27.856001 32.896 42.080002 55.728001 63.728001 68.176003 77.360001 82.096001 86.543999 95.136002 99.584 113.52 122.704 132.192 141.088 144.64"
               y="0"
               id="tspan1998">Anatomy of a Module</tspan></text></g><g
           id="g2002"
           transform="matrix(0.75,0,0,-0.75,-41.25,236.25)"><path
             d="m 126,102 10.5054,-3.5018"
             style="fill:none;stroke:#d6d6d6;stroke-width:1;stroke-linecap:round;stroke-linejoin:round;stroke-miterlimit:10;stroke-dasharray:none;stroke-opacity:1"
             id="path2004" /></g><g
           id="g2006"
           transform="matrix(0.75,0,0,-0.75,-41.25,236.25)"><path
             d="m 142.1975,96.60083 -5.6921,1.89737 m -0.7115,-2.13454 6.4036,0.23717 -4.9806,4.03187"
             style="fill:none;stroke:#d6d6d6;stroke-width:1;stroke-linecap:butt;stroke-linejoin:miter;stroke-miterlimit:10;stroke-dasharray:none;stroke-opacity:1"
             id="path2008" /></g><g
           id="g2010"
           transform="matrix(0.75,0,0,-0.75,-41.25,236.25)"><path
             d="m 126,111 10.2075,1.7012"
             style="fill:none;stroke:#d6d6d6;stroke-width:1;stroke-linecap:round;stroke-linejoin:round;stroke-miterlimit:10;stroke-dasharray:none;stroke-opacity:1"
             id="path2012" /></g><g
           id="g2014"
           transform="matrix(0.75,0,0,-0.75,-41.25,236.25)"><path
             d="m 142.1259,113.6876 -5.9184,-0.9864 m 0.3699,-2.2193 5.5485,3.2057 -6.2883,1.233"
             style="fill:none;stroke:#d6d6d6;stroke-width:1;stroke-linecap:butt;stroke-linejoin:miter;stroke-miterlimit:10;stroke-dasharray:none;stroke-opacity:1"
             id="path2016" /></g><g
           id="g2018"
           transform="matrix(0.75,0,0,-0.75,-41.25,236.25)"><path
             d="m 126,150 10.2075,-1.7012"
             style="fill:none;stroke:#d6d6d6;stroke-width:1;stroke-linecap:round;stroke-linejoin:round;stroke-miterlimit:10;stroke-dasharray:none;stroke-opacity:1"
             id="path2020" /></g><g
           id="g2022"
           transform="matrix(0.75,0,0,-0.75,-41.25,236.25)"><path
             d="m 142.1259,147.3124 -5.9184,0.9864 m -0.3699,-2.2194 6.2883,1.233 -5.5485,3.2057"
             style="fill:none;stroke:#d6d6d6;stroke-width:1;stroke-linecap:butt;stroke-linejoin:miter;stroke-miterlimit:10;stroke-dasharray:none;stroke-opacity:1"
             id="path2024" /></g><g
           id="g2026"
           transform="matrix(0.75,0,0,-0.75,-41.25,236.25)"><path
             d="m 126,159 10.5054,3.5018"
             style="fill:none;stroke:#d6d6d6;stroke-width:1;stroke-linecap:round;stroke-linejoin:round;stroke-miterlimit:10;stroke-dasharray:none;stroke-opacity:1"
             id="path2028" /></g><g
           id="g2030"
           transform="matrix(0.75,0,0,-0.75,-41.25,236.25)"><path
             d="m 142.1975,164.3992 -5.6921,-1.8974 m 0.7115,-2.1345 4.9806,4.0319 -6.4036,0.2371"
             style="fill:none;stroke:#d6d6d6;stroke-width:1;stroke-linecap:butt;stroke-linejoin:miter;stroke-miterlimit:10;stroke-dasharray:none;stroke-opacity:1"
             id="path2032" /></g><g
           id="g2034"
           transform="matrix(0.75,0,0,-0.75,-41.25,236.25)"><path
             d="m 126,198 h 10.1"
             style="fill:none;stroke:#d6d6d6;stroke-width:1;stroke-linecap:round;stroke-linejoin:round;stroke-miterlimit:10;stroke-dasharray:none;stroke-opacity:1"
             id="path2036" /></g><g
           id="g2038"
           transform="matrix(0.75,0,0,-0.75,-41.25,236.25)"><path
             d="m 142.1,198 h -6 m 0,-2.25 6,2.25 -6,2.25"
             style="fill:none;stroke:#d6d6d6;stroke-width:1;stroke-linecap:butt;stroke-linejoin:miter;stroke-miterlimit:10;stroke-dasharray:none;stroke-opacity:1"
             id="path2040" /></g><g
           id="g2042"
           transform="matrix(0.75,0,0,-0.75,-41.25,236.25)"><path
             d="m 126,207 10.934,5.467"
             style="fill:none;stroke:#d6d6d6;stroke-width:1;stroke-linecap:round;stroke-linejoin:round;stroke-miterlimit:10;stroke-dasharray:none;stroke-opacity:1"
             id="path2044" /></g><g
           id="g2046"
           transform="matrix(0.75,0,0,-0.75,-41.25,236.25)"><path
             d="m 142.3006,215.1503 -5.3666,-2.6833 m 1.0063,-2.0124 4.3603,4.6957 -6.3728,-0.6708"
             style="fill:none;stroke:#d6d6d6;stroke-width:1;stroke-linecap:butt;stroke-linejoin:miter;stroke-miterlimit:10;stroke-dasharray:none;stroke-opacity:1"
             id="path2048" /></g><g
           id="g2050"
           transform="matrix(0.75,0,0,-0.75,-41.25,236.25)"><path
             d="m 180,117 h 10.1"
             style="fill:none;stroke:#d6d6d6;stroke-width:1;stroke-linecap:round;stroke-linejoin:round;stroke-miterlimit:10;stroke-dasharray:none;stroke-opacity:1"
             id="path2052" /></g><g
           id="g2054"
           transform="matrix(0.75,0,0,-0.75,-41.25,236.25)"><path
             d="m 196.1,117 h -6 m 0,-2.25 6,2.25 -6,2.25"
             style="fill:none;stroke:#d6d6d6;stroke-width:1;stroke-linecap:butt;stroke-linejoin:miter;stroke-miterlimit:10;stroke-dasharray:none;stroke-opacity:1"
             id="path2056" /></g><g
           id="g2058"
           transform="matrix(0.75,0,0,-0.75,-41.25,236.25)"><path
             d="m 180,90 h 10.1"
             style="fill:none;stroke:#d6d6d6;stroke-width:1;stroke-linecap:round;stroke-linejoin:round;stroke-miterlimit:10;stroke-dasharray:none;stroke-opacity:1"
             id="path2060" /></g><g
           id="g2062"
           transform="matrix(0.75,0,0,-0.75,-41.25,236.25)"><path
             d="m 196.1,90 h -6 m 0,-2.25 6,2.25 -6,2.25"
             style="fill:none;stroke:#d6d6d6;stroke-width:1;stroke-linecap:butt;stroke-linejoin:miter;stroke-miterlimit:10;stroke-dasharray:none;stroke-opacity:1"
             id="path2064" /></g><g
           id="g2066"
           transform="matrix(0.75,0,0,-0.75,-41.25,236.25)"><path
             d="m 234,90 h 10.1"
             style="fill:none;stroke:#d6d6d6;stroke-width:1;stroke-linecap:round;stroke-linejoin:round;stroke-miterlimit:10;stroke-dasharray:none;stroke-opacity:1"
             id="path2068" /></g><g
           id="g2070"
           transform="matrix(0.75,0,0,-0.75,-41.25,236.25)"><path
             d="m 250.1,90 h -6 m 0,-2.25 6,2.25 -6,2.25"
             style="fill:none;stroke:#d6d6d6;stroke-width:1;stroke-linecap:butt;stroke-linejoin:miter;stroke-miterlimit:10;stroke-dasharray:none;stroke-opacity:1"
             id="path2072" /></g><g
           id="g2074"
           transform="matrix(0.75,0,0,-0.75,-41.25,236.25)"><path
             d="m 234,117 h 10.1"
             style="fill:none;stroke:#d6d6d6;stroke-width:1;stroke-linecap:round;stroke-linejoin:round;stroke-miterlimit:10;stroke-dasharray:none;stroke-opacity:1"
             id="path2076" /></g><g
           id="g2078"
           transform="matrix(0.75,0,0,-0.75,-41.25,236.25)"><path
             d="m 250.1,117 h -6 m 0,-2.25 6,2.25 -6,2.25"
             style="fill:none;stroke:#d6d6d6;stroke-width:1;stroke-linecap:butt;stroke-linejoin:miter;stroke-miterlimit:10;stroke-dasharray:none;stroke-opacity:1"
             id="path2080" /></g><g
           id="g2082"
           transform="matrix(0.75,0,0,-0.75,-41.25,236.25)"><path
             d="m 180,144 h 10.1"
             style="fill:none;stroke:#d6d6d6;stroke-width:1;stroke-linecap:round;stroke-linejoin:round;stroke-miterlimit:10;stroke-dasharray:none;stroke-opacity:1"
             id="path2084" /></g><g
           id="g2086"
           transform="matrix(0.75,0,0,-0.75,-41.25,236.25)"><path
             d="m 196.1,144 h -6 m 0,-2.25 6,2.25 -6,2.25"
             style="fill:none;stroke:#d6d6d6;stroke-width:1;stroke-linecap:butt;stroke-linejoin:miter;stroke-miterlimit:10;stroke-dasharray:none;stroke-opacity:1"
             id="path2088" /></g><g
           id="g2090"
           transform="matrix(0.75,0,0,-0.75,-41.25,236.25)"><path
             d="m 234,144 h 10.1"
             style="fill:none;stroke:#d6d6d6;stroke-width:1;stroke-linecap:round;stroke-linejoin:round;stroke-miterlimit:10;stroke-dasharray:none;stroke-opacity:1"
             id="path2092" /></g><g
           id="g2094"
           transform="matrix(0.75,0,0,-0.75,-41.25,236.25)"><path
             d="m 250.1,144 h -6 m 0,-2.25 6,2.25 -6,2.25"
             style="fill:none;stroke:#d6d6d6;stroke-width:1;stroke-linecap:butt;stroke-linejoin:miter;stroke-miterlimit:10;stroke-dasharray:none;stroke-opacity:1"
             id="path2096" /></g><g
           id="g2098"
           transform="matrix(0.75,0,0,-0.75,-41.25,236.25)"><path
             d="m 180,171 h 10.1"
             style="fill:none;stroke:#d6d6d6;stroke-width:1;stroke-linecap:round;stroke-linejoin:round;stroke-miterlimit:10;stroke-dasharray:none;stroke-opacity:1"
             id="path2100" /></g><g
           id="g2102"
           transform="matrix(0.75,0,0,-0.75,-41.25,236.25)"><path
             d="m 196.1,171 h -6 m 0,-2.25 6,2.25 -6,2.25"
             style="fill:none;stroke:#d6d6d6;stroke-width:1;stroke-linecap:butt;stroke-linejoin:miter;stroke-miterlimit:10;stroke-dasharray:none;stroke-opacity:1"
             id="path2104" /></g><g
           id="g2106"
           transform="matrix(0.75,0,0,-0.75,-41.25,236.25)"><path
             d="m 234,171 h 10.1"
             style="fill:none;stroke:#d6d6d6;stroke-width:1;stroke-linecap:round;stroke-linejoin:round;stroke-miterlimit:10;stroke-dasharray:none;stroke-opacity:1"
             id="path2108" /></g><g
           id="g2110"
           transform="matrix(0.75,0,0,-0.75,-41.25,236.25)"><path
             d="m 250.1,171 h -6 m 0,-2.25 6,2.25 -6,2.25"
             style="fill:none;stroke:#d6d6d6;stroke-width:1;stroke-linecap:butt;stroke-linejoin:miter;stroke-miterlimit:10;stroke-dasharray:none;stroke-opacity:1"
             id="path2112" /></g><g
           id="g2114"
           transform="matrix(0.75,0,0,-0.75,-41.25,236.25)"><path
             d="m 180,198 h 10.1"
             style="fill:none;stroke:#d6d6d6;stroke-width:1;stroke-linecap:round;stroke-linejoin:round;stroke-miterlimit:10;stroke-dasharray:none;stroke-opacity:1"
             id="path2116" /></g><g
           id="g2118"
           transform="matrix(0.75,0,0,-0.75,-41.25,236.25)"><path
             d="m 196.1,198 h -6 m 0,-2.25 6,2.25 -6,2.25"
             style="fill:none;stroke:#d6d6d6;stroke-width:1;stroke-linecap:butt;stroke-linejoin:miter;stroke-miterlimit:10;stroke-dasharray:none;stroke-opacity:1"
             id="path2120" /></g><g
           id="g2122"
           transform="matrix(0.75,0,0,-0.75,-41.25,236.25)"><path
             d="m 180,225 h 10.1"
             style="fill:none;stroke:#d6d6d6;stroke-width:1;stroke-linecap:round;stroke-linejoin:round;stroke-miterlimit:10;stroke-dasharray:none;stroke-opacity:1"
             id="path2124" /></g><g
           id="g2126"
           transform="matrix(0.75,0,0,-0.75,-41.25,236.25)"><path
             d="m 196.1,225 h -6 m 0,-2.25 6,2.25 -6,2.25"
             style="fill:none;stroke:#d6d6d6;stroke-width:1;stroke-linecap:butt;stroke-linejoin:miter;stroke-miterlimit:10;stroke-dasharray:none;stroke-opacity:1"
             id="path2128" /></g><g
           id="g2130"
           transform="matrix(0.75,0,0,-0.75,-41.25,236.25)"><path
             d="m 234,198 h 10.1"
             style="fill:none;stroke:#d6d6d6;stroke-width:1;stroke-linecap:round;stroke-linejoin:round;stroke-miterlimit:10;stroke-dasharray:none;stroke-opacity:1"
             id="path2132" /></g><g
           id="g2134"
           transform="matrix(0.75,0,0,-0.75,-41.25,236.25)"><path
             d="m 250.1,198 h -6 m 0,-2.25 6,2.25 -6,2.25"
             style="fill:none;stroke:#d6d6d6;stroke-width:1;stroke-linecap:butt;stroke-linejoin:miter;stroke-miterlimit:10;stroke-dasharray:none;stroke-opacity:1"
             id="path2136" /></g><g
           id="g2138"
           transform="matrix(0.75,0,0,-0.75,-41.25,236.25)"><path
             d="m 234,225 h 10.1"
             style="fill:none;stroke:#d6d6d6;stroke-width:1;stroke-linecap:round;stroke-linejoin:round;stroke-miterlimit:10;stroke-dasharray:none;stroke-opacity:1"
             id="path2140" /></g><g
           id="g2142"
           transform="matrix(0.75,0,0,-0.75,-41.25,236.25)"><path
             d="m 250.1,225 h -6 m 0,-2.25 6,2.25 -6,2.25"
             style="fill:none;stroke:#d6d6d6;stroke-width:1;stroke-linecap:butt;stroke-linejoin:miter;stroke-miterlimit:10;stroke-dasharray:none;stroke-opacity:1"
             id="path2144" /></g></g></g></g></svg>
